<svg id="Group_743" data-name="Group 743" xmlns="http://www.w3.org/2000/svg" width="45" height="45" viewBox="0 0 45 45">
  <rect id="Rectangle_1236" data-name="Rectangle 1236" width="45" height="45" fill="none"/>
  <g id="Group_680" data-name="Group 680" transform="translate(3.49 3)">
    <path id="Path_544" data-name="Path 544" d="M564.8,483.2c-5.955,0-10.8-2.768-10.8-6.171V458h21.6v19.028C575.6,480.431,570.755,483.2,564.8,483.2Z" transform="translate(-537.029 -451.829)" fill="#cef"/>
    <path id="Path_545" data-name="Path 545" d="M574.6,458.028v18.513c0,3.066-4.71,5.657-10.285,5.657s-10.285-2.591-10.285-5.657V458.028H574.6M575.627,457H553v19.542c0,3.692,5.065,6.685,11.314,6.685s11.314-2.993,11.314-6.685V457Z" transform="translate(-536.544 -451.343)" fill="#007aff"/>
    <path id="Path_546" data-name="Path 546" d="M564.8,457.285c-5.853,0-10.8-2.355-10.8-5.143S558.946,447,564.8,447s10.8,2.355,10.8,5.143S570.653,457.285,564.8,457.285Z" transform="translate(-537.029 -446.486)" fill="#cef"/>
    <path id="Path_547" data-name="Path 547" d="M564.314,447.029c6.061,0,10.285,2.44,10.285,4.628s-4.224,4.628-10.285,4.628-10.285-2.44-10.285-4.628,4.224-4.628,10.285-4.628m0-1.029c-6.248,0-11.314,2.532-11.314,5.657s5.065,5.657,11.314,5.657,11.314-2.532,11.314-5.657S570.562,446,564.314,446Z" transform="translate(-536.544 -446)" fill="#007aff"/>
    <path id="Path_548" data-name="Path 548" d="M575.6,464.5c0,2.982-4.835,5.4-10.8,5.4s-10.8-2.418-10.8-5.4" transform="translate(-537.029 -454.986)" fill="none" stroke="#007aff" stroke-miterlimit="10" stroke-width="1"/>
    <path id="Path_549" data-name="Path 549" d="M575.6,472.5c0,2.982-4.835,5.4-10.8,5.4s-10.8-2.418-10.8-5.4" transform="translate(-537.029 -458.872)" fill="none" stroke="#007aff" stroke-miterlimit="10" stroke-width="1"/>
    <path id="Path_550" data-name="Path 550" d="M575.6,480.5c0,2.982-4.835,5.4-10.8,5.4s-10.8-2.418-10.8-5.4" transform="translate(-537.029 -462.758)" fill="none" stroke="#007aff" stroke-miterlimit="10" stroke-width="1"/>
    <path id="Path_551" data-name="Path 551" d="M568.692,451.43c-3.855,0-6.981,1.249-6.982,2.79s3.122,2.792,6.977,2.792h0c3.855,0,6.981-1.249,6.982-2.79s-3.122-2.792-6.977-2.792Z" transform="translate(-540.774 -448.638)" fill="#98ccfd"/>
    <path id="Path_552" data-name="Path 552" d="M554,486.59c0,3.525,4.835,6.382,10.8,6.382s10.8-2.857,10.8-6.382" transform="translate(-537.029 -465.716)" fill="none" stroke="#007aff" stroke-miterlimit="10" stroke-width="1"/>
    <path id="Path_553" data-name="Path 553" d="M532.8,504.971c-5.853,0-10.8-2.591-10.8-5.657V488h21.6v11.314C543.6,502.38,538.653,504.971,532.8,504.971Z" transform="translate(-521.486 -466.401)" fill="#cef"/>
    <path id="Path_554" data-name="Path 554" d="M542.6,488.028v10.8c0,2.787-4.71,5.143-10.285,5.143s-10.285-2.355-10.285-5.143v-10.8H542.6M543.627,487H521v11.828c0,3.408,5.065,6.171,11.314,6.171s11.314-2.763,11.314-6.171V487Z" transform="translate(-521 -465.915)" fill="#007aff"/>
    <path id="Path_555" data-name="Path 555" d="M543.6,494.5c0,2.982-4.835,5.4-10.8,5.4s-10.8-2.418-10.8-5.4" transform="translate(-521.486 -469.558)" fill="none" stroke="#007aff" stroke-miterlimit="10" stroke-width="1"/>
    <path id="Path_556" data-name="Path 556" d="M543.6,502.5c0,2.982-4.835,5.4-10.8,5.4s-10.8-2.418-10.8-5.4" transform="translate(-521.486 -473.444)" fill="none" stroke="#007aff" stroke-miterlimit="10" stroke-width="1"/>
    <path id="Path_557" data-name="Path 557" d="M532.8,487.285c-5.853,0-10.8-2.355-10.8-5.143S526.946,477,532.8,477s10.8,2.355,10.8,5.143S538.653,487.285,532.8,487.285Z" transform="translate(-521.486 -461.058)" fill="#cef"/>
    <path id="Path_558" data-name="Path 558" d="M532.314,477.028c6.061,0,10.285,2.44,10.285,4.628s-4.224,4.628-10.285,4.628-10.285-2.44-10.285-4.628,4.224-4.628,10.285-4.628m0-1.028c-6.248,0-11.314,2.532-11.314,5.657s5.065,5.657,11.314,5.657,11.314-2.532,11.314-5.657S538.562,476,532.314,476Z" transform="translate(-521 -460.572)" fill="#007aff"/>
    <path id="Path_559" data-name="Path 559" d="M536.691,481.43c-3.855,0-6.981,1.249-6.983,2.79s3.122,2.792,6.976,2.792h.006c3.855,0,6.981-1.249,6.983-2.79s-3.122-2.792-6.976-2.792Z" transform="translate(-525.23 -463.21)" fill="#b6dcfe"/>
    <path id="Path_560" data-name="Path 560" d="M553.562,476h1.286v1.286h-1.286Z" transform="translate(-536.817 -460.572)" fill="#4788c7"/>
  </g>
</svg>
