<svg id="icon-info" xmlns="http://www.w3.org/2000/svg" width="21.769" height="21.771" viewBox="0 0 21.769 21.771">
  <path id="Path_9207" data-name="Path 9207" d="M271.068,148.529a1.144,1.144,0,0,0,1.144-1.144v-4.541a1.144,1.144,0,0,0-2.287,0v4.541A1.144,1.144,0,0,0,271.068,148.529Z" transform="translate(-260.184 -131.932)" fill="#63748a"/>
  <path id="Path_9208" data-name="Path 9208" d="M271.068,103.824a1.144,1.144,0,0,0,1.144-1.144v-.007a1.144,1.144,0,1,0-1.144,1.15Z" transform="translate(-260.184 -96.357)" fill="#63748a"/>
  <path id="Path_9210" data-name="Path 9210" d="M195.625,78.037A10.885,10.885,0,1,0,184.74,67.15,10.9,10.9,0,0,0,195.625,78.037Zm0-19.484a8.6,8.6,0,1,1-8.6,8.6A8.607,8.607,0,0,1,195.625,58.553Z" transform="translate(-184.74 -56.266)" fill="#63748a"/>
</svg>
