<svg xmlns="http://www.w3.org/2000/svg" width="69" height="69" viewBox="0 0 69 69">
  <g id="Group_2213" data-name="Group 2213" transform="translate(-0.104)">
    <g id="Group_725" data-name="Group 725" transform="translate(5.401 4.233)">
      <g id="Group_724" data-name="Group 724" transform="translate(0 0)">
        <path id="Path_681" data-name="Path 681" d="M-332.049,43.955h-25.931V64.336h25.931ZM-346.877,59.7a.915.915,0,0,1-.915.913.916.916,0,0,1-.916-.913V57.836h-3.722V59.7a.915.915,0,0,1-.916.913.914.914,0,0,1-.913-.913V51.369a3.694,3.694,0,0,1,3.69-3.69,3.7,3.7,0,0,1,3.691,3.69Zm11.105-2.777a3.7,3.7,0,0,1-3.692,3.69h-2.775a.915.915,0,0,1-.915-.913V48.593a.915.915,0,0,1,.915-.913h2.775a3.7,3.7,0,0,1,3.692,3.69Z" transform="translate(368.14 -22.692)" fill="#fff"/>
        <path id="Path_682" data-name="Path 682" d="M-351.427,48.648a1.863,1.863,0,0,0-1.861,1.862v4.638h3.722V50.51A1.863,1.863,0,0,0-351.427,48.648Z" transform="translate(368.999 -21.833)" fill="#fff"/>
        <path id="Path_683" data-name="Path 683" d="M-342.041,48.648H-343.9v9.275h1.861a1.864,1.864,0,0,0,1.862-1.861V50.51A1.864,1.864,0,0,0-342.041,48.648Z" transform="translate(370.717 -21.833)" fill="#fff"/>
        <path id="Path_684" data-name="Path 684" d="M-365.021,79.032a3.254,3.254,0,0,0,3.25,3.249h49.97a3.253,3.253,0,0,0,3.249-3.249V36.916h-56.469Zm40.727-30.064h8.329a.915.915,0,0,1,.916.913.915.915,0,0,1-.916.915h-8.329a.915.915,0,0,1-.914-.915A.915.915,0,0,1-324.294,48.968Zm0,8.328h8.329a.915.915,0,0,1,.916.915.916.916,0,0,1-.916.914h-8.329a.916.916,0,0,1-.914-.914A.915.915,0,0,1-324.294,57.3Zm0,8.329h8.329a.915.915,0,0,1,.916.913.916.916,0,0,1-.916.916h-8.329a.916.916,0,0,1-.914-.916A.915.915,0,0,1-324.294,65.624Zm-34.228-21.3a.916.916,0,0,1,.916-.915h27.761a.916.916,0,0,1,.916.915V66.538a.916.916,0,0,1-.916.916h-27.761a.916.916,0,0,1-.916-.915Zm.916,29.624h41.641a.915.915,0,0,1,.916.913.916.916,0,0,1-.916.916h-41.641a.916.916,0,0,1-.916-.916A.915.915,0,0,1-357.607,73.953Z" transform="translate(366.851 -23.98)" fill="#fff"/>
        <path id="Path_685" data-name="Path 685" d="M-311.8,27.529h-49.97a3.253,3.253,0,0,0-3.25,3.25V36.8h56.469V30.779A3.252,3.252,0,0,0-311.8,27.529Zm-48.582,5.553a.918.918,0,0,1-.916-.916.917.917,0,0,1,.916-.915.916.916,0,0,1,.915.915A.917.917,0,0,1-360.383,33.082Zm5.552,0a.917.917,0,0,1-.915-.916.916.916,0,0,1,.915-.915.916.916,0,0,1,.916.915A.917.917,0,0,1-354.831,33.082Zm5.552,0a.917.917,0,0,1-.914-.916.916.916,0,0,1,.914-.915.917.917,0,0,1,.916.915A.918.918,0,0,1-349.279,33.082Z" transform="translate(366.851 -25.699)" fill="#dff0fe"/>
        <path id="Path_686" data-name="Path 686" d="M-311.518,25.982h-49.97a5.086,5.086,0,0,0-5.08,5.08V81.033a5.084,5.084,0,0,0,5.08,5.078h49.97a5.084,5.084,0,0,0,5.079-5.078V31.062A5.086,5.086,0,0,0-311.518,25.982Zm3.249,55.051a3.253,3.253,0,0,1-3.249,3.249h-49.97a3.254,3.254,0,0,1-3.25-3.249V38.918h56.469Zm0-43.946h-56.469V31.062a3.253,3.253,0,0,1,3.25-3.25h49.97a3.252,3.252,0,0,1,3.249,3.25Z" transform="translate(366.568 -25.982)" fill="#4788c7"/>
        <circle id="Ellipse_11" data-name="Ellipse 11" cx="0.915" cy="0.915" r="0.915" transform="translate(5.553 5.553)" fill="#4788c7"/>
        <path id="Path_687" data-name="Path 687" d="M-356.267,30.676a.916.916,0,0,0-.914.915.917.917,0,0,0,.914.916.917.917,0,0,0,.916-.916A.916.916,0,0,0-356.267,30.676Z" transform="translate(368.286 -25.123)" fill="#4788c7"/>
        <circle id="Ellipse_12" data-name="Ellipse 12" cx="0.915" cy="0.915" r="0.915" transform="translate(16.657 5.553)" fill="#4788c7"/>
        <path id="Path_688" data-name="Path 688" d="M-358.612,66.448h27.761a.916.916,0,0,0,.916-.916V43.323a.916.916,0,0,0-.916-.914h-27.761a.916.916,0,0,0-.916.914v22.21A.916.916,0,0,0-358.612,66.448Zm.915-22.21h25.931V64.619H-357.7Z" transform="translate(367.857 -22.975)" fill="#4788c7"/>
        <path id="Path_689" data-name="Path 689" d="M-351.144,47.1a3.694,3.694,0,0,0-3.69,3.69v8.329a.914.914,0,0,0,.913.913.915.915,0,0,0,.916-.913V57.26h3.722v1.862a.916.916,0,0,0,.916.913.915.915,0,0,0,.915-.913V50.793A3.7,3.7,0,0,0-351.144,47.1Zm1.861,8.328h-3.722V50.793a1.863,1.863,0,0,1,1.861-1.862,1.863,1.863,0,0,1,1.861,1.862Z" transform="translate(368.716 -22.116)" fill="#4788c7"/>
        <path id="Path_690" data-name="Path 690" d="M-341.758,47.1h-2.775a.915.915,0,0,0-.914.913V59.122a.915.915,0,0,0,.914.913h2.775a3.7,3.7,0,0,0,3.692-3.69V50.793A3.7,3.7,0,0,0-341.758,47.1Zm1.862,9.242a1.864,1.864,0,0,1-1.862,1.861h-1.861V48.931h1.861a1.864,1.864,0,0,1,1.862,1.862Z" transform="translate(370.434 -22.116)" fill="#4788c7"/>
        <path id="Path_691" data-name="Path 691" d="M-358.612,70.051h41.641a.916.916,0,0,0,.916-.916.915.915,0,0,0-.916-.913h-41.641a.915.915,0,0,0-.916.913A.916.916,0,0,0-358.612,70.051Z" transform="translate(367.857 -18.249)" fill="#4788c7"/>
        <path id="Path_692" data-name="Path 692" d="M-330.454,48.931h8.329a.915.915,0,0,0,.916-.915.915.915,0,0,0-.916-.913h-8.329a.915.915,0,0,0-.914.913A.915.915,0,0,0-330.454,48.931Z" transform="translate(373.012 -22.116)" fill="#4788c7"/>
        <path id="Path_693" data-name="Path 693" d="M-330.454,55.971h8.329a.916.916,0,0,0,.916-.915.915.915,0,0,0-.916-.915h-8.329a.915.915,0,0,0-.914.915A.916.916,0,0,0-330.454,55.971Z" transform="translate(373.012 -20.827)" fill="#4788c7"/>
        <path id="Path_694" data-name="Path 694" d="M-330.454,63.011h8.329a.916.916,0,0,0,.916-.916.915.915,0,0,0-.916-.913h-8.329a.915.915,0,0,0-.914.913A.916.916,0,0,0-330.454,63.011Z" transform="translate(373.012 -19.538)" fill="#4788c7"/>
      </g>
    </g>
    <rect id="Rectangle_2113" data-name="Rectangle 2113" width="69" height="69" transform="translate(0.104)" fill="none"/>
  </g>
</svg>
