<svg xmlns="http://www.w3.org/2000/svg" width="32" height="20.466" viewBox="0 0 32 20.466">
  <path id="Path_4357" data-name="Path 4357" d="M32,5.4a3.045,3.045,0,1,0-5.259,2.087,4.99,4.99,0,0,1-8.6-2.271,3.045,3.045,0,1,0-4.275,0,4.99,4.99,0,0,1-8.6,2.271,3.043,3.043,0,1,0-2.866.887c.324,2.674,1.01,6.048,2.462,8.343v2.811a.942.942,0,0,0,.943.942H26.2a.942.942,0,0,0,.942-.942V16.712c1.452-2.295,2.138-5.669,2.462-8.343A3.05,3.05,0,0,0,32,5.4Zm-4.2,0a1.16,1.16,0,1,1,1.16,1.16A1.161,1.161,0,0,1,27.8,5.4ZM14.84,3.045A1.16,1.16,0,1,1,16,4.2,1.162,1.162,0,0,1,14.84,3.045ZM1.885,5.4a1.16,1.16,0,1,1,1.16,1.16A1.162,1.162,0,0,1,1.885,5.4ZM6.739,18.581V17.374H25.261v1.207Zm18.946-3.092H6.315a18.258,18.258,0,0,1-1.888-6.18A6.875,6.875,0,0,0,15.592,6.061a2.975,2.975,0,0,0,.816,0,6.891,6.891,0,0,0,6.611,4.975,6.849,6.849,0,0,0,4.556-1.729A18.232,18.232,0,0,1,25.685,15.489Z" fill="#ff9500"/>
</svg>
