<svg id="Group_736" data-name="Group 736" xmlns="http://www.w3.org/2000/svg" width="45" height="45" viewBox="0 0 45 45">
  <rect id="Rectangle_1448" data-name="Rectangle 1448" width="45" height="45" fill="none"/>
  <g id="Group_686" data-name="Group 686" transform="translate(2 0)">
    <g id="Group_684" data-name="Group 684" transform="translate(0 11.086)">
      <path id="Path_572" data-name="Path 572" d="M41.86,83.614l.94-8.466h7.52l.94,8.466Z" transform="translate(-26.452 -50.278)" fill="#98ccfd"/>
      <path id="Path_573" data-name="Path 573" d="M49.319,75.206l.823,7.408H41.924l.823-7.408h6.572m.947-1.058H41.8l-1.058,9.525H51.325l-1.058-9.525Z" transform="translate(-25.926 -49.808)" fill="#4788c7"/>
      <path id="Path_574" data-name="Path 574" d="M15.329,56.663a1.589,1.589,0,0,1-1.587-1.587V30.735a1.589,1.589,0,0,1,1.587-1.587H51.311A1.589,1.589,0,0,1,52.9,30.735v24.34a1.589,1.589,0,0,1-1.587,1.587Z" transform="translate(-13.213 -28.619)" fill="#fff"/>
      <path id="Path_575" data-name="Path 575" d="M50.84,29.206A1.06,1.06,0,0,1,51.9,30.265v24.34a1.06,1.06,0,0,1-1.058,1.058H14.859A1.06,1.06,0,0,1,13.8,54.605V30.265a1.06,1.06,0,0,1,1.058-1.058H50.84m0-1.058H14.859a2.116,2.116,0,0,0-2.117,2.117v24.34a2.116,2.116,0,0,0,2.117,2.117H50.84a2.116,2.116,0,0,0,2.117-2.117V30.265a2.116,2.116,0,0,0-2.117-2.117Z" transform="translate(-12.742 -28.148)" fill="#4788c7"/>
      <path id="Path_576" data-name="Path 576" d="M15.329,76.439a1.589,1.589,0,0,1-1.587-1.587v-3.7H52.9v3.7a1.589,1.589,0,0,1-1.587,1.587Z" transform="translate(-13.213 -48.395)" fill="#98ccfd"/>
      <path id="Path_577" data-name="Path 577" d="M51.9,71.206v3.175a1.06,1.06,0,0,1-1.058,1.058H14.859A1.06,1.06,0,0,1,13.8,74.381V71.206H51.9m1.058-1.058H12.742v4.233A2.116,2.116,0,0,0,14.859,76.5H50.84a2.116,2.116,0,0,0,2.117-2.117V70.148ZM40.786,80.731H24.912a.529.529,0,0,0-.529.529h0a.529.529,0,0,0,.529.529H40.786a.529.529,0,0,0,.529-.529h0A.529.529,0,0,0,40.786,80.731Z" transform="translate(-12.742 -47.924)" fill="#4788c7"/>
      <path id="Path_578" data-name="Path 578" d="M49.8,74.148a1.058,1.058,0,1,0,1.058,1.058A1.058,1.058,0,0,0,49.8,74.148Z" transform="translate(-29.693 -49.808)" fill="#fff"/>
    </g>
    <g id="Group_685" data-name="Group 685" transform="translate(3.607 16.237)">
      <rect id="Rectangle_1241" data-name="Rectangle 1241" width="16.068" height="1.29" rx="0.645" fill="#4788c7"/>
      <rect id="Rectangle_1242" data-name="Rectangle 1242" width="16.068" height="1.29" rx="0.645" transform="translate(0 3.359)" fill="#4788c7"/>
      <rect id="Rectangle_1243" data-name="Rectangle 1243" width="11.683" height="1.29" rx="0.645" transform="translate(0 7.131)" fill="#4788c7"/>
      <rect id="Rectangle_1244" data-name="Rectangle 1244" width="11.683" height="1.29" rx="0.645" transform="translate(0 10.903)" fill="#4788c7"/>
    </g>
    <path id="Path_579" data-name="Path 579" d="M57.475,38.077l-1.709-2.563V20.678h-1.45a3.387,3.387,0,0,1-3.383-3.383v-5.8a3.387,3.387,0,0,1,3.383-3.383h8.7A3.387,3.387,0,0,1,66.4,11.494v5.8a3.387,3.387,0,0,1-3.383,3.383h-1.45v4.15l-.967.966v1.367l.967.966v1.533l-.967.967v1.367l.967.967v2.554l-1.709,2.563ZM55.282,11.011a1.452,1.452,0,0,0-1.45,1.45v.967a1.452,1.452,0,0,0,1.45,1.45h6.767a1.452,1.452,0,0,0,1.45-1.45v-.967a1.452,1.452,0,0,0-1.45-1.45Z" transform="translate(-30.724 -7.627)" fill="#dff0fe"/>
    <path id="Path_580" data-name="Path 580" d="M62.586,8.164a2.9,2.9,0,0,1,2.9,2.9v5.8a2.9,2.9,0,0,1-2.9,2.9H60.652V24.2l-.683.684-.284.283v1.767l.284.283.683.684V29.03l-.683.683L59.685,30v1.767l.284.283.683.684v2.207l-1.484,2.227H57.3l-1.484-2.227V19.764H53.885a2.9,2.9,0,0,1-2.9-2.9v-5.8a2.9,2.9,0,0,1,2.9-2.9h8.7M54.852,14.93h6.767A1.935,1.935,0,0,0,63.552,13v-.967A1.936,1.936,0,0,0,61.619,10.1H54.852a1.935,1.935,0,0,0-1.933,1.933V13a1.935,1.935,0,0,0,1.933,1.933M62.586,7.2h-8.7a3.867,3.867,0,0,0-3.866,3.867v5.8a3.867,3.867,0,0,0,3.866,3.866h.967v14.5l1.933,2.9h2.9l1.933-2.9v-2.9l-.967-.966V30.4l.967-.967V27.5l-.967-.967v-.966l.967-.967V20.73h.967a3.866,3.866,0,0,0,3.866-3.866v-5.8A3.867,3.867,0,0,0,62.586,7.2Zm-7.733,6.767A.967.967,0,0,1,53.885,13v-.967a.967.967,0,0,1,.967-.967h6.767a.967.967,0,0,1,.967.967V13a.967.967,0,0,1-.967.966Z" transform="translate(-30.294 -7.197)" fill="#4788c7"/>
    <path id="Path_581" data-name="Path 581" d="M63.29,25.459a.485.485,0,0,0-.483.484v16.14l.517.776h.45V25.943A.485.485,0,0,0,63.29,25.459Z" transform="translate(-36.316 -15.796)" fill="#98ccfd"/>
  </g>
</svg>
