<svg xmlns="http://www.w3.org/2000/svg" width="24" height="24" viewBox="0 0 24 24">
  <g id="Group_2155" data-name="Group 2155" transform="translate(-3972 57)">
    <g id="Group_2154" data-name="Group 2154" transform="translate(2549.598 -1773.033)">
      <path id="Path_4370" data-name="Path 4370" d="M83.5,2.334A3.614,3.614,0,0,1,84.35.981a3.347,3.347,0,0,1,5.263.781c.806,1.466,1.66,2.9,2.49,4.349,1.386,2.408,2.789,4.817,4.159,7.233a3.331,3.331,0,1,1-5.827,3.23q-1.825-3.178-3.659-6.347a.73.73,0,0,0-.089-.129,1.31,1.31,0,0,1-.266-.395c-.54-.95-1.1-1.893-1.636-2.835-.347-.612-.709-1.216-1.056-1.828a3.334,3.334,0,0,1-.443-1.772,2.468,2.468,0,0,1,.21-.934" transform="translate(1347.705 1719)" fill="#3c8bd9"/>
      <path id="Path_4371" data-name="Path 4371" d="M17.394,28.6a4.641,4.641,0,0,0-.153.886,3.485,3.485,0,0,0,.483,1.894q1.327,2.284,2.647,4.585c.08.137.145.274.225.4-.483.838-.965,1.668-1.456,2.506-.676,1.168-1.352,2.345-2.035,3.513-.032,0-.04-.016-.048-.04a.5.5,0,0,1,.032-.185,3.247,3.247,0,0,0-.772-3.2,3.064,3.064,0,0,0-1.891-.975,3.261,3.261,0,0,0-2.582.717c-.137.1-.225.258-.386.338A.054.054,0,0,1,11.4,39c.386-.669.764-1.338,1.15-2.006q2.389-4.158,4.787-8.308c.016-.032.04-.056.056-.089" transform="translate(1413.807 1692.731)" fill="#fabc04"/>
      <path id="Path_4372" data-name="Path 4372" d="M2.239,145.209c.153-.137.3-.282.459-.41a3.325,3.325,0,0,1,5.318,2.019,3.536,3.536,0,0,1-.129,1.714.842.842,0,0,1-.032.137c-.072.129-.137.265-.217.394a3.234,3.234,0,0,1-3.154,1.681,3.3,3.3,0,0,1-3.049-2.88,3.219,3.219,0,0,1,.442-2.14c.08-.145.177-.274.265-.418.04-.032.024-.1.1-.1" transform="translate(1423 1586.554)" fill="#34a852"/>
      <path id="Path_4373" data-name="Path 4373" d="M10.774,157.632c-.032.032-.032.088-.088.1-.008-.056.024-.089.056-.129l.032.032" transform="translate(1414.464 1574.125)" fill="#fabc04"/>
      <path id="Path_4374" data-name="Path 4374" d="M81.448,199.437c-.032-.056,0-.1.032-.137l.032.032-.064.1" transform="translate(1349.414 1535.786)" fill="#e1c025"/>
    </g>
    <rect id="Rectangle_2057" data-name="Rectangle 2057" width="24" height="24" transform="translate(3972 -57)" fill="none"/>
  </g>
</svg>
