<svg xmlns="http://www.w3.org/2000/svg" width="55.499" height="32.918" viewBox="0 0 55.499 32.918"><g transform="translate(1554.142 -1680.832)"><path d="M411.9,151.449l-.23-.01a7.225,7.225,0,0,1-2.506-13.931l.442-.177-.072-.471a7.1,7.1,0,0,1-.089-1.08,7.21,7.21,0,0,1,9.125-6.973l.607.165.137-.613a9.032,9.032,0,0,1,16.682-2.438l.2.353.4-.052a8.9,8.9,0,0,1,1.169-.084,9.036,9.036,0,0,1,8.968,7.956l.035.3.265.151a9.035,9.035,0,0,1-4.447,16.9H411.9Z" transform="translate(-1958.159 1560.117)" fill="#ffc5ac"/><path d="M427.724,121.522a8.453,8.453,0,0,1,7.346,4.3l.4.706.805-.1a8.362,8.362,0,0,1,9.461,7.345l.072.605.53.3a8.433,8.433,0,0,1-4.151,15.776H411.667l-.385-.01a6.622,6.622,0,0,1-2.3-12.769l.885-.356-.141-.943a6.443,6.443,0,0,1-.084-.99,6.606,6.606,0,0,1,8.366-6.39l1.214.329.277-1.227a8.383,8.383,0,0,1,8.222-6.572m0-1.205a9.642,9.642,0,0,0-9.4,7.512,7.81,7.81,0,0,0-9.886,7.553,7.937,7.937,0,0,0,.1,1.169,7.828,7.828,0,0,0,2.715,15.092v.01h30.936a9.638,9.638,0,0,0,4.745-18.03,9.569,9.569,0,0,0-10.813-8.4,9.635,9.635,0,0,0-8.4-4.91Z" transform="translate(-1957.761 1560.515)" fill="#ff3b30"/><g transform="translate(-1520.338 1692.055)"><path d="M470.958,160.431A10.245,10.245,0,1,1,481.2,150.186,10.256,10.256,0,0,1,470.958,160.431Z" transform="translate(-460.11 -139.338)" fill="#ffc5ac"/><path d="M470.56,140.146a9.642,9.642,0,1,1-9.642,9.642,9.653,9.653,0,0,1,9.642-9.642m0-1.205a10.847,10.847,0,1,0,10.847,10.847,10.847,10.847,0,0,0-10.847-10.847Z" transform="translate(-459.713 -138.941)" fill="#ff3b30"/><g transform="translate(9.642 4.821)"><path d="M475.713,146.941h2.411v7.232h-2.411Z" transform="translate(-475.713 -146.941)" fill="#fff"/><g transform="translate(0 9.642)"><path d="M476.918,162.941h0a1.2,1.2,0,0,1,1.205,1.205h0a1.2,1.2,0,0,1-1.205,1.205h0a1.2,1.2,0,0,1-1.205-1.205h0A1.2,1.2,0,0,1,476.918,162.941Z" transform="translate(-475.713 -162.941)" fill="#fff"/></g></g></g></g></svg>