<svg id="Group_733" data-name="Group 733" xmlns="http://www.w3.org/2000/svg" width="45" height="45" viewBox="0 0 45 45">
  <rect id="Rectangle_1445" data-name="Rectangle 1445" width="45" height="45" fill="none"/>
  <g id="Group_677" data-name="Group 677" transform="translate(1)">
    <path id="Path_495" data-name="Path 495" d="M-99.936,368.967V328.775h20.442L-69.2,339.068v29.9Z" transform="translate(100.527 -324.574)" fill="#b6dcfe"/>
    <path id="Path_496" data-name="Path 496" d="M-80.4,328.707l9.946,9.946v29.064H-100v-39.01H-80.4m.489-1.182h-21.278V368.9h31.918V338.164l-10.639-10.639Z" transform="translate(101.186 -323.915)" fill="#4788c7"/>
    <path id="Path_497" data-name="Path 497" d="M-92.877,361.468V321.11h21.093l10.04,10.04v30.318Z" transform="translate(96.806 -320.534)" fill="#fff"/>
    <path id="Path_498" data-name="Path 498" d="M-72.665,321.044l9.7,9.7v29.5h-29.98v-39.2h20.278m.477-1.153H-94.1V361.4h32.286V330.269l-10.378-10.378Z" transform="translate(97.449 -319.891)" fill="#4788c7"/>
    <path id="Path_499" data-name="Path 499" d="M-48.983,331.488V321.11h.338l10.04,10.04v.338Z" transform="translate(73.667 -320.534)" fill="#dff0fe"/>
    <path id="Path_500" data-name="Path 500" d="M-49.049,321.521l8.747,8.747h-8.747v-8.747m0-1.63H-50.2v11.531h11.531v-1.153l-10.378-10.378Z" transform="translate(74.31 -319.891)" fill="#4788c7"/>
    <path id="Path_501" data-name="Path 501" d="M-35.571,358.908h4.612v21.909h-4.612Z" transform="translate(66.597 -340.459)" fill="#fff"/>
    <path id="Path_502" data-name="Path 502" d="M-30.732,390.007a1.856,1.856,0,0,1-1.321-.548L-43.63,377.077l1.826-1.829L-29.4,386.833a1.85,1.85,0,0,1,.532,1.307,1.854,1.854,0,0,1-.548,1.32A1.853,1.853,0,0,1-30.732,390.007Z" transform="translate(70.845 -349.073)" fill="#98ccfd"/>
    <path id="Path_503" data-name="Path 503" d="M-42.684,375.157l11.97,11.177a1.293,1.293,0,0,1,0,1.825,1.277,1.277,0,0,1-.912.378,1.261,1.261,0,0,1-.886-.351l-11.21-11.99,1.037-1.04m-.027-1.6-2.614,2.616,11.971,12.8a2.434,2.434,0,0,0,1.728.716,2.437,2.437,0,0,0,1.729-.716,2.443,2.443,0,0,0,0-3.456l-12.814-11.965Z" transform="translate(71.739 -348.179)" fill="#4788c7"/>
    <g id="Group_664" data-name="Group 664" transform="translate(18.342 17.296)">
      <path id="Path_504" data-name="Path 504" d="M-53.1,357.689a8.072,8.072,0,0,0-8.072,8.072,8.072,8.072,0,0,0,8.072,8.072,8.072,8.072,0,0,0,8.072-8.072A8.072,8.072,0,0,0-53.1,357.689Z" transform="translate(61.752 -357.113)" fill="#dff0fe"/>
      <path id="Path_505" data-name="Path 505" d="M-53.747,357.623a7.5,7.5,0,0,1,7.5,7.5,7.5,7.5,0,0,1-7.5,7.495,7.5,7.5,0,0,1-7.5-7.495,7.5,7.5,0,0,1,7.5-7.5m0-1.153a8.648,8.648,0,0,0-8.648,8.648,8.648,8.648,0,0,0,8.648,8.648,8.648,8.648,0,0,0,8.648-8.648,8.648,8.648,0,0,0-8.648-8.648Z" transform="translate(62.395 -356.47)" fill="#4788c7"/>
    </g>
    <g id="Group_665" data-name="Group 665" transform="translate(34.486 13.837)">
      <path id="Path_506" data-name="Path 506" d="M-27.679,349.154h0a.578.578,0,0,1,.576.576v4.612a.578.578,0,0,1-.576.577h0a.578.578,0,0,1-.576-.577V349.73A.578.578,0,0,1-27.679,349.154Z" transform="translate(28.255 -349.154)" fill="#4788c7"/>
    </g>
    <g id="Group_666" data-name="Group 666" transform="translate(34.486 39.205)">
      <path id="Path_507" data-name="Path 507" d="M-27.679,402.8h0a.578.578,0,0,1,.576.576v1.153a.578.578,0,0,1-.576.576h0a.578.578,0,0,1-.576-.576v-1.153A.578.578,0,0,1-27.679,402.8Z" transform="translate(28.255 -402.802)" fill="#4788c7"/>
    </g>
    <rect id="Rectangle_1232" data-name="Rectangle 1232" width="14.359" height="1.153" rx="0.577" transform="translate(7.03 14.242)" fill="#4788c7"/>
    <rect id="Rectangle_1233" data-name="Rectangle 1233" width="14.359" height="1.153" rx="0.577" transform="translate(7.03 17.244)" fill="#4788c7"/>
    <rect id="Rectangle_1234" data-name="Rectangle 1234" width="10.44" height="1.153" rx="0.577" transform="translate(7.03 20.615)" fill="#4788c7"/>
    <rect id="Rectangle_1235" data-name="Rectangle 1235" width="10.44" height="1.153" rx="0.577" transform="translate(7.03 23.985)" fill="#4788c7"/>
  </g>
</svg>
