<svg id="Group_11429" data-name="Group 11429" xmlns="http://www.w3.org/2000/svg" width="45" height="45" viewBox="0 0 45 45">
  <g id="icons8-user-account" transform="translate(4.45 6.641)">
    <path id="Path_1591" data-name="Path 1591" d="M1.516,29.533C1.765,25.617,5.311,22.5,9.634,22.5h5.715c4.324,0,7.87,3.117,8.118,7.033Z" transform="translate(-1.062 -3.597)" fill="#98ccfd"/>
    <path id="Path_1592" data-name="Path 1592" d="M15.287,22.879a7.5,7.5,0,0,1,7.633,6.154H1.939a7.5,7.5,0,0,1,7.633-6.154h5.715m0-.879H9.572C4.838,22,1,25.542,1,29.913H23.859c0-4.37-3.838-7.913-8.572-7.913Z" transform="translate(-1 -3.537)" fill="#4788c7"/>
    <path id="Path_1593" data-name="Path 1593" d="M13.577,23.694A3.385,3.385,0,0,1,10.5,21.568V17.827h6.154v3.741A3.385,3.385,0,0,1,13.577,23.694Z" transform="translate(-2.148 -3.033)" fill="#dff0fe"/>
    <path id="Path_1594" data-name="Path 1594" d="M16.154,18.207v3.208a2.845,2.845,0,0,1-5.275,0V18.207h5.275m.879-.879H10v4.263a3.878,3.878,0,0,0,3.517,2.482,3.878,3.878,0,0,0,3.517-2.482V17.328Z" transform="translate(-2.087 -2.973)" fill="#4788c7"/>
    <path id="Path_1595" data-name="Path 1595" d="M17.864,15.389a1.445,1.445,0,0,1,0-2.89c1.335,0,1.445.386,1.445.817C19.309,14.184,18.581,15.389,17.864,15.389Zm-9.42,0C7.728,15.389,7,14.184,7,13.317c0-.431.11-.817,1.445-.817a1.445,1.445,0,0,1,0,2.889Z" transform="translate(-1.725 -2.389)" fill="#98ccfd"/>
    <path id="Path_1596" data-name="Path 1596" d="M17.8,12.879c1,0,1,.192,1,.377,0,.721-.623,1.633-1,1.633a1,1,0,1,1,0-2.01m-9.42,0a1,1,0,1,1,0,2.01c-.382,0-1-.913-1-1.633,0-.186,0-.377,1-.377M17.8,12a1.884,1.884,0,0,0,0,3.768c1.041,0,1.884-1.472,1.884-2.512S18.845,12,17.8,12Zm-9.42,0C7.343,12,6.5,12.215,6.5,13.256s.843,2.512,1.884,2.512a1.884,1.884,0,0,0,0-3.768Z" transform="translate(-1.664 -2.329)" fill="#4788c7"/>
    <path id="Path_1597" data-name="Path 1597" d="M13.336,19.648a1.624,1.624,0,0,1-1.2-.525l-.081-.087L11.946,19A4.864,4.864,0,0,1,8.5,14.372V8.241a2.077,2.077,0,0,1,2.074-2.074H16.1A2.077,2.077,0,0,1,18.17,8.241v6.131A4.866,4.866,0,0,1,14.726,19l-.113.033-.081.087A1.626,1.626,0,0,1,13.336,19.648Z" transform="translate(-1.906 -1.624)" fill="#dff0fe"/>
    <path id="Path_1598" data-name="Path 1598" d="M16.037,6.546a1.637,1.637,0,0,1,1.634,1.635v6.131a4.423,4.423,0,0,1-3.132,4.21l-.227.069-.162.173a1.188,1.188,0,0,1-1.75,0l-.162-.173-.227-.069a4.421,4.421,0,0,1-3.133-4.209V8.181a1.637,1.637,0,0,1,1.634-1.635h5.523m0-.878H10.514A2.514,2.514,0,0,0,8,8.181v6.131a5.275,5.275,0,0,0,3.759,5.051,2.064,2.064,0,0,0,3.033,0,5.275,5.275,0,0,0,3.759-5.051V8.181a2.514,2.514,0,0,0-2.514-2.514Z" transform="translate(-1.846 -1.564)" fill="#4788c7"/>
    <path id="Path_1599" data-name="Path 1599" d="M17.99,12.05V9.656c0-2.73-1.451-3.488-1.513-3.519l-.315-.157-.222.273a6.3,6.3,0,0,1-4.348,2.181c-.21,0-.415-.007-.613-.014s-.382-.013-.56-.013c-1.038,0-2.1.241-2.1,2.03V12.05H8.139A9.823,9.823,0,0,1,7,7.762C7,3.958,9.416,1.5,13.154,1.5a4.2,4.2,0,0,1,3.518,2.108l.1.2L17,3.84c1.532.219,2.309,1.65,2.309,4.254a8.754,8.754,0,0,1-1.132,3.956Z" transform="translate(-1.725 -1.06)" fill="#98ccfd"/>
    <path id="Path_1600" data-name="Path 1600" d="M13.094,1.879a3.724,3.724,0,0,1,3.128,1.872l.208.4.446.064c1.283.184,1.932,1.469,1.932,3.819a7.091,7.091,0,0,1-.44,2.326V9.6c0-2.949-1.576-3.823-1.756-3.912l-.629-.312-.446.543a5.856,5.856,0,0,1-4.007,2.02c-.2,0-.405-.007-.6-.013s-.391-.013-.575-.013A2.209,2.209,0,0,0,7.82,10.251,8.305,8.305,0,0,1,7.379,7.7c0-3.537,2.243-5.823,5.715-5.823m0-.879C8.905,1,6.5,3.865,6.5,7.7a10.28,10.28,0,0,0,1.319,4.727H8.7V10.378c0-1.4.692-1.59,1.66-1.59.36,0,.758.026,1.173.026a6.7,6.7,0,0,0,4.689-2.344s1.27.635,1.27,3.126v2.833h.879a9.327,9.327,0,0,0,1.319-4.4C19.688,5.266,18.8,3.6,17,3.345A4.634,4.634,0,0,0,13.094,1Z" transform="translate(-1.664 -1)" fill="#4788c7"/>
    <g id="Group_2075" data-name="Group 2075" transform="translate(7.033 23.738)">
      <path id="Path_1601" data-name="Path 1601" d="M9.512,37.292A9.367,9.367,0,0,1,18.953,28.5h6.594a9.367,9.367,0,0,1,9.441,8.792Z" transform="translate(-9.062 -28.06)" fill="#b6dcfe"/>
      <path id="Path_1602" data-name="Path 1602" d="M25.485,28.879a8.944,8.944,0,0,1,8.967,7.913H9.924a8.944,8.944,0,0,1,8.967-7.913h6.594m0-.879H18.891A9.783,9.783,0,0,0,9,37.671H35.376A9.783,9.783,0,0,0,25.485,28Z" transform="translate(-9 -28)" fill="#4788c7"/>
    </g>
    <g id="Group_2076" data-name="Group 2076" transform="translate(15.825 18.823)">
      <path id="Path_1603" data-name="Path 1603" d="M23.456,30.462A4.342,4.342,0,0,1,19.5,27.717V22.909h7.913v4.808A4.342,4.342,0,0,1,23.456,30.462Z" transform="translate(-19.06 -22.47)" fill="#fff"/>
      <path id="Path_1604" data-name="Path 1604" d="M26.913,23.289v4.277a3.779,3.779,0,0,1-7.033,0V23.289h7.033m.879-.879H19v5.33a4.847,4.847,0,0,0,4.4,3.1,4.847,4.847,0,0,0,4.4-3.1V22.41Z" transform="translate(-19 -22.41)" fill="#4788c7"/>
    </g>
    <g id="Group_2077" data-name="Group 2077" transform="translate(12.309 13.188)">
      <path id="Path_1605" data-name="Path 1605" d="M28.625,20.142a1.821,1.821,0,1,1,0-3.642c1.517,0,1.821.409,1.821,1.067C30.446,18.668,29.546,20.142,28.625,20.142Zm-11.3,0c-.921,0-1.821-1.474-1.821-2.575,0-.659.305-1.067,1.821-1.067a1.821,1.821,0,1,1,0,3.642Z" transform="translate(-15.06 -16.06)" fill="#b6dcfe"/>
      <path id="Path_1606" data-name="Path 1606" d="M28.565,16.879c1.381,0,1.381.319,1.381.628,0,.918-.788,2.136-1.381,2.136a1.382,1.382,0,0,1,0-2.763m-11.3,0a1.381,1.381,0,1,1,0,2.762c-.594,0-1.381-1.218-1.381-2.136,0-.308,0-.627,1.381-.627M28.565,16a2.26,2.26,0,1,0,0,4.521c1.248,0,2.26-1.765,2.26-3.014S29.813,16,28.565,16Zm-11.3,0c-1.248,0-2.26.258-2.26,1.507s1.012,3.015,2.26,3.015a2.261,2.261,0,0,0,0-4.522Z" transform="translate(-15 -16)" fill="#4788c7"/>
    </g>
    <g id="Group_2078" data-name="Group 2078" transform="translate(14.067 7.058)">
      <path id="Path_1607" data-name="Path 1607" d="M23.215,25.329a1.978,1.978,0,0,1-1.372-.555l-.079-.076-.106-.03A5.73,5.73,0,0,1,17.5,19.174V12.021a2.5,2.5,0,0,1,2.493-2.494h6.443a2.5,2.5,0,0,1,2.493,2.494v7.153a5.73,5.73,0,0,1-4.159,5.494l-.106.03-.079.076A1.978,1.978,0,0,1,23.215,25.329Z" transform="translate(-17.06 -9.088)" fill="#fff"/>
      <path id="Path_1608" data-name="Path 1608" d="M26.376,9.907a2.056,2.056,0,0,1,2.054,2.054v7.153a5.29,5.29,0,0,1-3.839,5.071l-.21.06-.158.151a1.533,1.533,0,0,1-2.135,0l-.158-.151-.21-.06a5.29,5.29,0,0,1-3.839-5.071V11.961a2.056,2.056,0,0,1,2.054-2.054h6.443m0-.879H19.933A2.933,2.933,0,0,0,17,11.961v7.153a6.153,6.153,0,0,0,4.479,5.918,2.413,2.413,0,0,0,3.35,0,6.153,6.153,0,0,0,4.479-5.918V11.961a2.933,2.933,0,0,0-2.933-2.933Z" transform="translate(-17 -9.028)" fill="#4788c7"/>
    </g>
    <g id="Group_2079" data-name="Group 2079" transform="translate(12.309 2.638)">
      <path id="Path_1609" data-name="Path 1609" d="M28.688,16.809V13.731c0-3.063-1.949-3.89-2.033-3.924l-.3-.123-.206.252a7.142,7.142,0,0,1-4.934,2.476c-.232,0-.466-.008-.7-.015s-.462-.015-.684-.015c-.771,0-2.577,0-2.577,2.227v2.2H17.07A11.637,11.637,0,0,1,15.5,11.6c0-4.18,3.073-7.1,7.473-7.1A4.724,4.724,0,0,1,26.98,6.9l.1.2.222.033c1.348.193,3.14.9,3.14,4.84a10.563,10.563,0,0,1-1.563,4.836Z" transform="translate(-15.06 -4.06)" fill="#b6dcfe"/>
      <path id="Path_1610" data-name="Path 1610" d="M22.913,4.879A4.3,4.3,0,0,1,26.53,7.045l.208.4.446.064c1.286.184,2.762.851,2.762,4.4a8.612,8.612,0,0,1-.879,3.424V13.671c0-3.355-2.212-4.293-2.306-4.331l-.6-.245-.411.507a6.64,6.64,0,0,1-4.592,2.311c-.228,0-.456-.007-.681-.015s-.471-.015-.7-.015c-.746,0-3.016,0-3.016,2.667v.71a9.745,9.745,0,0,1-.879-3.719c0-3.923,2.893-6.662,7.033-6.662m0-.879C18.2,4,15,7.224,15,11.54a12.281,12.281,0,0,0,1.758,5.648h.879V14.55c0-1.575.954-1.788,2.137-1.788.44,0,.913.03,1.379.03a7.537,7.537,0,0,0,5.275-2.638s1.758.715,1.758,3.517v3.517h.879a11.313,11.313,0,0,0,1.758-5.275c0-3.658-1.5-4.986-3.517-5.275A5.213,5.213,0,0,0,22.913,4Z" transform="translate(-15 -4)" fill="#4788c7"/>
    </g>
  </g>
  <rect id="Rectangle_2034" data-name="Rectangle 2034" width="45" height="45" fill="none"/>
</svg>
