<svg xmlns="http://www.w3.org/2000/svg" width="24" height="24" viewBox="0 0 24 24">
  <g id="Group_972" data-name="Group 972" transform="translate(-248 -203)">
    <path id="Path_768" data-name="Path 768" d="M12,2A10,10,0,1,0,22,12,10,10,0,0,0,12,2Zm0,3A3,3,0,1,1,9,8,3,3,0,0,1,12,5Zm0,14.2a7.2,7.2,0,0,1-6-3.22c.03-1.99,4-3.08,6-3.08s5.97,1.09,6,3.08A7.2,7.2,0,0,1,12,19.2Z" transform="translate(248 203)" fill="#707070"/>
    <path id="Path_769" data-name="Path 769" d="M0,0H24V24H0Z" transform="translate(248 203)" fill="none"/>
  </g>
</svg>
