<svg xmlns="http://www.w3.org/2000/svg" xmlns:xlink="http://www.w3.org/1999/xlink" width="430" height="264" viewBox="0 0 430 264">
  <defs>
    <clipPath id="clip-path">
      <rect id="Rectangle_2019" data-name="Rectangle 2019" width="430" height="264" transform="translate(-1125 12133)" fill="#fff"/>
    </clipPath>
  </defs>
  <g id="bg-keyword-lab" transform="translate(1125 -12133)" clip-path="url(#clip-path)">
    <g id="Group_1970" data-name="Group 1970" transform="translate(77 -115)">
      <g id="Background_Complete" data-name="Background Complete" transform="translate(-1148 12260)">
        <g id="Group_1940" data-name="Group 1940" transform="translate(0 0)">
          <rect id="Rectangle_1992" data-name="Rectangle 1992" width="321.054" height="0.161" transform="translate(0 210.255)" fill="#ebebeb"/>
          <rect id="Rectangle_1993" data-name="Rectangle 1993" width="21.268" height="0.161" transform="translate(33.684 216.37)" fill="#ebebeb"/>
          <rect id="Rectangle_1994" data-name="Rectangle 1994" width="35.583" height="0.161" transform="translate(109.89 214.628)" fill="#ebebeb"/>
          <rect id="Rectangle_1995" data-name="Rectangle 1995" width="12.324" height="0.161" transform="translate(58.432 220.184)" fill="#ebebeb"/>
          <rect id="Rectangle_1996" data-name="Rectangle 1996" width="27.735" height="0.161" transform="translate(247.507 216.29)" fill="#ebebeb"/>
          <rect id="Rectangle_1997" data-name="Rectangle 1997" width="4.066" height="0.161" transform="translate(280.959 216.29)" fill="#ebebeb"/>
          <rect id="Rectangle_1998" data-name="Rectangle 1998" width="30.075" height="0.161" transform="translate(178.001 218.543)" fill="#ebebeb"/>
          <path id="Path_1463" data-name="Path 1463" d="M165.863,236.571H41.872a3.67,3.67,0,0,1-3.665-3.665V58.618a3.669,3.669,0,0,1,3.665-3.665h123.99a3.669,3.669,0,0,1,3.665,3.665V232.906A3.669,3.669,0,0,1,165.863,236.571ZM41.872,55.114a3.508,3.508,0,0,0-3.5,3.5V232.906a3.508,3.508,0,0,0,3.5,3.5h123.99a3.508,3.508,0,0,0,3.5-3.5V58.618a3.508,3.508,0,0,0-3.5-3.5Z" transform="translate(-13.674 -54.953)" fill="#ebebeb"/>
          <path id="Path_1464" data-name="Path 1464" d="M382.159,236.571H258.17a3.669,3.669,0,0,1-3.665-3.665V58.618a3.669,3.669,0,0,1,3.665-3.665h123.99a3.669,3.669,0,0,1,3.666,3.665V232.906A3.67,3.67,0,0,1,382.159,236.571ZM258.17,55.114a3.508,3.508,0,0,0-3.5,3.5V232.906a3.508,3.508,0,0,0,3.5,3.5h123.99a3.509,3.509,0,0,0,3.505-3.5V58.618a3.509,3.509,0,0,0-3.505-3.5Z" transform="translate(-91.085 -54.953)" fill="#ebebeb"/>
        </g>
        <g id="Group_1949" data-name="Group 1949" transform="translate(38.489 8.076)">
          <g id="Group_1944" data-name="Group 1944" transform="translate(19.628)">
            <g id="Group_1942" data-name="Group 1942" transform="translate(2.703 1.347)">
              <rect id="Rectangle_1999" data-name="Rectangle 1999" width="123.964" height="88.991" transform="translate(6.461 3.06)" fill="#fafafa"/>
              <path id="Path_1465" data-name="Path 1465" d="M256.092,163.385l-31.53-88.991H200.9l31.53,88.991Z" transform="translate(-132.721 -71.334)" fill="#fff"/>
              <path id="Path_1466" data-name="Path 1466" d="M165.378,163.385l-31.53-88.991h-8.631l31.53,88.991Z" transform="translate(-105.635 -71.334)" fill="#fff"/>
              <g id="Group_1941" data-name="Group 1941">
                <path id="Path_1467" data-name="Path 1467" d="M95.271,69.628H231.056a.552.552,0,0,1,.551.551h0a.552.552,0,0,1-.551.551H95.271a.552.552,0,0,1-.551-.551h0A.552.552,0,0,1,95.271,69.628Z" transform="translate(-94.72 -69.628)" fill="#e0e0e0"/>
                <rect id="Rectangle_2000" data-name="Rectangle 2000" width="1.469" height="89.374" transform="translate(67.709 2.869)" fill="#f0f0f0"/>
                <rect id="Rectangle_2001" data-name="Rectangle 2001" width="0.734" height="89.374" transform="translate(66.975 2.869)" fill="#e0e0e0"/>
                <rect id="Rectangle_2002" data-name="Rectangle 2002" width="1.469" height="125.677" transform="translate(5.605 48.29) rotate(-90)" fill="#f0f0f0"/>
                <path id="Path_1468" data-name="Path 1468" d="M103.449,162.295h0V73.059H229.126v89.236h0v1.469H103.449Zm124.208,0V74.528H104.918v87.767Z" transform="translate(-97.844 -70.856)" fill="#f0f0f0"/>
                <rect id="Rectangle_2003" data-name="Rectangle 2003" width="0.734" height="90.705" transform="translate(4.87 2.203)" fill="#e0e0e0"/>
              </g>
            </g>
            <g id="Group_1943" data-name="Group 1943">
              <path id="Path_1469" data-name="Path 1469" d="M117.042,67.531V172.039H90.51L95.375,67.531Z" transform="translate(-90.51 -67.531)" fill="#ebebeb" opacity="0.5"/>
              <path id="Path_1470" data-name="Path 1470" d="M269.651,67.531V172.039h26.532L291.317,67.531Z" transform="translate(-154.623 -67.531)" fill="#ebebeb" opacity="0.5"/>
            </g>
          </g>
          <g id="Group_1947" data-name="Group 1947" transform="translate(0 114.351)">
            <g id="Group_1946" data-name="Group 1946">
              <g id="Group_1945" data-name="Group 1945">
                <rect id="Rectangle_2004" data-name="Rectangle 2004" width="10.119" height="82.08" transform="translate(1.273 2.678)" fill="#f0f0f0"/>
                <rect id="Rectangle_2005" data-name="Rectangle 2005" width="111.487" height="3.069" transform="translate(3.216 84.759)" fill="#f0f0f0"/>
                <rect id="Rectangle_2006" data-name="Rectangle 2006" width="105.254" height="82.08" transform="translate(116.646 84.759) rotate(180)" fill="#f5f5f5"/>
                <rect id="Rectangle_2007" data-name="Rectangle 2007" width="10.342" height="2.678" fill="#f0f0f0"/>
                <rect id="Rectangle_2008" data-name="Rectangle 2008" width="107.577" height="2.678" transform="translate(117.919 2.678) rotate(180)" fill="#fafafa"/>
                <path id="Path_1471" data-name="Path 1471" d="M181.326,299.114H83.35V258.545h97.976Zm-97.3-.68h96.617V259.225H84.029Z" transform="translate(-68.319 -250.244)" fill="#e0e0e0"/>
                <path id="Path_1472" data-name="Path 1472" d="M181.326,354.256H83.35v-26.2h97.976Zm-97.3-.679h96.617V328.731H84.029Z" transform="translate(-68.319 -275.12)" fill="#e0e0e0"/>
                <rect id="Rectangle_2009" data-name="Rectangle 2009" width="71.576" height="2.178" rx="1.089" transform="translate(28.231 8.64)" fill="#e0e0e0"/>
                <rect id="Rectangle_2010" data-name="Rectangle 2010" width="71.576" height="2.178" rx="1.089" transform="translate(28.231 53.271)" fill="#e0e0e0"/>
              </g>
            </g>
          </g>
          <g id="Group_1948" data-name="Group 1948" transform="translate(183.006 18.632)">
            <rect id="Rectangle_2011" data-name="Rectangle 2011" width="58.867" height="179.608" transform="translate(60.735 179.608) rotate(180)" fill="#f0f0f0"/>
            <rect id="Rectangle_2012" data-name="Rectangle 2012" width="1.868" height="179.608" transform="translate(0 0)" fill="#e0e0e0"/>
            <rect id="Rectangle_2013" data-name="Rectangle 2013" width="39.765" height="165.906" transform="translate(51.184 172.757) rotate(180)" fill="#fafafa"/>
          </g>
        </g>
      </g>
      <g id="Shadow" transform="translate(-1111.971 12484.713)">
        <ellipse id="_Path_" data-name="&lt;Path&gt;" cx="124.498" cy="7.271" rx="124.498" ry="7.271" transform="translate(0 0)" fill="#f5f5f5"/>
      </g>
      <g id="Group_1969" data-name="Group 1969" transform="translate(-1099.941 12287.251)">
        <path id="Path_1473" data-name="Path 1473" d="M141.64,399.7l5.027-1.907-3.078-12.15-5.027,1.907Z" transform="translate(-88.017 -200.554)" fill="#fff" stroke="#262f3d" stroke-width="0.5"/>
        <path id="Path_1474" data-name="Path 1474" d="M84.527,400.745H89.9l.806-12.452H85.332Z" transform="translate(-68.679 -201.503)" fill="#fff" stroke="#262f3d" stroke-width="0.5"/>
        <path id="Path_1475" data-name="Path 1475" d="M89.374,406.715H82.818a.441.441,0,0,0-.439.367l-.825,4.779a.836.836,0,0,0,.835.957c2.107-.037,3.641-.16,6.3-.16,1.634,0,6.571.17,8.828.17,2.207,0,2.441-2.231,1.506-2.434-4.188-.907-7.372-2.156-8.758-3.349A1.366,1.366,0,0,0,89.374,406.715Z" transform="translate(-67.61 -208.096)" fill="#fff" stroke="#262f3d" stroke-width="0.5"/>
        <path id="Path_1476" data-name="Path 1476" d="M147.558,402.88l-5.491,2.082a.47.47,0,0,0-.3.506l.7,4.845a.783.783,0,0,0,1.063.62c1.967-.785,3.638-1.781,6.144-2.68a41.809,41.809,0,0,0,8.209-3.688c1.861-1.186,1.077-3.431.2-3.078-4,1.6-4.976,2.131-9.169,1.325A2.493,2.493,0,0,0,147.558,402.88Z" transform="translate(-89.163 -206.213)" fill="#fff" stroke="#262f3d" stroke-width="0.5"/>
        <path id="Union_31" data-name="Union 31" d="M17.86,27.052a8.156,8.156,0,0,1-3.957-2.5c-.645-.748-1.275-1.445-1.862-2.183A101.468,101.468,0,0,1,5.556,13.35c-1.986-3.1-3.82-6.2-5.556-9.5L7.182,0c1.692,2.99,3.475,6.071,5.271,9.053s3.642,5.956,5.6,8.731c.474.7,1,1.375,1.473,2.026a1.771,1.771,0,0,0,.417.484,1.555,1.555,0,0,0,.975.153,6.734,6.734,0,0,0,1.8-.427,22.186,22.186,0,0,0,4.147-2.172c.692-.455,1.4-.925,2.083-1.423.662-.48,1.346-1.016,1.961-1.491L32.2,11.3h0l4.761-3.478,2.264,2.5-1.675,3.529h0c-.012.05-.98,4.069-4.237,4.635-.361.479-.728.932-1.117,1.393-.613.73-1.251,1.449-1.945,2.126a25.245,25.245,0,0,1-2.208,1.972,18.845,18.845,0,0,1-2.588,1.76A12.968,12.968,0,0,1,22.2,27.065a9.432,9.432,0,0,1-2.2.267A8.173,8.173,0,0,1,17.86,27.052Z" transform="translate(37.029 35.38)" fill="#fff" stroke="#262f3d" stroke-miterlimit="10" stroke-width="0.5"/>
        <g id="Group_1950" data-name="Group 1950" transform="translate(34.532 31.412)">
          <path id="Path_1478" data-name="Path 1478" d="M113.765,150.527c-1.45,4.932,8.756,18.378,8.756,18.378l10.291-6.622a65.63,65.63,0,0,0-7.131-12.092C121.466,144.82,115.357,145.114,113.765,150.527Z" transform="translate(-113.624 -146.312)" fill="#f6bb07" stroke="#262f3d" stroke-width="0.5"/>
          <path id="Path_1479" data-name="Path 1479" d="M113.765,150.527c-1.45,4.932,8.756,18.378,8.756,18.378l10.291-6.622a65.63,65.63,0,0,0-7.131-12.092C121.466,144.82,115.357,145.114,113.765,150.527Z" transform="translate(-113.624 -146.312)" fill="#f6bb07" stroke="#262f3d" stroke-width="0.5" opacity="0.2"/>
        </g>
        <path id="Path_1480" data-name="Path 1480" d="M121.339,161.837c2.117.9,5.232,6,6.853,9.781l-4.368,2.807a82.245,82.245,0,0,1-6.565-10.289C118.64,162.621,120.221,161.362,121.339,161.837Z" transform="translate(-80.394 -120.42)" opacity="0.2"/>
        <g id="Group_1951" data-name="Group 1951" transform="translate(10.705 30.605)">
          <path id="Path_1485" data-name="Path 1485" d="M76.517,147.9c5.792,20.425,4.843,42.1,5.206,46.5,4.214-.151,20.087-.749,28.74-1.077,4.882-30.446-3.885-47.391-3.885-47.391s-1.844-.358-4.352-.615c-.787-.081-1.635-.152-2.518-.2-.488-.03-.984-.045-1.486-.055a106.5,106.5,0,0,0-12.194.909c-.765.1-1.543.21-2.295.333-.7.119-1.384.246-2.029.376C78.776,147.26,76.517,147.9,76.517,147.9Z" transform="translate(-76.517 -145.056)" fill="#f6bb07" stroke="#262f3d" stroke-width="0.5"/>
          <path id="Path_1486" data-name="Path 1486" d="M76.517,147.9c5.792,20.425,4.843,42.1,5.206,46.5,4.214-.151,20.087-.749,28.74-1.077,4.882-30.446-3.885-47.391-3.885-47.391s-1.844-.358-4.352-.615c-.787-.081-1.635-.152-2.518-.2-.488-.03-.984-.045-1.486-.055a106.5,106.5,0,0,0-12.194.909c-.765.1-1.543.21-2.295.333-.7.119-1.384.246-2.029.376C78.776,147.26,76.517,147.9,76.517,147.9Z" transform="translate(-76.517 -145.056)" fill="#f6bb07" stroke="#262f3d" stroke-width="0.5" opacity="0.2"/>
        </g>
        <path id="Path_1487" data-name="Path 1487" d="M84.213,163.126c.516,1.976-.073,10.992-2.137,13.216-.281-2.888-.656-5.9-1.152-8.983Z" transform="translate(-67.389 -120.918)" opacity="0.2"/>
        <path id="Path_1488" data-name="Path 1488" d="M91.517,124.956c1.061,3.866,2.364,11-.186,13.818,2.29,1.96,5.259,4.2,9.93,4.019s3.618-3.327,2.262-4.926c-4.452-.719-4.581-3.973-4.046-7.078Z" transform="translate(-71.114 -107.257)" fill="#fff" stroke="#262f3d" stroke-width="0.5"/>
        <g id="Group_1952" data-name="Group 1952" transform="translate(18.05 30.137)">
          <path id="Path_1489" data-name="Path 1489" d="M106.232,151.625l.732,1.124-3.484.4.8-1.433Z" transform="translate(-93.512 -146.939)" fill="#f6bb07"/>
          <path id="Path_1490" data-name="Path 1490" d="M108.137,151.266l-.294,1.324,3.4.428-.21-1.663Z" transform="translate(-95.073 -146.81)" fill="#f6bb07"/>
          <path id="Path_1491" data-name="Path 1491" d="M88.265,145.6l1.223-.614a1.175,1.175,0,0,1,1.229.1,24.41,24.41,0,0,0,9.454,4.16c-2.456,1.172-1.848,4.318-1.848,4.318s-7.8-2.573-10.307-7.231A.546.546,0,0,1,88.265,145.6Z" transform="translate(-87.956 -144.518)" fill="#fff" stroke="#262f3d" stroke-width="0.5"/>
          <path id="Path_1492" data-name="Path 1492" d="M111.138,144.6l-1.793-.27a.238.238,0,0,0-.229.373c.627.888,1.667,2.852-.317,4.056a6.817,6.817,0,0,1,3.22,4.041s3.2-3.451-.53-8A.568.568,0,0,0,111.138,144.6Z" transform="translate(-95.415 -144.327)" fill="#fff" stroke="#262f3d" stroke-width="0.5"/>
        </g>
        <path id="Path_1493" data-name="Path 1493" d="M96.637,128.663l4.711,3.449a12.554,12.554,0,0,0-.215,2.192c-1.689-.117-4.121-1.781-4.429-3.517A5.9,5.9,0,0,1,96.637,128.663Z" transform="translate(-72.988 -108.584)" opacity="0.2"/>
        <path id="Path_1494" data-name="Path 1494" d="M110.3,109.857a5.321,5.321,0,0,1-3.165,3.876L105.69,105.6C108.933,103.319,110.6,107.235,110.3,109.857Z" transform="translate(-76.253 -100.085)" fill="#263238"/>
        <path id="Path_1495" data-name="Path 1495" d="M89.025,111.283c.935,5.254,1.215,8.376,4.2,10.784,4.491,3.622,10.743.446,11.4-4.981.589-4.885-1.039-12.656-6.461-14.165A7.278,7.278,0,0,0,89.025,111.283Z" transform="translate(-70.246 -99.27)" fill="#fff" stroke="#262f3d" stroke-width="0.5"/>
        <path id="Path_1496" data-name="Path 1496" d="M87.889,112.948c2.433,1.293,3.505-1.614,3.526-2.791a6.453,6.453,0,0,0-1.748-4.689c4.7-.028,13.992-.232,11.648-4.708S94.275,96.8,90.735,99.243c-1.87,1.293-7.919.168-6.419,3.657C81.162,104.575,83.9,110.827,87.889,112.948Z" transform="translate(-68.112 -97.392)" fill="#263238"/>
        <path id="Path_1497" data-name="Path 1497" d="M84.593,105.08a3.839,3.839,0,0,1-2.319-.789,2.2,2.2,0,0,0,2.052,1.7Z" transform="translate(-67.872 -99.861)" fill="#263238"/>
        <path id="Path_1498" data-name="Path 1498" d="M85.858,120.922a5.076,5.076,0,0,0,2.931,2.533c1.693.547,2.08-1,1.67-2.639-.37-1.471-1.167-3.474-2.895-3.309A2.278,2.278,0,0,0,85.858,120.922Z" transform="translate(-69.055 -104.588)" fill="#fff" stroke="#262f3d" stroke-width="0.5"/>
        <path id="Path_1499" data-name="Path 1499" d="M125.114,277.067c-2.186-16.265-6.261-56.843-6.261-56.843l-18.893.708s8.911,40.552,12.136,56.994,12.195,56.129,12.195,56.129l8.514-3.225S127.388,293.978,125.114,277.067Z" transform="translate(-74.202 -141.353)" fill="#263238"/>
        <path id="Path_1500" data-name="Path 1500" d="M108.6,238.354a9.945,9.945,0,0,0-4.2,2.15c1.782,8.2,4.113,18.992,6.116,28.5C111.886,260.768,111.927,245.22,108.6,238.354Z" transform="translate(-75.792 -147.841)" opacity="0.2"/>
        <path id="Path_1501" data-name="Path 1501" d="M102.205,220.819S98.2,264.84,96.36,280.487c-2.01,17.135-4.522,53.047-4.522,53.047H81.99s-.408-31.762.872-48.535c1.458-19.106.8-63.483.8-63.483Z" transform="translate(-67.749 -141.566)" fill="#263238"/>
        <path id="Path_1502" data-name="Path 1502" d="M92.8,394.633H81.2l-.244-3.464,12.947-.225Z" transform="translate(-67.402 -202.452)" fill="#0f33c6" stroke="#262f3d" stroke-width="0.5"/>
        <path id="Path_1503" data-name="Path 1503" d="M146.547,389.98,136.4,393.828l-1.243-3.278,11.275-4.474Z" transform="translate(-86.799 -200.71)" fill="#0f33c6" stroke="#262f3d" stroke-width="0.5"/>
        <path id="Path_1504" data-name="Path 1504" d="M101.852,116.5c.049.431.318.754.6.722s.469-.408.42-.839-.318-.754-.6-.721S101.8,116.064,101.852,116.5Z" transform="translate(-74.876 -103.928)" fill="#263238"/>
        <path id="Path_1505" data-name="Path 1505" d="M109.436,115.621c.049.431.318.754.6.722s.47-.408.42-.839-.318-.754-.6-.721S109.386,115.19,109.436,115.621Z" transform="translate(-77.59 -103.615)" fill="#263238"/>
        <path id="Path_1506" data-name="Path 1506" d="M107.067,116.7a15.523,15.523,0,0,0,2.483,3.447,2.5,2.5,0,0,1-2.014.623Z" transform="translate(-76.746 -104.303)" fill="#262f3d"/>
        <path id="Path_1507" data-name="Path 1507" d="M103.713,124.416a3.575,3.575,0,0,1-2.6-1.131.128.128,0,0,1,.2-.163,3.441,3.441,0,0,0,2.936,1.014.127.127,0,1,1,.029.253A4.092,4.092,0,0,1,103.713,124.416Z" transform="translate(-74.605 -106.584)" fill="#263238"/>
        <path id="Path_1508" data-name="Path 1508" d="M99.1,113.855a.255.255,0,0,1-.214-.384,2.526,2.526,0,0,1,1.94-1.282.255.255,0,0,1,.024.509h0a2.02,2.02,0,0,0-1.524,1.032A.255.255,0,0,1,99.1,113.855Z" transform="translate(-73.803 -102.688)" fill="#263238"/>
        <path id="Path_1509" data-name="Path 1509" d="M111.282,112.21a.254.254,0,0,1-.21-.118,2.021,2.021,0,0,0-1.559-.98.255.255,0,0,1,.006-.509,2.531,2.531,0,0,1,1.982,1.215.255.255,0,0,1-.22.392Z" transform="translate(-77.531 -102.12)" fill="#263238"/>
        <g id="Group_1953" data-name="Group 1953" transform="translate(22.068 194.364)">
          <path id="Path_1510" data-name="Path 1510" d="M95.733,407.419a6.476,6.476,0,0,1-1.416-.193.137.137,0,0,1-.1-.1.122.122,0,0,1,.052-.128c.19-.123,1.872-1.188,2.481-.883a.432.432,0,0,1,.236.36.733.733,0,0,1-.23.673A1.568,1.568,0,0,1,95.733,407.419Zm-1.056-.372a2.568,2.568,0,0,0,1.9-.1.5.5,0,0,0,.15-.462.164.164,0,0,0-.088-.15C96.327,406.18,95.362,406.639,94.677,407.047Z" transform="translate(-94.213 -402.225)" fill="#262f3d"/>
          <path id="Path_1511" data-name="Path 1511" d="M94.347,406.526a.135.135,0,0,1-.134-.137c0-.066.053-1.617.653-2.127a.669.669,0,0,1,.534-.164h0a.442.442,0,0,1,.422.334c.143.6-.874,1.777-1.415,2.079A.124.124,0,0,1,94.347,406.526Zm.977-2.179a.43.43,0,0,0-.287.112,2.932,2.932,0,0,0-.552,1.684c.532-.42,1.174-1.31,1.089-1.664-.008-.032-.026-.108-.193-.128h0A.437.437,0,0,0,95.324,404.347Z" transform="translate(-94.213 -401.522)" fill="#262f3d"/>
          <path id="Path_1512" data-name="Path 1512" d="M151.894,403.294a.128.128,0,0,1-.1-.213c.184-.2,1.816-2,2.556-1.887a.4.4,0,0,1,.317.242h0a.713.713,0,0,1,0,.664c-.366.7-1.882,1.046-2.753,1.192Zm2.37-1.85c-.429.012-1.366.846-2.019,1.528,1.18-.236,1.989-.6,2.195-.99a.464.464,0,0,0,0-.437.152.152,0,0,0-.124-.1A.255.255,0,0,0,154.264,401.444Z" transform="translate(-114.81 -400.483)" fill="#262f3d"/>
          <path id="Path_1513" data-name="Path 1513" d="M151.8,402.9a.115.115,0,0,1-.036,0,.128.128,0,0,1-.091-.09,3.637,3.637,0,0,1,.046-2.233.932.932,0,0,1,.583-.455h0c.34-.091.5.039.57.164.308.534-.482,2.077-.986,2.579A.128.128,0,0,1,151.8,402.9Zm.7-2.556a.564.564,0,0,0-.131.021h0a.676.676,0,0,0-.428.336,2.986,2.986,0,0,0-.076,1.8c.478-.607.972-1.772.787-2.091C152.644,400.391,152.615,400.341,152.5,400.344Zm-.164-.1h0Z" transform="translate(-114.719 -400.089)" fill="#262f3d"/>
        </g>
        <path id="Union_29" data-name="Union 29" d="M14.65,46.112h0c-.055-.042-2.5-1.941-2.936-3.9-.276-.17-.55-.346-.827-.53-.852-.562-1.689-1.155-2.5-1.8A27.653,27.653,0,0,1,3.9,35.416,18.776,18.776,0,0,1,.658,29.4a14.444,14.444,0,0,1-.311-7.433c.078-.305.146-.615.241-.914l.247-.8.456-1.417c.314-.932.628-1.87.976-2.787.673-1.846,1.38-3.668,2.137-5.463C5.906,6.982,7.529,3.5,9.366,0l7.25,3.719c-1.611,3.323-3.256,6.754-4.85,10.13-.791,1.7-1.584,3.392-2.333,5.094l-1.113,2.55-.534,1.275-.132.32-.094.235c-.065.152-.107.307-.165.461a7.786,7.786,0,0,0-.211,3.905A13.43,13.43,0,0,0,8.878,31.96,26.648,26.648,0,0,0,11.935,36.1c.584.666,1.2,1.32,1.841,1.946.269.263.543.523.82.776l4.621,2.747h0l3.133,4.45-4.709,3.3Z" transform="translate(0 37.328)" fill="#fff" stroke="#262f3d" stroke-miterlimit="10" stroke-width="0.5"/>
        <g id="Group_1954" data-name="Group 1954" transform="translate(0.976 32.975)">
          <path id="Path_1515" data-name="Path 1515" d="M71.1,149.218c-4.906,1.537-9.731,18.171-9.731,18.171l11.351,4.968s3.672-8.039,5.783-14.338C80.8,151.157,77.038,147.358,71.1,149.218Z" transform="translate(-61.365 -148.747)" fill="#f6bb07" stroke="#262f3d" stroke-width="0.5"/>
          <path id="Path_1516" data-name="Path 1516" d="M71.1,149.218c-4.906,1.537-9.731,18.171-9.731,18.171l11.351,4.968s3.672-8.039,5.783-14.338C80.8,151.157,77.038,147.358,71.1,149.218Z" transform="translate(-61.365 -148.747)" fill="#f6bb07" stroke="#262f3d" stroke-width="0.5" opacity="0.2"/>
        </g>
      </g>
      <g id="Screen" transform="translate(-1044.008 12317.786)">
        <g id="Group_1968" data-name="Group 1968" transform="translate(0 0)">
          <g id="Group_1957" data-name="Group 1957">
            <rect id="Rectangle_2014" data-name="Rectangle 2014" width="3.103" height="0.643" transform="matrix(0.072, -0.997, 0.997, 0.072, 183.703, 47.466)" fill="#407bff"/>
            <rect id="Rectangle_2015" data-name="Rectangle 2015" width="8.996" height="0.643" transform="translate(184.119 41.634) rotate(-85.856)" fill="#407bff"/>
            <path id="Path_1519" data-name="Path 1519" d="M330.129,278.514H172.853a8.047,8.047,0,0,1-8.112-8.738l8.322-116.091a9.568,9.568,0,0,1,9.364-8.738H339.7a8.047,8.047,0,0,1,8.111,8.738l-8.321,116.091A9.568,9.568,0,0,1,330.129,278.514Z" transform="translate(-162.944 -144.947)" fill="#007aff"/>
            <path id="Path_1520" data-name="Path 1520" d="M331.823,381.078h-51.05L271.673,318h51.05Z" transform="translate(-201.222 -206.88)" fill="#007aff"/>
            <path id="Path_1521" data-name="Path 1521" d="M321.333,410.384H266.109l-1.1,3.759h55.223Z" transform="translate(-198.838 -239.945)" fill="#407bff"/>
            <path id="Path_1522" data-name="Path 1522" d="M325.418,348.363l-49.757-2.719L271.673,318h49.364Z" transform="translate(-201.222 -206.88)" fill="#263238"/>
            <path id="Path_1523" data-name="Path 1523" d="M327.364,278.514H170.088a8.047,8.047,0,0,1-8.112-8.738L170.3,153.685a9.568,9.568,0,0,1,9.364-8.738H336.938a8.047,8.047,0,0,1,8.111,8.738l-8.321,116.091A9.568,9.568,0,0,1,327.364,278.514Z" transform="translate(-161.954 -144.947)" fill="#263238"/>
            <rect id="Rectangle_2016" data-name="Rectangle 2016" width="66.769" height="0.614" transform="matrix(0.072, -0.997, 0.997, 0.072, 177.931, 76.463)" fill="#fff"/>
            <rect id="Rectangle_2017" data-name="Rectangle 2017" width="23.119" height="0.614" transform="translate(175.866 105.308) rotate(-85.901)" fill="#fff"/>
          </g>
          <g id="Group_1967" data-name="Group 1967" transform="translate(1.796 2.173)">
            <g id="Group_1958" data-name="Group 1958" transform="translate(0.651)">
              <path id="Path_1524" data-name="Path 1524" d="M328.4,277.552H172.1a6.263,6.263,0,0,1-6.314-6.8l8.288-115.619a7.447,7.447,0,0,1,7.289-6.8h156.3a6.264,6.264,0,0,1,6.314,6.8l-8.288,115.619A7.447,7.447,0,0,1,328.4,277.552Z" transform="translate(-165.765 -148.331)" fill="#fff"/>
              <path id="Path_1525" data-name="Path 1525" d="M328.4,277.552H172.1a6.263,6.263,0,0,1-6.314-6.8l8.288-115.619a7.447,7.447,0,0,1,7.289-6.8h156.3a6.264,6.264,0,0,1,6.314,6.8l-8.288,115.619A7.447,7.447,0,0,1,328.4,277.552Z" transform="translate(-165.765 -148.331)" fill="#407bff" opacity="0.2"/>
              <path id="Path_1526" data-name="Path 1526" d="M216.013,275.284h-36.5A3.026,3.026,0,0,1,176.46,272l8.057-112.4a3.6,3.6,0,0,1,3.521-3.286h36.5a3.026,3.026,0,0,1,3.05,3.286L219.534,272A3.6,3.6,0,0,1,216.013,275.284Z" transform="translate(-169.59 -151.187)" fill="#fff" opacity="0.5"/>
            </g>
            <path id="Path_1527" data-name="Path 1527" d="M223.8,176.075H204.9a2.726,2.726,0,0,1-2.748-2.959l.208-2.9a3.24,3.24,0,0,1,3.172-2.959h18.891a2.725,2.725,0,0,1,2.748,2.959l-.207,2.9A3.241,3.241,0,0,1,223.8,176.075Z" transform="translate(-178.136 -155.105)" fill="#407bff" opacity="0.4"/>
            <g id="Group_1959" data-name="Group 1959" transform="translate(0 27.267)">
              <path id="Path_1528" data-name="Path 1528" d="M198.4,229.966H169.558a4.755,4.755,0,0,1-4.793-5.164l2.067-28.842a5.655,5.655,0,0,1,5.534-5.164h28.842A4.756,4.756,0,0,1,206,195.96L203.934,224.8A5.654,5.654,0,0,1,198.4,229.966Z" transform="translate(-164.751 -190.796)" fill="#007aff"/>
              <path id="Path_1529" data-name="Path 1529" d="M222.249,214.971a2.156,2.156,0,0,0-2.109,1.968l-.3,4.188a1.812,1.812,0,0,0,1.827,1.968h2.928a.533.533,0,0,0,.523-.488l.512-7.148a.449.449,0,0,0-.453-.488Z" transform="translate(-184.465 -199.448)" fill="#fff"/>
              <path id="Path_1530" data-name="Path 1530" d="M195.722,201.348h-18.18a.727.727,0,0,1-.733-.789h0a.864.864,0,0,1,.846-.789h18.18a.727.727,0,0,1,.733.789h0A.864.864,0,0,1,195.722,201.348Z" transform="translate(-169.066 -194.008)" fill="#fff"/>
              <path id="Path_1531" data-name="Path 1531" d="M195.273,207.6h-18.18a.726.726,0,0,1-.732-.789h0a.864.864,0,0,1,.846-.789h18.179a.727.727,0,0,1,.733.789h0A.864.864,0,0,1,195.273,207.6Z" transform="translate(-168.906 -196.246)" fill="#fff"/>
              <path id="Path_1532" data-name="Path 1532" d="M188.543,213.858h-11.9a.727.727,0,0,1-.733-.789h0a.864.864,0,0,1,.846-.789h11.9a.727.727,0,0,1,.733.789h0A.864.864,0,0,1,188.543,213.858Z" transform="translate(-168.745 -198.485)" fill="#fff"/>
              <path id="Path_1533" data-name="Path 1533" d="M194.783,235.627H177.195a3.109,3.109,0,0,1-3.133-3.376l.662-9.241a3.7,3.7,0,0,1,3.618-3.375h17.589a3.108,3.108,0,0,1,3.133,3.375l-.663,9.241A3.7,3.7,0,0,1,194.783,235.627Z" transform="translate(-168.08 -201.118)" fill="#fff" opacity="0.5"/>
            </g>
            <g id="Group_1960" data-name="Group 1960" transform="translate(17.605 74.312)">
              <path id="Path_1534" data-name="Path 1534" d="M218.954,266.99H197.07a1.348,1.348,0,0,1-1.359-1.463h0a1.6,1.6,0,0,1,1.569-1.463h21.884a1.348,1.348,0,0,1,1.359,1.463h0A1.6,1.6,0,0,1,218.954,266.99Z" transform="translate(-193.435 -264.063)" fill="#407bff" opacity="0.4"/>
              <path id="Path_1535" data-name="Path 1535" d="M216.542,275.935H202.656a1.348,1.348,0,0,1-1.359-1.463h0a1.6,1.6,0,0,1,1.569-1.464h13.887a1.348,1.348,0,0,1,1.359,1.464h0A1.6,1.6,0,0,1,216.542,275.935Z" transform="translate(-195.434 -267.264)" fill="#fff" opacity="0.8"/>
              <path id="Path_1536" data-name="Path 1536" d="M217.184,291.677H195.3a1.348,1.348,0,0,1-1.359-1.463h0a1.6,1.6,0,0,1,1.569-1.463h21.884a1.347,1.347,0,0,1,1.359,1.463h0A1.6,1.6,0,0,1,217.184,291.677Z" transform="translate(-192.801 -272.898)" fill="#407bff" opacity="0.4"/>
              <path id="Path_1537" data-name="Path 1537" d="M214.773,300.623H200.887a1.347,1.347,0,0,1-1.359-1.463h0A1.6,1.6,0,0,1,201.1,297.7h13.887a1.347,1.347,0,0,1,1.359,1.463h0A1.6,1.6,0,0,1,214.773,300.623Z" transform="translate(-194.801 -276.1)" fill="#fff" opacity="0.8"/>
              <path id="Path_1538" data-name="Path 1538" d="M215.415,316.364H193.531a1.347,1.347,0,0,1-1.359-1.463h0a1.6,1.6,0,0,1,1.569-1.463h21.884a1.348,1.348,0,0,1,1.359,1.463h0A1.6,1.6,0,0,1,215.415,316.364Z" transform="translate(-192.168 -281.734)" fill="#407bff" opacity="0.4"/>
              <path id="Path_1539" data-name="Path 1539" d="M213,325.31H199.117a1.348,1.348,0,0,1-1.359-1.464h0a1.6,1.6,0,0,1,1.569-1.463h13.887a1.348,1.348,0,0,1,1.359,1.463h0A1.6,1.6,0,0,1,213,325.31Z" transform="translate(-194.167 -284.935)" fill="#fff" opacity="0.8"/>
            </g>
            <g id="Group_1962" data-name="Group 1962" transform="translate(55.32 74.58)">
              <path id="Path_1540" data-name="Path 1540" d="M360.562,285.776a1.6,1.6,0,0,1,3,.841l-2.106,29.376a2.808,2.808,0,0,1-2.549,2.743H253.069a2.364,2.364,0,0,1-2.156-2.743l1.251-17.454a3.787,3.787,0,0,1,4.766-3.363c5.965,1.86,11.077.767,15.827-1.587,10.161-5.044,18.662-15.87,30.343-15.87.448,0,.889.012,1.318.04,17.375,1.049,22.669,22.63,36.129,22.63a17.731,17.731,0,0,0,10.773-4.165A43.629,43.629,0,0,0,360.562,285.776Z" transform="translate(-250.905 -269.217)" fill="#407bff" opacity="0.5"/>
              <path id="Path_1541" data-name="Path 1541" d="M362.758,293.14l-1.3,18.114A2.808,2.808,0,0,1,358.911,314H253.069a2.364,2.364,0,0,1-2.156-2.743l2.58-35.995c.177-2.466,3.408-3.5,4.716-1.508,3.377,5.152,8.573,11.806,14.549,15.1a14.876,14.876,0,0,0,7.149,2.023c8.552,0,15.825-10.145,24.511-17.853,5.326-4.727,11.182-8.541,18.187-8.541,14.623,0,16.78,23.759,28.715,27.006a12.887,12.887,0,0,0,8.151-.726A2.371,2.371,0,0,1,362.758,293.14Z" transform="translate(-250.905 -264.479)" fill="#007aff" opacity="0.5"/>
              <g id="Group_1961" data-name="Group 1961" transform="translate(0.645 19.835)" opacity="0.8">
                <path id="Path_1542" data-name="Path 1542" d="M425.788,297.936a.235.235,0,0,1-.154-.064.16.16,0,0,1-.045-.071.2.2,0,0,1-.02-.083.211.211,0,0,1,.065-.154.214.214,0,0,1,.308,0,.2.2,0,0,1,.065.154.344.344,0,0,1-.013.083.256.256,0,0,1-.051.071A.221.221,0,0,1,425.788,297.936Z" transform="translate(-314.061 -296.132)" fill="#fff"/>
                <path id="Path_1543" data-name="Path 1543" d="M261.924,312.218a.216.216,0,0,1-.218-.218h0a.215.215,0,0,1,.218-.212v-.006a.22.22,0,0,1,.218.218h0a.221.221,0,0,1-.218.225h0Zm-2.2-.121h.006a.214.214,0,0,1-.2-.238h0a.217.217,0,0,1,.244-.193h0a.217.217,0,0,1,.193.238h0a.222.222,0,0,1-.218.2h0A.047.047,0,0,1,259.722,312.1Zm4.154-.193a.218.218,0,0,1,.192-.244h0a.217.217,0,0,1,.244.193h0a.218.218,0,0,1-.192.244h-.026A.221.221,0,0,1,263.876,311.9Zm-6.325-.142a.23.23,0,0,1-.173-.263h0a.231.231,0,0,1,.263-.173h0a.232.232,0,0,1,.173.263h0a.225.225,0,0,1-.219.173h-.044Zm8.469-.218a.217.217,0,0,1,.16-.27h0a.224.224,0,0,1,.263.161h0a.227.227,0,0,1-.161.27h0V311.7h0a.162.162,0,0,1-.051.006h0A.209.209,0,0,1,266.021,311.545Zm70.227.09a.217.217,0,0,1-.218-.219h0a.221.221,0,0,1,.218-.218h0a.216.216,0,0,1,.218.218h0a.216.216,0,0,1-.218.219Zm1.958-.308a.212.212,0,0,1,.193-.238h0a.213.213,0,0,1,.244.192h0a.222.222,0,0,1-.2.244h-.019A.221.221,0,0,1,338.207,311.326Zm-4.154.173a.213.213,0,0,1-.186-.245h0a.218.218,0,0,1,.244-.192h0a.225.225,0,0,1,.192.244h0a.225.225,0,0,1-.218.2h0A.058.058,0,0,1,334.052,311.5Zm-78.633-.263a.222.222,0,0,1-.154-.27h0a.228.228,0,0,1,.276-.154h0a.225.225,0,0,1,.148.276h0a.214.214,0,0,1-.212.154h0A.177.177,0,0,1,255.42,311.236Zm84.945-.212a.212.212,0,0,1,.173-.257h0a.218.218,0,0,1,.257.173h0a.218.218,0,0,1-.173.257h0c-.013,0-.026.006-.039.006h0A.225.225,0,0,1,340.364,311.024Zm-8.47.077a.21.21,0,0,1-.161-.263h0a.218.218,0,0,1,.264-.161h0a.221.221,0,0,1,.161.263h0a.22.22,0,0,1-.212.167h0A.13.13,0,0,1,331.894,311.1Zm-63.793-.18a.215.215,0,0,1,.128-.283h0a.22.22,0,0,1,.282.123h0a.217.217,0,0,1-.128.282h0a.164.164,0,0,1-.077.02h0A.223.223,0,0,1,268.1,310.922Zm74.388-.379a.222.222,0,0,1,.155-.277h0a.222.222,0,0,1,.27.155h0a.221.221,0,0,1-.154.269h0a.172.172,0,0,1-.058.013h0A.221.221,0,0,1,342.489,310.543Zm-12.7-.077h0a.217.217,0,0,1-.135-.276h0a.224.224,0,0,1,.283-.135h0a.225.225,0,0,1,.135.283h0a.223.223,0,0,1-.212.141h0A.131.131,0,0,1,329.789,310.466Zm-59.69-.411a.22.22,0,0,1,.1-.3h0a.225.225,0,0,1,.295.1h0a.214.214,0,0,1-.1.289h0a.19.19,0,0,1-.1.026h0A.219.219,0,0,1,270.1,310.055Zm74.477-.154a.213.213,0,0,1,.129-.277l.006-.006a.223.223,0,0,1,.277.135h0a.222.222,0,0,1-.135.283h0a.27.27,0,0,1-.071.012h0A.221.221,0,0,1,344.576,309.9Zm-16.816-.27h0a.216.216,0,0,1-.109-.289h0a.224.224,0,0,1,.289-.109h0a.218.218,0,0,1,.109.3h0a.227.227,0,0,1-.2.128h0A.152.152,0,0,1,327.76,309.631Zm18.852-.5a.216.216,0,0,1,.122-.283h0a.207.207,0,0,1,.283.116h0a.216.216,0,0,1-.116.289h0a.185.185,0,0,1-.083.013h0A.224.224,0,0,1,346.612,309.13ZM272,309a.226.226,0,0,1,.071-.308h0a.219.219,0,0,1,.3.07h0a.22.22,0,0,1-.071.3h0a.192.192,0,0,1-.116.039h0A.232.232,0,0,1,272,309Zm53.8-.353h0a.223.223,0,0,1-.091-.3h0a.226.226,0,0,1,.3-.083h0a.218.218,0,0,1,.083.3h0a.225.225,0,0,1-.193.116h0A.314.314,0,0,1,325.8,308.649Zm22.808-.4a.217.217,0,0,1,.1-.29h0a.223.223,0,0,1,.3.1h0a.218.218,0,0,1-.109.289h0l.006.006h0a.258.258,0,0,1-.1.019h0A.215.215,0,0,1,348.609,308.25Zm-74.8-.456a.225.225,0,0,1,.051-.308h0a.224.224,0,0,1,.309.045h0a.225.225,0,0,1-.051.308h0a.24.24,0,0,1-.128.044h0A.226.226,0,0,1,273.809,307.795Zm50.1-.244v-.006h0a.21.21,0,0,1-.071-.3h0a.206.206,0,0,1,.3-.077h0a.216.216,0,0,1,.077.3h0a.225.225,0,0,1-.186.109h0A.241.241,0,0,1,323.907,307.551Zm26.654-.276a.216.216,0,0,1,.089-.3h0a.222.222,0,0,1,.3.09h0a.224.224,0,0,1-.09.3h0a.3.3,0,0,1-.1.026h0A.218.218,0,0,1,350.561,307.275Zm-75-.8a.216.216,0,0,1,.032-.308h0a.221.221,0,0,1,.308.032h0a.228.228,0,0,1-.031.314h0a.232.232,0,0,1-.141.046h0A.2.2,0,0,1,275.556,306.478Zm46.5-.1v-.006h0a.217.217,0,0,1-.064-.3h0a.226.226,0,0,1,.308-.064h0a.225.225,0,0,1,.064.3h0a.216.216,0,0,1-.187.1h0A.265.265,0,0,1,322.058,306.382Zm30.41-.161a.22.22,0,0,1,.078-.3h0a.227.227,0,0,1,.3.077h0a.227.227,0,0,1-.077.3h0a.261.261,0,0,1-.116.032h0A.217.217,0,0,1,352.467,306.221Zm-32.227-1.053a.225.225,0,0,1-.058-.309h0a.231.231,0,0,1,.308-.057h0a.231.231,0,0,1,.058.308h0a.226.226,0,0,1-.187.1h0A.226.226,0,0,1,320.241,305.168Zm34.09-.077a.229.229,0,0,1,.071-.309h0a.219.219,0,0,1,.3.071h0a.219.219,0,0,1-.071.3h0a.18.18,0,0,1-.116.039h0A.233.233,0,0,1,354.33,305.091Zm-77.085.012a.22.22,0,0,1,.026-.308h0a.229.229,0,0,1,.315.026h0a.216.216,0,0,1-.033.308h0a.188.188,0,0,1-.141.051h0A.225.225,0,0,1,277.245,305.1Zm78.914-1.207a.224.224,0,0,1,.051-.308h0a.22.22,0,0,1,.309.058h0a.216.216,0,0,1-.058.3h0a.223.223,0,0,1-.122.039h0A.216.216,0,0,1,356.159,303.9Zm-37.724.051a.212.212,0,0,1-.057-.3h0a.217.217,0,0,1,.3-.064h0a.219.219,0,0,1,.058.308h0a.207.207,0,0,1-.18.1h0A.226.226,0,0,1,318.436,303.948ZM278.92,303.7a.211.211,0,0,1,.026-.308h0a.223.223,0,0,1,.309.026h0a.222.222,0,0,1-.026.308h0a.2.2,0,0,1-.141.051h0A.209.209,0,0,1,278.92,303.7Zm37.705-.963a.215.215,0,0,1-.065-.3h0a.215.215,0,0,1,.3-.065h0a.219.219,0,0,1,.064.3h0a.206.206,0,0,1-.18.1h0A.2.2,0,0,1,316.626,302.741Zm41.32-.1a.21.21,0,0,1,.045-.3h0a.222.222,0,0,1,.308.045h0a.223.223,0,0,1-.051.308h0a.228.228,0,0,1-.128.039h0A.2.2,0,0,1,357.945,302.638Zm-77.348-.328a.217.217,0,0,1,.032-.308h0a.221.221,0,0,1,.308.032h0a.215.215,0,0,1-.032.308h0a.192.192,0,0,1-.142.052h0A.212.212,0,0,1,280.6,302.311Zm34.2-.745a.219.219,0,0,1-.07-.3h0a.219.219,0,0,1,.3-.071h0a.219.219,0,0,1,.071.3h0a.224.224,0,0,1-.186.109h0A.2.2,0,0,1,314.795,301.566Zm44.9-.231a.217.217,0,0,1,.039-.308h0a.217.217,0,0,1,.308.039h0a.229.229,0,0,1-.038.308h-.006a.2.2,0,0,1-.128.045h0A.218.218,0,0,1,359.691,301.335Zm-77.386-.372a.223.223,0,0,1,.045-.308h0a.224.224,0,0,1,.308.045h0a.223.223,0,0,1-.046.308h0a.232.232,0,0,1-.128.046h0A.225.225,0,0,1,282.3,300.963Zm30.621-.507a.219.219,0,0,1-.076-.3h0a.212.212,0,0,1,.3-.076h0a.209.209,0,0,1,.083.3h0a.226.226,0,0,1-.193.116h0A.276.276,0,0,1,312.926,300.455Zm48.467-.482a.217.217,0,0,1,.032-.308h0a.217.217,0,0,1,.308.031h0a.223.223,0,0,1-.026.309h0a.255.255,0,0,1-.142.051h0A.215.215,0,0,1,361.393,299.974Zm-77.316-.283a.219.219,0,0,1,.057-.308h0a.227.227,0,0,1,.309.064h0a.218.218,0,0,1-.065.3h0a.212.212,0,0,1-.121.039h0A.222.222,0,0,1,284.077,299.691Zm26.943-.27a.218.218,0,0,1-.09-.3h0a.221.221,0,0,1,.3-.1h0a.237.237,0,0,1,.1.3h0a.234.234,0,0,1-.2.116h0A.2.2,0,0,1,311.02,299.422Zm52.042-.854a.222.222,0,0,1,.02-.308h.006a.222.222,0,0,1,.308.019h0a.223.223,0,0,1-.026.309h0a.2.2,0,0,1-.141.058h0A.218.218,0,0,1,363.062,298.568Zm-77.142-.039a.218.218,0,0,1,.083-.3h0a.22.22,0,0,1,.3.084h0a.222.222,0,0,1-.083.3h.006a.242.242,0,0,1-.109.026h0A.219.219,0,0,1,285.92,298.529Zm23.148-.039h0a.218.218,0,0,1-.109-.289h0a.216.216,0,0,1,.289-.109h0a.215.215,0,0,1,.109.29h0a.219.219,0,0,1-.2.128h0A.213.213,0,0,1,309.068,298.49Zm-2-.815a.214.214,0,0,1-.128-.282h0a.225.225,0,0,1,.283-.129h0a.228.228,0,0,1,.128.283h0a.214.214,0,0,1-.205.141h0A.169.169,0,0,1,307.065,297.675Zm-19.218-.154a.222.222,0,0,1,.109-.289h0a.22.22,0,0,1,.3.109h0a.222.222,0,0,1-.116.289h0a.206.206,0,0,1-.091.019h0A.215.215,0,0,1,287.846,297.521ZM305.01,297a.225.225,0,0,1-.148-.277h0a.225.225,0,0,1,.276-.147h0a.222.222,0,0,1,.148.276h0a.229.229,0,0,1-.212.154h0A.239.239,0,0,1,305.01,297Zm-15.148-.3a.219.219,0,0,1,.142-.276h0a.219.219,0,0,1,.276.141h0a.219.219,0,0,1-.141.277h0a.232.232,0,0,1-.071.013h0A.219.219,0,0,1,289.862,296.7Zm13.054-.231a.219.219,0,0,1-.166-.257h0a.212.212,0,0,1,.263-.167h0a.212.212,0,0,1,.167.256h0a.222.222,0,0,1-.218.174h0A.129.129,0,0,1,302.916,296.468Zm-10.967-.366a.221.221,0,0,1,.174-.263h0a.217.217,0,0,1,.256.166h0a.217.217,0,0,1-.166.264h0c-.013,0-.032.006-.045.006h0A.227.227,0,0,1,291.949,296.1Zm8.842-.006h0a.224.224,0,0,1-.186-.251h0a.213.213,0,0,1,.244-.186h.006a.225.225,0,0,1,.186.251h0a.227.227,0,0,1-.218.186h-.032Zm-6.7-.366a.216.216,0,0,1,.193-.238h0a.214.214,0,0,1,.244.192h0a.227.227,0,0,1-.2.245h-.019A.222.222,0,0,1,294.094,295.729Zm4.546.141h.007a.212.212,0,0,1-.206-.23h0a.217.217,0,0,1,.231-.205h0a.222.222,0,0,1,.205.238h0a.218.218,0,0,1-.218.206h0C298.653,295.877,298.647,295.87,298.639,295.87Zm-2.375-.282a.212.212,0,0,1,.218-.218h0a.216.216,0,0,1,.218.218h0a.217.217,0,0,1-.218.218h0A.217.217,0,0,1,296.264,295.588Z" transform="translate(-253.108 -295.369)" fill="#fff"/>
                <path id="Path_1544" data-name="Path 1544" d="M252.128,318.763a.189.189,0,0,1-.083-.02.17.17,0,0,1-.071-.051.127.127,0,0,1-.045-.07.178.178,0,0,1-.019-.083.236.236,0,0,1,.064-.154.161.161,0,0,1,.071-.045.191.191,0,0,1,.167,0,.132.132,0,0,1,.071.045.208.208,0,0,1,.064.154.168.168,0,0,1-.014.083.136.136,0,0,1-.051.07.221.221,0,0,1-.154.071Z" transform="translate(-251.91 -303.583)" fill="#fff"/>
              </g>
            </g>
            <g id="Group_1965" data-name="Group 1965" transform="translate(62.742 14.426)">
              <g id="Group_1963" data-name="Group 1963" transform="translate(0 0.036)">
                <path id="Path_1545" data-name="Path 1545" d="M291.3,212.277h0l-1.5-1.615a14.7,14.7,0,0,1-9.994,4.018,12.558,12.558,0,0,1-12.529-10.172l-2.248.591h0l-2.055.54a16.589,16.589,0,0,0,4.1,8.113c6.517,7.02,18.07,7.02,25.593,0Z" transform="translate(-262.645 -182.898)" fill="#fff"/>
                <path id="Path_1546" data-name="Path 1546" d="M309.453,179.047l-1.962,1.831h0l-1.355,1.265a12.772,12.772,0,0,1,3.327,9.7,14.774,14.774,0,0,1-4.714,9.706l1.174,1.264h0l1.7,1.826a19.538,19.538,0,0,0,6.218-12.8A16.924,16.924,0,0,0,309.453,179.047Z" transform="translate(-277.597 -173.785)" fill="#263238"/>
                <path id="Path_1547" data-name="Path 1547" d="M294.32,176.114c-6.517-7.016-18.07-7.016-25.593,0a19.146,19.146,0,0,0-5.937,17.48l2.541-.668h0l1.761-.463a13.619,13.619,0,0,1-.206-3.553,14.979,14.979,0,0,1,14.7-13.719A12.708,12.708,0,0,1,291,179.21l1.736-1.62h0Z" transform="translate(-262.464 -170.853)" fill="#007aff"/>
              </g>
              <g id="Group_1964" data-name="Group 1964" transform="translate(44.321)">
                <path id="Path_1548" data-name="Path 1548" d="M337.465,200.555h0l1.731-1.616a12.786,12.786,0,0,1-3.323-9.705A15.045,15.045,0,0,1,347,175.975l-.433-2.206h0l-.4-2.016a19.822,19.822,0,0,0-8.448,4.684c-7.524,7.021-8.352,18.573-1.835,25.593Z" transform="translate(-331.488 -171.139)" fill="#fff"/>
                <path id="Path_1549" data-name="Path 1549" d="M363.927,217.18l-1.7-1.831h0l-1.174-1.264a14.686,14.686,0,0,1-9.989,4.023,12.717,12.717,0,0,1-9.418-4.018l-1.355,1.265h0l-1.957,1.826a16.823,16.823,0,0,0,12.416,5.3A19.448,19.448,0,0,0,363.927,217.18Z" transform="translate(-333.938 -186.289)" fill="#263238"/>
                <path id="Path_1550" data-name="Path 1550" d="M369.658,201.688c7.518-7.02,8.347-18.572,1.835-25.593a17.258,17.258,0,0,0-17.145-4.684l.489,2.494h0l.339,1.729a14.261,14.261,0,0,1,3.586-.461,12.6,12.6,0,0,1,12.736,13.72,14.763,14.763,0,0,1-4.714,9.7l1.5,1.62h0Z" transform="translate(-339.67 -170.797)" fill="#007aff"/>
              </g>
            </g>
            <path id="Path_1551" data-name="Path 1551" d="M417.619,172.989a1.26,1.26,0,0,1,1.276,1.376l-.794,11.076a1.613,1.613,0,0,1-1.56,1.457H405.465a1.26,1.26,0,0,1-1.275-1.376l.794-11.075a1.613,1.613,0,0,1,1.56-1.458h11.076m0-.566H406.544a2.172,2.172,0,0,0-2.125,1.983l-.794,11.076a1.826,1.826,0,0,0,1.84,1.983h11.076a2.171,2.171,0,0,0,2.125-1.983l.794-11.076a1.826,1.826,0,0,0-1.841-1.983Z" transform="translate(-250.24 -156.953)" fill="#407bff" opacity="0.3"/>
            <path id="Path_1552" data-name="Path 1552" d="M415.492,202.67a1.259,1.259,0,0,1,1.275,1.375l-.794,11.076a1.612,1.612,0,0,1-1.56,1.457H403.338a1.259,1.259,0,0,1-1.275-1.376l.794-11.075a1.612,1.612,0,0,1,1.56-1.457h11.076m0-.567H404.416a2.171,2.171,0,0,0-2.125,1.983l-.794,11.076a1.826,1.826,0,0,0,1.841,1.983h11.076a2.171,2.171,0,0,0,2.125-1.983l.794-11.076a1.826,1.826,0,0,0-1.841-1.983Z" transform="translate(-249.479 -167.576)" fill="#407bff" opacity="0.3"/>
            <path id="Path_1553" data-name="Path 1553" d="M396.986,298.113a1.053,1.053,0,0,1,1.072,1.156,1.351,1.351,0,0,1-1.324,1.237,1.053,1.053,0,0,1-1.072-1.156,1.351,1.351,0,0,1,1.324-1.237m0-.567a1.926,1.926,0,0,0-1.89,1.763,1.62,1.62,0,0,0,1.637,1.763,1.924,1.924,0,0,0,1.889-1.763,1.619,1.619,0,0,0-1.637-1.763Z" transform="translate(-247.188 -201.734)" fill="#407bff"/>
            <g id="Group_1966" data-name="Group 1966" transform="translate(149.657 68.001)">
              <path id="Path_1554" data-name="Path 1554" d="M398.1,297.235l-.282-.02.041-.565.282.02Z" transform="translate(-397.822 -269.415)" fill="#407bff"/>
              <path id="Path_1555" data-name="Path 1555" d="M398.3,281.291l-.282-.02.083-1.16.282.02Zm.166-2.319-.283-.021.083-1.16.283.02Zm.166-2.32-.283-.02.083-1.159.283.02Zm.166-2.319-.282-.02.083-1.16.282.02Zm.166-2.319-.282-.021.083-1.159.282.02Zm.167-2.319-.282-.02.083-1.16.282.02Zm.166-2.319-.283-.02.083-1.16.283.02Zm.166-2.319-.283-.021.083-1.16.283.02Zm.166-2.32-.282-.02.083-1.159.282.02Zm.166-2.319-.282-.02.083-1.16.282.021Zm.166-2.319-.282-.02.083-1.16.283.02Z" transform="translate(-397.891 -255.196)" fill="#407bff"/>
              <rect id="Rectangle_2018" data-name="Rectangle 2018" width="0.566" height="0.283" transform="translate(1.953 0.565) rotate(-85.938)" fill="#407bff"/>
            </g>
            <path id="Path_1556" data-name="Path 1556" d="M361.989,248.437H260.312a2,2,0,0,1-2.01-2.167l.5-7a2.32,2.32,0,0,1,2.274-2.123H362.755a2,2,0,0,1,2.01,2.166l-.5,7A2.321,2.321,0,0,1,361.989,248.437ZM261.078,237.762a1.7,1.7,0,0,0-1.662,1.552l-.5,7a1.384,1.384,0,0,0,1.4,1.508H361.989a1.7,1.7,0,0,0,1.663-1.552l.5-7a1.385,1.385,0,0,0-1.4-1.508Z" transform="translate(-198.23 -180.118)" fill="#407bff"/>
            <path id="Path_1557" data-name="Path 1557" d="M362.17,243.114H265.787a.877.877,0,0,1-.884-.952h0a1.043,1.043,0,0,1,1.02-.953h96.383a.877.877,0,0,1,.884.953h0A1.043,1.043,0,0,1,362.17,243.114Z" transform="translate(-200.594 -181.571)" fill="#fff" fill-rule="evenodd" opacity="0.8"/>
            <path id="Path_1558" data-name="Path 1558" d="M345.946,249.369H265.338a.878.878,0,0,1-.884-.952h0a1.044,1.044,0,0,1,1.021-.953h80.608a.878.878,0,0,1,.884.953h0A1.044,1.044,0,0,1,345.946,249.369Z" transform="translate(-200.433 -183.81)" fill="#fff" fill-rule="evenodd" opacity="0.8"/>
          </g>
        </g>
      </g>
    </g>
  </g>
</svg>
