<svg id="Group_637" data-name="Group 637" xmlns="http://www.w3.org/2000/svg" width="120" height="41.14" viewBox="0 0 120 41.14">
  <g id="Group_635" data-name="Group 635">
    <g id="Group_627" data-name="Group 627">
      <g id="Group_626" data-name="Group 626">
        <g id="Group_625" data-name="Group 625">
          <g id="Group_624" data-name="Group 624">
            <path id="Path_722" data-name="Path 722" d="M0,40.48H14.45L0,25.42Z" fill="#4cd964"/>
          </g>
        </g>
      </g>
    </g>
    <g id="Group_631" data-name="Group 631">
      <g id="Group_630" data-name="Group 630">
        <g id="Group_629" data-name="Group 629">
          <g id="Group_628" data-name="Group 628">
            <path id="Path_723" data-name="Path 723" d="M0,6.87V18.46L21.13,40.48H32.24Z" fill="#4cd964"/>
          </g>
        </g>
      </g>
    </g>
    <g id="Group_634" data-name="Group 634">
      <g id="Group_633" data-name="Group 633">
        <g id="Group_632" data-name="Group 632">
          <path id="Path_724" data-name="Path 724" d="M32.24,12.11A11.868,11.868,0,0,0,20.63,0H.08L23.06,23.95A12,12,0,0,0,32.24,12.11Z" fill="#007aff"/>
        </g>
      </g>
    </g>
  </g>
  <g id="Group_636" data-name="Group 636">
    <path id="Path_725" data-name="Path 725" d="M35.87,32.63v-.1c0-6.02,4.62-8.87,11.2-8.87a19.83,19.83,0,0,1,6.79,1.14v-.47c0-3.32-2.02-5.08-5.96-5.08a19.409,19.409,0,0,0-7.68,1.5l-1.97-6.02A25.239,25.239,0,0,1,49.04,12.5c4.36,0,7.37,1.09,9.39,3.11,2.07,2.07,3.01,5.14,3.01,8.87V40.61H53.82V37.6a10.6,10.6,0,0,1-8.4,3.53C40.17,41.13,35.87,38.18,35.87,32.63Zm18.1-1.82v-1.4a12.439,12.439,0,0,0-5.03-1.04c-3.37,0-5.45,1.35-5.45,3.84v.1c0,2.13,1.76,3.37,4.31,3.37C51.53,35.69,53.97,33.71,53.97,30.81Z" fill="#007aff"/>
    <path id="Path_726" data-name="Path 726" d="M65.18,26.76v-.1c0-9.28,6.07-14.37,12.66-14.37a10.68,10.68,0,0,1,8.66,4.15V2.75h7.88V40.61H86.5V36.62a10.007,10.007,0,0,1-8.66,4.51C71.35,41.13,65.18,36.05,65.18,26.76Zm21.42,0v-.1c0-4.62-3.06-7.68-6.74-7.68s-6.79,3.01-6.79,7.68v.1c0,4.62,3.11,7.68,6.79,7.68S86.6,31.38,86.6,26.76Z" fill="#007aff"/>
    <path id="Path_727" data-name="Path 727" d="M97.44,36.93l3.37-5.19a15.343,15.343,0,0,0,8.77,3.32c2.28,0,3.32-.83,3.32-2.07v-.1c0-1.71-2.7-2.23-5.76-3.22-3.89-1.09-8.3-2.96-8.3-8.35v-.1c0-5.65,4.56-8.82,10.17-8.82a19.3,19.3,0,0,1,10.37,3.22l-3.01,5.45a16.447,16.447,0,0,0-7.52-2.59c-1.92,0-2.9.83-2.9,1.92v.1c0,1.45,2.65,2.39,5.65,3.32,3.89,1.24,8.4,3.16,8.4,8.25v.1c0,6.17-4.62,8.97-10.63,8.97A19.49,19.49,0,0,1,97.44,36.93Z" fill="#007aff"/>
  </g>
</svg>
