<?xml version="1.0" encoding="utf-8"?>
<!-- Generator: Adobe Illustrator 24.2.1, SVG Export Plug-In . SVG Version: 6.00 Build 0)  -->
<svg version="1.1" id="Layer_1" xmlns="http://www.w3.org/2000/svg" xmlns:xlink="http://www.w3.org/1999/xlink" x="0px" y="0px"
	 viewBox="0 0 1000 1000" style="enable-background:new 0 0 1000 1000;" xml:space="preserve">
<style type="text/css">
	.st0{fill:url(#SVGID_1_);}
	.st1{fill:url(#SVGID_2_);}
	.st2{fill:#FFFFFF;}
</style>
<g>
	<g>
		<linearGradient id="SVGID_1_" gradientUnits="userSpaceOnUse" x1="228.7812" y1="182.686" x2="771.2188" y2="182.686">
			<stop  offset="0" style="stop-color:#007AFF"/>
			<stop  offset="0.1232" style="stop-color:#0580F6"/>
			<stop  offset="0.3285" style="stop-color:#118FDC"/>
			<stop  offset="0.5907" style="stop-color:#26A9B2"/>
			<stop  offset="0.8965" style="stop-color:#42CC79"/>
			<stop  offset="1" style="stop-color:#4CD964"/>
		</linearGradient>
		<path class="st0" d="M228.78-0.15l359.6,0c100.98,0,182.84,81.86,182.84,182.84v0c0,100.98-81.86,182.84-182.84,182.84h0
			c-19.57,0-38.33-7.8-52.13-21.67l-99.84-100.32h152.02c33.64,0,60.91-27.27,60.91-60.91v0c0-33.64-27.27-60.91-60.91-60.91H376.27
			c-18.16,0-35.56-7.32-48.25-20.31L228.78-0.15z"/>
		<linearGradient id="SVGID_2_" gradientUnits="userSpaceOnUse" x1="228.7812" y1="424.9264" x2="746.3991" y2="424.9264">
			<stop  offset="0" style="stop-color:#007AFF"/>
			<stop  offset="0.1232" style="stop-color:#0580F6"/>
			<stop  offset="0.3285" style="stop-color:#118FDC"/>
			<stop  offset="0.5907" style="stop-color:#26A9B2"/>
			<stop  offset="0.8965" style="stop-color:#42CC79"/>
			<stop  offset="1" style="stop-color:#4CD964"/>
		</linearGradient>
		<path class="st1" d="M228.78,244.01h168.76L746.4,605.84H613.69c-22.13,0-43.31-8.97-58.7-24.87L228.78,244.01z"/>
	</g>
	<g>
		<g>
			<g>
				<path class="st2" d="M46.89,926.75h19.69c17.43,0.42,26.15,9.91,26.15,28.46c0,18.55-8.72,28.03-26.15,28.46H46.89V926.75z
					 M52.31,979.04h11.56c8.24,0,14.2-1.86,17.89-5.58s5.54-9.8,5.54-18.25c0-8.45-1.85-14.53-5.54-18.25
					c-3.69-3.72-9.66-5.58-17.89-5.58H52.31V979.04z"/>
				<path class="st2" d="M100.62,926.75h5.02v8.05h-5.02V926.75z M100.62,942.53h5.02v41.13h-5.02V942.53z"/>
				<path class="st2" d="M150.04,980.31c0,6.38-1.43,11.25-4.3,14.63c-2.87,3.37-7.52,5.06-13.95,5.06c-4.52,0-8.41-1.05-11.68-3.15
					c-3.27-2.1-5.06-5.19-5.38-9.29h5.02c0.48,2.82,1.84,4.89,4.07,6.22c2.23,1.33,4.89,1.99,7.97,1.99
					c8.82,0,13.23-5.16,13.23-15.46v-5.58h-0.16c-1.17,2.6-2.9,4.66-5.18,6.18c-2.29,1.51-4.92,2.27-7.89,2.27
					c-6.27,0-10.94-1.94-13.99-5.82c-3.06-3.88-4.58-8.98-4.58-15.3c0-5.9,1.66-10.83,4.98-14.79c3.32-3.96,7.85-5.94,13.59-5.94
					c2.92,0,5.58,0.8,7.97,2.39c2.39,1.59,4.09,3.56,5.1,5.9h0.16v-7.09h5.02V980.31z M131.78,978.96c4.14,0,7.39-1.61,9.73-4.82
					c2.34-3.22,3.51-7.06,3.51-11.52c0-4.57-1.1-8.55-3.31-11.95c-2.21-3.4-5.51-5.1-9.92-5.1c-4.46,0-7.84,1.66-10.12,4.98
					c-2.29,3.32-3.43,7.35-3.43,12.07c0,4.52,1.16,8.37,3.47,11.56C124.01,977.36,127.37,978.96,131.78,978.96z"/>
				<path class="st2" d="M159.68,926.75h5.02v8.05h-5.02V926.75z M159.68,942.53h5.02v41.13h-5.02V942.53z"/>
				<path class="st2" d="M182.32,942.53h8.37v4.22h-8.37v27.74c0,1.81,0.26,3.14,0.8,3.99c0.53,0.85,1.62,1.33,3.27,1.43
					c1.43,0,2.87-0.08,4.3-0.24v4.23c-0.48,0-1.22,0.03-2.23,0.08c-1.01,0.05-1.75,0.08-2.23,0.08c-3.4,0-5.75-0.66-7.05-1.99
					c-1.3-1.33-1.93-3.72-1.87-7.17v-28.14h-7.17v-4.22h7.17v-12.36h5.02V942.53z"/>
				<path class="st2" d="M197.46,955.12c0.32-4.68,1.94-8.14,4.86-10.4c2.92-2.26,6.86-3.39,11.8-3.39
					c10.1,0,15.15,4.41,15.15,13.23v21.84c0,2.02,0.98,3.03,2.95,3.03c0.64,0,1.17-0.11,1.59-0.32v4.22
					c-1.06,0.21-2.15,0.32-3.27,0.32c-2.34,0-3.91-0.6-4.7-1.79c-0.8-1.2-1.2-2.99-1.2-5.38h-0.16c-1.97,2.92-4.01,5.03-6.14,6.34
					c-2.13,1.3-5.07,1.95-8.85,1.95c-4.09,0-7.41-1-9.96-2.99c-2.55-1.99-3.82-4.98-3.82-8.97c0-1.49,0.21-2.83,0.64-4.03
					c0.42-1.2,0.92-2.2,1.47-3.03c0.56-0.82,1.43-1.57,2.63-2.23c1.2-0.66,2.22-1.17,3.07-1.51c0.85-0.34,2.14-0.68,3.86-1
					c1.73-0.32,3.04-0.54,3.95-0.68c0.9-0.13,2.37-0.31,4.39-0.52c0.9-0.11,1.59-0.19,2.07-0.24c2.34-0.21,4-0.67,4.98-1.36
					s1.48-2.1,1.48-4.23c0-3.13-0.96-5.33-2.87-6.58c-1.91-1.25-4.55-1.87-7.89-1.87s-5.99,0.78-7.93,2.35
					c-1.94,1.57-2.96,3.97-3.07,7.21H197.46z M224.25,961.18h-0.16c-0.42,0.8-1.83,1.41-4.23,1.83c-0.9,0.16-2.34,0.39-4.3,0.68
					c-1.97,0.29-3.48,0.53-4.54,0.72c-1.06,0.19-2.35,0.51-3.87,0.96c-1.51,0.45-2.66,0.94-3.43,1.47
					c-0.77,0.53-1.46,1.29-2.07,2.27c-0.61,0.98-0.92,2.11-0.92,3.39c0,2.44,0.9,4.41,2.71,5.9c1.8,1.49,3.96,2.23,6.45,2.23
					c4.04,0,7.44-1.18,10.2-3.55c2.76-2.36,4.14-5.49,4.14-9.36V961.18z"/>
				<path class="st2" d="M239.39,926.75h5.02v56.91h-5.02V926.75z"/>
				<path class="st2" d="M293.83,926.75h6.06l22.32,56.91h-5.82l-6.93-17.7h-25.9l-6.86,17.7h-5.74L293.83,926.75z M285.22,961.34
					h22.4l-11-29.17L285.22,961.34z"/>
				<path class="st2" d="M362.62,983.66H358v-7.81h-0.16c-1.06,2.66-3,4.81-5.82,6.45c-2.82,1.65-5.76,2.47-8.85,2.47
					c-5.95,0-10.52-2.04-13.71-6.14c-3.19-4.09-4.78-9.27-4.78-15.54c0-6.22,1.59-11.4,4.78-15.54c3.19-4.14,7.76-6.22,13.71-6.22
					c3.19,0,6.11,0.79,8.77,2.35c2.66,1.57,4.49,3.79,5.5,6.66h0.16v-23.59h5.02V983.66z M331.02,954.73
					c-0.88,2.55-1.32,5.34-1.32,8.37s0.44,5.82,1.32,8.37c0.88,2.55,2.36,4.72,4.46,6.5c2.1,1.78,4.66,2.67,7.69,2.67
					c4.89,0,8.51-1.71,10.88-5.14c2.36-3.43,3.55-7.56,3.55-12.39c0-4.84-1.18-8.97-3.55-12.4c-2.37-3.43-5.99-5.14-10.88-5.14
					c-3.03,0-5.59,0.89-7.69,2.67C333.38,950.01,331.9,952.17,331.02,954.73z"/>
				<path class="st2" d="M367.56,942.53h5.58l12.91,36.11h0.16l12.75-36.11h5.18l-15.38,41.13h-5.34L367.56,942.53z"/>
				<path class="st2" d="M412.04,964.45c0,4.2,1.16,7.94,3.47,11.24c2.31,3.29,5.67,4.94,10.08,4.94c6.85,0,11.16-3.51,12.91-10.52
					h5.02c-2.23,9.78-8.21,14.67-17.93,14.67c-6.22,0-10.87-2.03-13.95-6.1s-4.62-9.26-4.62-15.58c0-3.83,0.61-7.32,1.83-10.48
					c1.22-3.16,3.28-5.83,6.18-8.01c2.9-2.18,6.42-3.27,10.56-3.27c4.2,0,7.72,1.14,10.56,3.43s4.85,5.13,6.02,8.53
					c1.17,3.4,1.67,7.12,1.52,11.16H412.04z M438.67,960.23c-0.11-3.99-1.36-7.43-3.75-10.32c-2.39-2.9-5.5-4.34-9.33-4.34
					c-3.88,0-6.99,1.42-9.33,4.26c-2.34,2.84-3.75,6.31-4.23,10.4H438.67z"/>
				<path class="st2" d="M450.46,942.53h4.62v9.64h0.16c1.27-3.4,3.27-5.99,5.98-7.77c2.71-1.78,5.9-2.59,9.57-2.43v5.02
					c-4.46-0.21-8.13,1.1-11,3.95c-2.87,2.84-4.3,6.44-4.3,10.8v21.92h-5.02V942.53z"/>
				<path class="st2" d="M483.54,942.53h8.37v4.22h-8.37v27.74c0,1.81,0.26,3.14,0.8,3.99c0.53,0.85,1.62,1.33,3.27,1.43
					c1.43,0,2.87-0.08,4.3-0.24v4.23c-0.48,0-1.22,0.03-2.23,0.08c-1.01,0.05-1.75,0.08-2.23,0.08c-3.4,0-5.75-0.66-7.05-1.99
					c-1.3-1.33-1.93-3.72-1.87-7.17v-28.14h-7.17v-4.22h7.17v-12.36h5.02V942.53z"/>
				<path class="st2" d="M499.24,926.75h5.02v8.05h-5.02V926.75z M499.24,942.53h5.02v41.13h-5.02V942.53z"/>
				<path class="st2" d="M538.54,954.57c-0.11-2.98-1.17-5.22-3.19-6.74c-2.02-1.51-4.54-2.27-7.57-2.27c-2.6,0-4.88,0.57-6.82,1.71
					c-1.94,1.14-2.91,2.94-2.91,5.38c0,3.19,2.84,5.5,8.53,6.94l6.7,1.51c3.29,0.48,6.07,1.67,8.33,3.59
					c2.26,1.91,3.39,4.52,3.39,7.81c0,4.14-1.65,7.23-4.94,9.25c-3.29,2.02-7.15,3.03-11.56,3.03c-10.41,0-16.05-4.81-16.9-14.43
					h5.02c0.21,3.29,1.42,5.83,3.63,7.61c2.21,1.78,5.03,2.67,8.49,2.67c2.87,0,5.46-0.65,7.77-1.95c2.31-1.3,3.47-3.25,3.47-5.86
					c0-2.18-0.79-3.8-2.35-4.86c-1.57-1.06-3.79-1.94-6.66-2.63l-6.45-1.43c-3.77-0.96-6.63-2.23-8.57-3.83
					c-1.94-1.59-2.91-3.99-2.91-7.17c0-3.88,1.54-6.78,4.62-8.69c3.08-1.91,6.7-2.87,10.84-2.87c4.3,0,7.84,1.13,10.6,3.39
					c2.76,2.26,4.25,5.54,4.46,9.84H538.54z"/>
				<path class="st2" d="M552.33,926.75h5.02v8.05h-5.02V926.75z M552.33,942.53h5.02v41.13h-5.02V942.53z"/>
				<path class="st2" d="M566.92,942.53h5.02v7.09h0.16c0.95-2.5,2.66-4.5,5.1-6.02c2.44-1.51,5.13-2.27,8.05-2.27
					c5.53,0,9.42,1.34,11.68,4.02c2.26,2.68,3.39,6.63,3.39,11.84v26.46h-5.02v-25.67c0-8.29-3.48-12.43-10.44-12.43
					c-3.88,0-6.97,1.32-9.29,3.94c-2.31,2.63-3.52,6.02-3.63,10.16v23.99h-5.02V942.53z"/>
				<path class="st2" d="M644.55,980.31c0,6.38-1.43,11.25-4.3,14.63c-2.87,3.37-7.52,5.06-13.95,5.06c-4.52,0-8.41-1.05-11.68-3.15
					c-3.27-2.1-5.06-5.19-5.38-9.29h5.02c0.48,2.82,1.84,4.89,4.07,6.22c2.23,1.33,4.89,1.99,7.97,1.99
					c8.82,0,13.23-5.16,13.23-15.46v-5.58h-0.16c-1.17,2.6-2.9,4.66-5.18,6.18c-2.29,1.51-4.92,2.27-7.89,2.27
					c-6.27,0-10.94-1.94-13.99-5.82c-3.06-3.88-4.58-8.98-4.58-15.3c0-5.9,1.66-10.83,4.98-14.79c3.32-3.96,7.85-5.94,13.59-5.94
					c2.92,0,5.58,0.8,7.97,2.39c2.39,1.59,4.09,3.56,5.1,5.9h0.16v-7.09h5.02V980.31z M626.3,978.96c4.14,0,7.39-1.61,9.73-4.82
					c2.34-3.22,3.51-7.06,3.51-11.52c0-4.57-1.1-8.55-3.31-11.95c-2.21-3.4-5.51-5.1-9.92-5.1c-4.46,0-7.84,1.66-10.12,4.98
					c-2.29,3.32-3.43,7.35-3.43,12.07c0,4.52,1.16,8.37,3.47,11.56C618.53,977.36,621.89,978.96,626.3,978.96z"/>
				<path class="st2" d="M677.23,926.75h25.27c5.15,0,9.26,1.43,12.32,4.3c3.05,2.87,4.58,6.86,4.58,11.96s-1.53,9.09-4.58,11.96
					c-3.06,2.87-7.16,4.3-12.32,4.3h-19.85v24.39h-5.42V926.75z M682.65,954.64h18.65c3.93,0,7.03-0.98,9.29-2.95
					c2.26-1.97,3.39-4.86,3.39-8.69s-1.13-6.72-3.39-8.69c-2.26-1.96-5.35-2.95-9.29-2.95h-18.65V954.64z"/>
				<path class="st2" d="M726.57,926.75h5.02v56.91h-5.02V926.75z"/>
				<path class="st2" d="M740.76,955.12c0.32-4.68,1.94-8.14,4.86-10.4s6.86-3.39,11.8-3.39c10.1,0,15.15,4.41,15.15,13.23v21.84
					c0,2.02,0.98,3.03,2.95,3.03c0.64,0,1.17-0.11,1.59-0.32v4.22c-1.06,0.21-2.15,0.32-3.27,0.32c-2.34,0-3.91-0.6-4.7-1.79
					c-0.8-1.2-1.2-2.99-1.2-5.38h-0.16c-1.97,2.92-4.01,5.03-6.14,6.34c-2.13,1.3-5.08,1.95-8.85,1.95c-4.09,0-7.41-1-9.96-2.99
					c-2.55-1.99-3.82-4.98-3.82-8.97c0-1.49,0.21-2.83,0.64-4.03c0.42-1.2,0.92-2.2,1.47-3.03c0.56-0.82,1.43-1.57,2.63-2.23
					c1.2-0.66,2.22-1.17,3.07-1.51c0.85-0.34,2.14-0.68,3.86-1c1.73-0.32,3.04-0.54,3.95-0.68c0.9-0.13,2.37-0.31,4.39-0.52
					c0.9-0.11,1.59-0.19,2.07-0.24c2.34-0.21,4-0.67,4.98-1.36c0.98-0.69,1.48-2.1,1.48-4.23c0-3.13-0.96-5.33-2.87-6.58
					c-1.91-1.25-4.55-1.87-7.89-1.87s-5.99,0.78-7.93,2.35c-1.94,1.57-2.96,3.97-3.07,7.21H740.76z M767.54,961.18h-0.16
					c-0.42,0.8-1.83,1.41-4.23,1.83c-0.9,0.16-2.34,0.39-4.3,0.68c-1.97,0.29-3.48,0.53-4.54,0.72c-1.06,0.19-2.35,0.51-3.87,0.96
					c-1.51,0.45-2.66,0.94-3.43,1.47c-0.77,0.53-1.46,1.29-2.07,2.27c-0.61,0.98-0.92,2.11-0.92,3.39c0,2.44,0.9,4.41,2.71,5.9
					c1.8,1.49,3.96,2.23,6.45,2.23c4.04,0,7.44-1.18,10.2-3.55c2.76-2.36,4.14-5.49,4.14-9.36V961.18z"/>
				<path class="st2" d="M790.58,942.53h8.37v4.22h-8.37v27.74c0,1.81,0.26,3.14,0.8,3.99c0.53,0.85,1.62,1.33,3.27,1.43
					c1.43,0,2.87-0.08,4.3-0.24v4.23c-0.48,0-1.22,0.03-2.23,0.08c-1.01,0.05-1.75,0.08-2.23,0.08c-3.4,0-5.75-0.66-7.05-1.99
					c-1.3-1.33-1.93-3.72-1.87-7.17v-28.14h-7.17v-4.22h7.17v-12.36h5.02V942.53z"/>
				<path class="st2" d="M822.07,946.75h-8.13v36.91h-5.02v-36.91h-7.02v-4.22h7.02v-3.75c0-3.93,0.72-6.92,2.15-8.97
					c1.44-2.05,4.04-3.07,7.81-3.07c1.38,0,2.79,0.11,4.23,0.32v4.3c-1.49-0.26-2.71-0.4-3.67-0.4c-1.06,0-1.95,0.15-2.67,0.44
					c-0.72,0.29-1.26,0.64-1.64,1.04c-0.37,0.4-0.65,1.01-0.84,1.83s-0.29,1.51-0.32,2.07c-0.03,0.56-0.04,1.42-0.04,2.59v3.59h8.13
					V946.75z"/>
				<path class="st2" d="M829.96,947.59c3.45-4.17,8.21-6.26,14.27-6.26s10.81,2.09,14.27,6.26c3.45,4.17,5.18,9.34,5.18,15.5
					c0,6.22-1.73,11.39-5.18,15.5c-3.45,4.12-8.21,6.18-14.27,6.18s-10.81-2.06-14.27-6.18c-3.46-4.12-5.18-9.29-5.18-15.5
					C824.77,956.93,826.5,951.76,829.96,947.59z M854.82,950.78c-2.55-3.48-6.08-5.22-10.6-5.22s-8.05,1.74-10.6,5.22
					c-2.55,3.48-3.83,7.59-3.83,12.32c0,4.73,1.27,8.83,3.83,12.32c2.55,3.48,6.08,5.22,10.6,5.22s8.05-1.74,10.6-5.22
					c2.55-3.48,3.83-7.59,3.83-12.32C858.65,958.37,857.38,954.26,854.82,950.78z"/>
				<path class="st2" d="M871.17,942.53h4.62v9.64h0.16c1.27-3.4,3.27-5.99,5.98-7.77c2.71-1.78,5.9-2.59,9.57-2.43v5.02
					c-4.46-0.21-8.13,1.1-11,3.95c-2.87,2.84-4.3,6.44-4.3,10.8v21.92h-5.02V942.53z"/>
				<path class="st2" d="M896.28,942.53h4.62v6.93h0.24c2.82-5.42,7.31-8.13,13.47-8.13c2.81,0,5.3,0.69,7.45,2.07
					c2.15,1.38,3.6,3.38,4.34,5.98c1.17-2.6,2.94-4.6,5.3-5.98c2.37-1.38,4.96-2.07,7.77-2.07c9.09,0,13.63,4.81,13.63,14.43v27.9
					h-5.02V956c0-3.51-0.74-6.13-2.23-7.85c-1.49-1.73-3.98-2.59-7.49-2.59c-7.44,0-11.16,4.94-11.16,14.83v23.27h-5.02v-27.9
					c0-6.8-2.87-10.2-8.61-10.2c-4.09,0-7.16,1.38-9.21,4.14c-2.05,2.76-3.07,6.43-3.07,11v22.96h-5.02V942.53z"/>
			</g>
		</g>
		<g>
			<g>
				<path class="st2" d="M107.35,718.26h78.64c12.8,0,23.11,3.88,30.94,11.64c7.83,7.76,11.74,17.29,11.74,28.6
					c0,18.25-7.69,30.43-23.08,36.56v0.41c12.8,3.54,19.88,14.91,21.24,34.11c0,0.82,0.1,2.86,0.31,6.13
					c0.21,3.27,0.37,5.89,0.51,7.86c0.13,1.98,0.41,4.43,0.82,7.35c0.41,2.93,0.99,5.48,1.74,7.66c0.75,2.18,1.67,4.02,2.76,5.51
					H200.9c-1.09-2.72-1.91-6.03-2.45-9.91c-0.55-3.88-1.02-8.41-1.43-13.58c-0.41-5.17-0.82-8.99-1.22-11.44
					c-1.09-7.9-3.44-13.55-7.05-16.95c-3.61-3.4-9.36-5.11-17.26-5.11h-32.07v56.99h-32.07V718.26z M139.42,784.23h35.13
					c7.49,0,13.04-1.67,16.65-5c3.61-3.33,5.41-8.61,5.41-15.83c0-13.48-7.35-20.22-22.06-20.22h-35.13V784.23z"/>
				<path class="st2" d="M275.65,818.35c0.41,9.26,2.76,16.03,7.05,20.32c4.29,4.29,10.59,6.43,18.89,6.43
					c5.58,0,10.55-1.39,14.91-4.19c4.36-2.79,7.01-5.96,7.97-9.5H350c-7.63,23.56-24.1,35.34-49.43,35.34
					c-16.48,0-29.59-5.07-39.32-15.22c-9.74-10.14-14.61-23.52-14.61-40.14c0-16.07,5.01-29.38,15.01-39.93
					c10.01-10.55,22.98-15.83,38.91-15.83c17.16,0,30.3,6.13,39.42,18.38c9.12,12.26,13.07,27.03,11.85,44.32H275.65z
					 M322.84,799.96c-1.36-7.62-3.85-13.28-7.45-16.95c-3.61-3.68-8.82-5.51-15.63-5.51c-8.31,0-14.3,2.35-17.97,7.05
					s-5.72,9.84-6.13,15.42H322.84z"/>
				<path class="st2" d="M369,758.5h27.57v14.71h0.61c7.08-11.71,17.84-17.57,32.27-17.57c14.57,0,24.64,3.68,30.23,11.03
					c5.58,7.35,8.38,18.18,8.38,32.48v64.95h-29.01v-59.64c0-8.99-1.4-15.55-4.19-19.71c-2.79-4.15-7.59-6.23-14.4-6.23
					c-7.9,0-13.62,2.38-17.16,7.15c-3.54,4.77-5.31,12.46-5.31,23.08v55.35h-29V758.5z"/>
			</g>
		</g>
		<rect x="506.27" y="754.27" class="st2" width="5.5" height="112.46"/>
		<g>
			<g>
				<path class="st2" d="M582.18,828.51c0,5.86,2.18,10.28,6.54,13.28c4.36,3,9.6,4.49,15.73,4.49c4.9,0,9.29-1.09,13.17-3.27
					c3.88-2.18,5.82-5.58,5.82-10.21c0-4.09-2.52-7.22-7.56-9.4c-5.04-2.18-13.48-4.49-25.33-6.95c-5.04-1.09-9.23-2.25-12.56-3.47
					c-3.34-1.23-6.78-2.89-10.31-5.01c-3.54-2.11-6.2-4.8-7.97-8.07c-1.77-3.27-2.66-7.15-2.66-11.64c0-6.4,1.29-11.91,3.88-16.55
					c2.59-4.63,6.16-8.17,10.72-10.62c4.56-2.45,9.4-4.19,14.5-5.21c5.11-1.02,10.72-1.53,16.85-1.53c12.94,0,23.66,2.62,32.17,7.86
					c8.51,5.24,13.31,13.86,14.4,25.84h-27.57c-0.68-9.53-7.29-14.3-19.81-14.3c-10.76,0-16.14,3.27-16.14,9.8
					c0,1.5,0.31,2.83,0.92,3.98c0.61,1.16,1.56,2.18,2.86,3.07c1.29,0.89,2.62,1.64,3.98,2.25c1.36,0.61,3.17,1.23,5.41,1.84
					c2.25,0.61,4.22,1.12,5.92,1.53c1.7,0.41,3.98,0.92,6.84,1.53c2.86,0.61,5.17,1.12,6.94,1.53c10.48,2.45,18.69,5.79,24.61,10.01
					c5.92,4.22,8.88,10.76,8.88,19.61c0,6.67-1.36,12.49-4.08,17.46c-2.73,4.97-6.44,8.78-11.13,11.44
					c-4.7,2.65-9.77,4.6-15.22,5.82c-5.45,1.23-11.37,1.84-17.77,1.84c-8.85,0-16.75-1.06-23.69-3.17
					c-6.94-2.11-12.94-6.06-17.97-11.85c-5.04-5.79-7.7-13.1-7.97-21.96H582.18z"/>
				<path class="st2" d="M693.3,817.08c0.41,9.26,2.76,16.03,7.05,20.32c4.29,4.29,10.59,6.43,18.89,6.43
					c5.58,0,10.55-1.39,14.91-4.19c4.36-2.79,7.01-5.96,7.97-9.5h25.53c-7.63,23.56-24.1,35.34-49.43,35.34
					c-16.48,0-29.59-5.07-39.32-15.22c-9.74-10.14-14.61-23.52-14.61-40.14c0-16.07,5.01-29.38,15.01-39.93
					c10.01-10.55,22.98-15.83,38.91-15.83c17.16,0,30.3,6.13,39.42,18.38c9.12,12.26,13.07,27.03,11.85,44.32H693.3z M740.48,798.69
					c-1.36-7.62-3.85-13.28-7.45-16.95c-3.61-3.68-8.82-5.51-15.63-5.51c-8.31,0-14.3,2.35-17.97,7.05s-5.72,9.84-6.13,15.42H740.48
					z"/>
				<path class="st2" d="M798.18,850.47c-9.87-10.01-14.81-23.45-14.81-40.34c0-16.88,4.97-30.4,14.91-40.55
					c9.94-10.14,23.15-15.22,39.63-15.22c16.61,0,29.89,5.07,39.83,15.22c9.94,10.15,14.91,23.66,14.91,40.55
					c0,16.89-4.97,30.33-14.91,40.34c-9.94,10.01-23.22,15.01-39.83,15.01C821.3,865.48,808.05,860.48,798.18,850.47z M818.4,785.93
					c-4.02,6.47-6.03,14.54-6.03,24.21c0,9.67,2.01,17.7,6.03,24.1c4.02,6.4,10.52,9.6,19.51,9.6c9.12,0,15.69-3.2,19.71-9.6
					c4.02-6.4,6.03-14.43,6.03-24.1c0-9.67-2.01-17.74-6.03-24.21c-4.02-6.47-10.59-9.7-19.71-9.7
					C828.92,776.23,822.42,779.46,818.4,785.93z"/>
			</g>
		</g>
	</g>
</g>
</svg>
