<?xml version="1.0" encoding="utf-8"?>
<!-- Generator: Adobe Illustrator 24.2.1, SVG Export Plug-In . SVG Version: 6.00 Build 0)  -->
<svg version="1.1" id="Layer_1" xmlns="http://www.w3.org/2000/svg" xmlns:xlink="http://www.w3.org/1999/xlink" x="0px" y="0px"
	 viewBox="0 0 1000 387" style="enable-background:new 0 0 1000 387;" xml:space="preserve">
<style type="text/css">
	.st0{fill:url(#SVGID_1_);}
	.st1{fill:url(#SVGID_2_);}
	.st2{fill:#262F3D;}
	.st3{fill:none;stroke:#231F20;stroke-width:1.5;stroke-miterlimit:10;}
</style>
<g>
	<g>
		<linearGradient id="SVGID_1_" gradientUnits="userSpaceOnUse" x1="2.4145" y1="113.7126" x2="339.1642" y2="113.7126">
			<stop  offset="0" style="stop-color:#007AFF"/>
			<stop  offset="0.1232" style="stop-color:#0580F6"/>
			<stop  offset="0.3285" style="stop-color:#118FDC"/>
			<stop  offset="0.5907" style="stop-color:#26A9B2"/>
			<stop  offset="0.8965" style="stop-color:#42CC79"/>
			<stop  offset="1" style="stop-color:#4CD964"/>
		</linearGradient>
		<path class="st0" d="M2.41,0.2l223.24,0c62.69,0,113.51,50.82,113.51,113.51v0c0,62.69-50.82,113.51-113.51,113.51h0
			c-12.15,0-23.8-4.84-32.36-13.45l-61.98-62.28h94.38c20.88,0,37.81-16.93,37.81-37.81v0c0-20.88-16.93-37.81-37.81-37.81H93.98
			c-11.27,0-22.07-4.55-29.95-12.61L2.41,0.2z"/>
		<linearGradient id="SVGID_2_" gradientUnits="userSpaceOnUse" x1="2.4145" y1="264.0974" x2="323.7559" y2="264.0974">
			<stop  offset="0" style="stop-color:#007AFF"/>
			<stop  offset="0.1232" style="stop-color:#0580F6"/>
			<stop  offset="0.3285" style="stop-color:#118FDC"/>
			<stop  offset="0.5907" style="stop-color:#26A9B2"/>
			<stop  offset="0.8965" style="stop-color:#42CC79"/>
			<stop  offset="1" style="stop-color:#4CD964"/>
		</linearGradient>
		<path class="st1" d="M2.41,151.79h104.77l216.57,224.62h-82.39c-13.74,0-26.89-5.57-36.44-15.44L2.41,151.79z"/>
	</g>
	<g>
		<g>
			<path class="st2" d="M364.46,189.43h55.15c8.97,0,16.21,2.72,21.7,8.16c5.49,5.44,8.24,12.13,8.24,20.05
				c0,12.8-5.4,21.34-16.19,25.64v0.29c8.97,2.48,13.94,10.46,14.9,23.92c0,0.57,0.07,2.01,0.21,4.3c0.14,2.29,0.26,4.13,0.36,5.51
				c0.09,1.39,0.29,3.11,0.57,5.16c0.29,2.05,0.69,3.85,1.22,5.37c0.52,1.53,1.17,2.82,1.93,3.87h-22.49
				c-0.77-1.91-1.34-4.23-1.72-6.95c-0.38-2.72-0.72-5.9-1-9.52c-0.29-3.63-0.57-6.3-0.86-8.02c-0.77-5.54-2.41-9.5-4.94-11.89
				c-2.53-2.39-6.57-3.58-12.1-3.58h-22.49v39.96h-22.49V189.43z M386.94,235.69h24.64c5.25,0,9.14-1.17,11.67-3.51
				c2.53-2.34,3.8-6.04,3.8-11.1c0-9.45-5.16-14.18-15.47-14.18h-24.64V235.69z"/>
			<path class="st2" d="M482.48,259.61c0.29,6.5,1.93,11.24,4.94,14.25c3.01,3.01,7.42,4.51,13.25,4.51c3.91,0,7.4-0.98,10.46-2.94
				c3.05-1.96,4.92-4.18,5.59-6.66h17.9c-5.35,16.52-16.9,24.78-34.66,24.78c-11.56,0-20.75-3.56-27.57-10.67
				c-6.83-7.11-10.24-16.5-10.24-28.15c0-11.27,3.51-20.6,10.53-28c7.02-7.4,16.11-11.1,27.29-11.1c12.03,0,21.25,4.3,27.65,12.89
				c6.4,8.59,9.17,18.96,8.31,31.08H482.48z M515.57,246.72c-0.96-5.35-2.7-9.31-5.23-11.89c-2.53-2.58-6.18-3.87-10.96-3.87
				c-5.83,0-10.03,1.65-12.61,4.94c-2.58,3.29-4.01,6.9-4.3,10.81H515.57z"/>
			<path class="st2" d="M547.94,217.65h19.34v10.31h0.43c4.96-8.21,12.51-12.32,22.63-12.32c10.22,0,17.28,2.58,21.2,7.73
				c3.92,5.16,5.87,12.75,5.87,22.78v45.55h-20.34v-41.83c0-6.3-0.98-10.91-2.94-13.82c-1.96-2.91-5.32-4.37-10.1-4.37
				c-5.54,0-9.55,1.67-12.03,5.01c-2.48,3.34-3.72,8.74-3.72,16.19v38.82h-20.34V217.65z"/>
		</g>
	</g>
	<g>
		<g>
			<path class="st2" d="M362.09,335.63h13.81c12.22,0.3,18.34,6.95,18.34,19.96s-6.11,19.66-18.34,19.96h-13.81V335.63z
				 M365.89,372.3H374c5.78,0,9.96-1.3,12.55-3.91c2.59-2.61,3.89-6.88,3.89-12.8c0-5.93-1.3-10.19-3.89-12.8
				c-2.59-2.61-6.77-3.91-12.55-3.91h-8.11V372.3z"/>
			<path class="st2" d="M399.77,335.63h3.52v5.65h-3.52V335.63z M399.77,346.7h3.52v28.84h-3.52V346.7z"/>
			<path class="st2" d="M434.42,373.19c0,4.47-1.01,7.89-3.02,10.26c-2.01,2.37-5.27,3.55-9.78,3.55c-3.17,0-5.9-0.73-8.19-2.21
				c-2.29-1.47-3.55-3.64-3.77-6.51h3.52c0.34,1.98,1.29,3.43,2.85,4.36c1.57,0.93,3.43,1.4,5.59,1.4c6.19,0,9.28-3.62,9.28-10.84
				v-3.91h-0.11c-0.82,1.83-2.03,3.27-3.63,4.33c-1.6,1.06-3.45,1.59-5.53,1.59c-4.4,0-7.67-1.36-9.81-4.08s-3.21-6.3-3.21-10.73
				c0-4.14,1.17-7.59,3.49-10.37c2.33-2.78,5.51-4.16,9.53-4.16c2.05,0,3.91,0.56,5.59,1.68c1.68,1.12,2.87,2.5,3.58,4.14h0.11
				v-4.98h3.52V373.19z M421.62,372.24c2.91,0,5.18-1.13,6.82-3.38c1.64-2.25,2.46-4.95,2.46-8.08c0-3.2-0.77-6-2.32-8.38
				c-1.55-2.39-3.87-3.58-6.96-3.58c-3.13,0-5.5,1.17-7.1,3.49c-1.6,2.33-2.4,5.15-2.4,8.47c0,3.17,0.81,5.87,2.43,8.11
				C416.17,371.13,418.53,372.24,421.62,372.24z"/>
			<path class="st2" d="M441.19,335.63h3.52v5.65h-3.52V335.63z M441.19,346.7h3.52v28.84h-3.52V346.7z"/>
			<path class="st2" d="M457.06,346.7h5.87v2.96h-5.87v19.45c0,1.27,0.19,2.2,0.56,2.8c0.37,0.6,1.13,0.93,2.29,1.01
				c1.01,0,2.01-0.06,3.02-0.17v2.96c-0.33,0-0.86,0.02-1.57,0.06c-0.71,0.04-1.23,0.06-1.57,0.06c-2.39,0-4.03-0.47-4.95-1.4
				c-0.91-0.93-1.35-2.61-1.31-5.03v-19.73h-5.03v-2.96h5.03v-8.66h3.52V346.7z"/>
			<path class="st2" d="M467.68,355.53c0.22-3.28,1.36-5.71,3.41-7.3c2.05-1.58,4.81-2.38,8.27-2.38c7.08,0,10.62,3.09,10.62,9.28
				v15.32c0,1.42,0.69,2.12,2.07,2.12c0.45,0,0.82-0.07,1.12-0.22v2.96c-0.75,0.15-1.51,0.22-2.29,0.22c-1.64,0-2.74-0.42-3.3-1.26
				c-0.56-0.84-0.84-2.1-0.84-3.77h-0.11c-1.38,2.05-2.81,3.53-4.3,4.44c-1.49,0.91-3.56,1.37-6.21,1.37c-2.87,0-5.2-0.7-6.99-2.1
				c-1.79-1.4-2.68-3.49-2.68-6.29c0-1.04,0.15-1.99,0.45-2.82c0.3-0.84,0.64-1.55,1.03-2.12c0.39-0.58,1.01-1.1,1.84-1.57
				c0.84-0.47,1.56-0.82,2.15-1.06c0.6-0.24,1.5-0.48,2.71-0.7c1.21-0.22,2.13-0.38,2.77-0.48c0.63-0.09,1.66-0.21,3.08-0.36
				c0.63-0.08,1.12-0.13,1.45-0.17c1.64-0.15,2.8-0.47,3.49-0.95c0.69-0.48,1.03-1.47,1.03-2.96c0-2.2-0.67-3.73-2.01-4.61
				c-1.34-0.87-3.19-1.31-5.53-1.31s-4.2,0.55-5.56,1.65c-1.36,1.1-2.08,2.79-2.15,5.06H467.68z M486.46,359.78h-0.11
				c-0.3,0.56-1.29,0.99-2.96,1.29c-0.63,0.11-1.64,0.27-3.02,0.48c-1.38,0.21-2.44,0.37-3.19,0.5c-0.75,0.13-1.65,0.35-2.71,0.67
				c-1.06,0.32-1.86,0.66-2.4,1.03c-0.54,0.37-1.02,0.9-1.45,1.59c-0.43,0.69-0.64,1.48-0.64,2.38c0,1.71,0.63,3.09,1.9,4.14
				c1.27,1.04,2.78,1.57,4.53,1.57c2.83,0,5.22-0.83,7.16-2.49c1.94-1.66,2.91-3.85,2.91-6.57V359.78z"/>
			<path class="st2" d="M497.08,335.63h3.52v39.91h-3.52V335.63z"/>
			<path class="st2" d="M535.26,335.63h4.25l15.65,39.91h-4.08l-4.86-12.41h-18.17l-4.81,12.41h-4.02L535.26,335.63z M529.23,359.89
				h15.71l-7.71-20.46L529.23,359.89z"/>
			<path class="st2" d="M583.5,375.54h-3.24v-5.48h-0.11c-0.75,1.86-2.11,3.37-4.08,4.53c-1.98,1.16-4.04,1.73-6.2,1.73
				c-4.17,0-7.38-1.43-9.62-4.3c-2.23-2.87-3.35-6.5-3.35-10.9c0-4.36,1.12-7.99,3.35-10.9c2.24-2.91,5.44-4.36,9.62-4.36
				c2.24,0,4.29,0.55,6.15,1.65c1.86,1.1,3.15,2.65,3.86,4.67h0.11v-16.55h3.52V375.54z M561.34,355.25
				c-0.62,1.79-0.92,3.74-0.92,5.87c0,2.12,0.31,4.08,0.92,5.87c0.61,1.79,1.66,3.31,3.13,4.55c1.47,1.25,3.27,1.87,5.39,1.87
				c3.43,0,5.97-1.2,7.63-3.61c1.66-2.4,2.49-5.3,2.49-8.69c0-3.39-0.83-6.29-2.49-8.69c-1.66-2.4-4.2-3.6-7.63-3.6
				c-2.12,0-3.92,0.62-5.39,1.87C563,351.94,561.95,353.46,561.34,355.25z"/>
			<path class="st2" d="M586.97,346.7h3.91l9.06,25.32h0.11l8.94-25.32h3.63l-10.79,28.84h-3.74L586.97,346.7z"/>
			<path class="st2" d="M618.16,362.07c0,2.94,0.81,5.57,2.43,7.88c1.62,2.31,3.98,3.47,7.07,3.47c4.81,0,7.83-2.46,9.05-7.38h3.52
				c-1.57,6.86-5.76,10.28-12.58,10.28c-4.36,0-7.62-1.42-9.78-4.28s-3.24-6.49-3.24-10.93c0-2.68,0.43-5.13,1.29-7.35
				c0.86-2.22,2.3-4.09,4.33-5.62c2.03-1.53,4.5-2.29,7.41-2.29c2.94,0,5.41,0.8,7.41,2.4c1.99,1.6,3.4,3.6,4.22,5.98
				c0.82,2.39,1.17,4.99,1.06,7.83H618.16z M636.83,359.11c-0.08-2.8-0.95-5.21-2.63-7.24c-1.68-2.03-3.86-3.04-6.54-3.04
				c-2.72,0-4.9,1-6.54,2.99c-1.64,1.99-2.63,4.43-2.96,7.3H636.83z"/>
			<path class="st2" d="M645.1,346.7h3.24v6.76h0.11c0.89-2.38,2.29-4.2,4.19-5.45c1.9-1.25,4.14-1.82,6.71-1.7v3.52
				c-3.13-0.15-5.7,0.77-7.72,2.77c-2.01,1.99-3.02,4.52-3.02,7.57v15.37h-3.52V346.7z"/>
			<path class="st2" d="M668.3,346.7h5.87v2.96h-5.87v19.45c0,1.27,0.19,2.2,0.56,2.8c0.37,0.6,1.14,0.93,2.29,1.01
				c1.01,0,2.01-0.06,3.02-0.17v2.96c-0.33,0-0.86,0.02-1.57,0.06c-0.71,0.04-1.23,0.06-1.57,0.06c-2.39,0-4.03-0.47-4.95-1.4
				c-0.91-0.93-1.35-2.61-1.31-5.03v-19.73h-5.03v-2.96h5.03v-8.66h3.52V346.7z"/>
			<path class="st2" d="M679.31,335.63h3.52v5.65h-3.52V335.63z M679.31,346.7h3.52v28.84h-3.52V346.7z"/>
			<path class="st2" d="M706.87,355.14c-0.08-2.09-0.82-3.66-2.24-4.72c-1.42-1.06-3.19-1.59-5.31-1.59c-1.83,0-3.42,0.4-4.78,1.2
				c-1.36,0.8-2.04,2.06-2.04,3.77c0,2.24,1.99,3.86,5.98,4.86l4.7,1.06c2.31,0.33,4.26,1.17,5.84,2.52
				c1.58,1.34,2.38,3.17,2.38,5.48c0,2.91-1.16,5.07-3.47,6.49c-2.31,1.41-5.01,2.12-8.11,2.12c-7.3,0-11.25-3.37-11.85-10.12h3.52
				c0.15,2.31,1,4.09,2.54,5.34c1.55,1.25,3.53,1.87,5.95,1.87c2.01,0,3.83-0.46,5.45-1.37c1.62-0.91,2.43-2.28,2.43-4.11
				c0-1.53-0.55-2.66-1.65-3.41c-1.1-0.74-2.65-1.36-4.67-1.84l-4.53-1.01c-2.65-0.67-4.65-1.57-6.01-2.68
				c-1.36-1.12-2.04-2.8-2.04-5.03c0-2.72,1.08-4.75,3.24-6.09c2.16-1.34,4.7-2.01,7.6-2.01c3.02,0,5.5,0.79,7.43,2.38
				c1.94,1.58,2.98,3.89,3.13,6.9H706.87z"/>
			<path class="st2" d="M716.54,335.63h3.52v5.65h-3.52V335.63z M716.54,346.7h3.52v28.84h-3.52V346.7z"/>
			<path class="st2" d="M726.76,346.7h3.52v4.98h0.11c0.67-1.75,1.86-3.16,3.58-4.22c1.71-1.06,3.6-1.59,5.64-1.59
				c3.88,0,6.61,0.94,8.19,2.82c1.58,1.88,2.38,4.65,2.38,8.3v18.56h-3.52v-18c0-5.81-2.44-8.72-7.32-8.72
				c-2.72,0-4.89,0.92-6.51,2.77c-1.62,1.84-2.47,4.22-2.54,7.13v16.83h-3.52V346.7z"/>
			<path class="st2" d="M781.21,373.19c0,4.47-1.01,7.89-3.02,10.26c-2.01,2.37-5.27,3.55-9.78,3.55c-3.17,0-5.9-0.73-8.19-2.21
				c-2.29-1.47-3.55-3.64-3.77-6.51h3.52c0.34,1.98,1.29,3.43,2.85,4.36c1.57,0.93,3.43,1.4,5.59,1.4c6.19,0,9.28-3.62,9.28-10.84
				v-3.91h-0.11c-0.82,1.83-2.03,3.27-3.63,4.33c-1.6,1.06-3.45,1.59-5.53,1.59c-4.4,0-7.67-1.36-9.81-4.08s-3.21-6.3-3.21-10.73
				c0-4.14,1.17-7.59,3.49-10.37c2.33-2.78,5.51-4.16,9.53-4.16c2.05,0,3.91,0.56,5.59,1.68c1.68,1.12,2.87,2.5,3.58,4.14h0.11
				v-4.98h3.52V373.19z M768.41,372.24c2.91,0,5.18-1.13,6.82-3.38c1.64-2.25,2.46-4.95,2.46-8.08c0-3.2-0.77-6-2.32-8.38
				c-1.55-2.39-3.87-3.58-6.96-3.58c-3.13,0-5.5,1.17-7.1,3.49c-1.6,2.33-2.4,5.15-2.4,8.47c0,3.17,0.81,5.87,2.43,8.11
				C762.96,371.13,765.31,372.24,768.41,372.24z"/>
			<path class="st2" d="M804.13,335.63h17.72c3.61,0,6.49,1.01,8.64,3.02c2.14,2.01,3.21,4.81,3.21,8.38c0,3.58-1.07,6.37-3.21,8.38
				c-2.14,2.01-5.02,3.02-8.64,3.02h-13.92v17.1h-3.8V335.63z M807.93,355.19h13.08c2.76,0,4.93-0.69,6.51-2.07
				c1.58-1.38,2.38-3.41,2.38-6.09c0-2.68-0.79-4.71-2.38-6.09c-1.59-1.38-3.75-2.07-6.51-2.07h-13.08V355.19z"/>
			<path class="st2" d="M838.73,335.63h3.52v39.91h-3.52V335.63z"/>
			<path class="st2" d="M848.67,355.53c0.22-3.28,1.36-5.71,3.41-7.3s4.81-2.38,8.27-2.38c7.08,0,10.62,3.09,10.62,9.28v15.32
				c0,1.42,0.69,2.12,2.07,2.12c0.45,0,0.82-0.07,1.12-0.22v2.96c-0.75,0.15-1.51,0.22-2.29,0.22c-1.64,0-2.74-0.42-3.3-1.26
				c-0.56-0.84-0.84-2.1-0.84-3.77h-0.11c-1.38,2.05-2.81,3.53-4.3,4.44c-1.49,0.91-3.56,1.37-6.21,1.37c-2.87,0-5.2-0.7-6.99-2.1
				c-1.79-1.4-2.68-3.49-2.68-6.29c0-1.04,0.15-1.99,0.45-2.82c0.3-0.84,0.64-1.55,1.03-2.12c0.39-0.58,1.01-1.1,1.84-1.57
				c0.84-0.47,1.56-0.82,2.15-1.06c0.6-0.24,1.5-0.48,2.71-0.7c1.21-0.22,2.13-0.38,2.77-0.48c0.63-0.09,1.66-0.21,3.08-0.36
				c0.63-0.08,1.12-0.13,1.45-0.17c1.64-0.15,2.8-0.47,3.49-0.95c0.69-0.48,1.03-1.47,1.03-2.96c0-2.2-0.67-3.73-2.01-4.61
				c-1.34-0.87-3.19-1.31-5.53-1.31s-4.2,0.55-5.56,1.65c-1.36,1.1-2.08,2.79-2.15,5.06H848.67z M867.46,359.78h-0.11
				c-0.3,0.56-1.29,0.99-2.96,1.29c-0.63,0.11-1.64,0.27-3.02,0.48c-1.38,0.21-2.44,0.37-3.19,0.5c-0.75,0.13-1.65,0.35-2.71,0.67
				c-1.06,0.32-1.86,0.66-2.4,1.03c-0.54,0.37-1.02,0.9-1.45,1.59c-0.43,0.69-0.64,1.48-0.64,2.38c0,1.71,0.63,3.09,1.9,4.14
				c1.27,1.04,2.78,1.57,4.53,1.57c2.83,0,5.22-0.83,7.16-2.49c1.94-1.66,2.91-3.85,2.91-6.57V359.78z"/>
			<path class="st2" d="M883.61,346.7h5.87v2.96h-5.87v19.45c0,1.27,0.19,2.2,0.56,2.8c0.37,0.6,1.14,0.93,2.29,1.01
				c1.01,0,2.01-0.06,3.02-0.17v2.96c-0.33,0-0.86,0.02-1.57,0.06c-0.71,0.04-1.23,0.06-1.57,0.06c-2.39,0-4.03-0.47-4.95-1.4
				c-0.91-0.93-1.35-2.61-1.31-5.03v-19.73h-5.03v-2.96h5.03v-8.66h3.52V346.7z"/>
			<path class="st2" d="M905.69,349.66h-5.7v25.88h-3.52v-25.88h-4.92v-2.96h4.92v-2.63c0-2.76,0.5-4.85,1.51-6.29
				c1.01-1.43,2.83-2.15,5.48-2.15c0.97,0,1.96,0.08,2.96,0.22v3.02c-1.04-0.19-1.9-0.28-2.57-0.28c-0.75,0-1.37,0.1-1.87,0.31
				c-0.5,0.21-0.89,0.45-1.15,0.73c-0.26,0.28-0.46,0.71-0.59,1.29c-0.13,0.58-0.21,1.06-0.22,1.45c-0.02,0.39-0.03,1-0.03,1.82
				v2.52h5.7V349.66z"/>
			<path class="st2" d="M911.22,350.25c2.42-2.92,5.76-4.39,10.01-4.39s7.58,1.46,10.01,4.39c2.42,2.93,3.63,6.55,3.63,10.87
				c0,4.36-1.21,7.98-3.63,10.87c-2.42,2.89-5.76,4.33-10.01,4.33s-7.58-1.44-10.01-4.33c-2.42-2.89-3.63-6.51-3.63-10.87
				C907.59,356.8,908.8,353.17,911.22,350.25z M928.66,352.48c-1.79-2.44-4.27-3.66-7.43-3.66s-5.65,1.22-7.43,3.66
				c-1.79,2.44-2.68,5.32-2.68,8.64c0,3.32,0.89,6.2,2.68,8.64c1.79,2.44,4.27,3.66,7.43,3.66s5.65-1.22,7.43-3.66
				c1.79-2.44,2.68-5.32,2.68-8.64C931.35,357.8,930.45,354.92,928.66,352.48z"/>
			<path class="st2" d="M940.12,346.7h3.24v6.76h0.11c0.89-2.38,2.29-4.2,4.19-5.45c1.9-1.25,4.14-1.82,6.71-1.7v3.52
				c-3.13-0.15-5.7,0.77-7.72,2.77c-2.01,1.99-3.02,4.52-3.02,7.57v15.37h-3.52V346.7z"/>
			<path class="st2" d="M957.73,346.7h3.24v4.86h0.17c1.98-3.8,5.12-5.7,9.45-5.7c1.97,0,3.72,0.48,5.23,1.45
				c1.51,0.97,2.52,2.37,3.05,4.19c0.82-1.82,2.06-3.22,3.72-4.19c1.66-0.97,3.48-1.45,5.45-1.45c6.37,0,9.56,3.37,9.56,10.12v19.56
				h-3.52v-19.4c0-2.46-0.52-4.3-1.57-5.51c-1.04-1.21-2.79-1.82-5.25-1.82c-5.22,0-7.83,3.47-7.83,10.4v16.32h-3.52v-19.56
				c0-4.77-2.01-7.15-6.04-7.15c-2.87,0-5.02,0.97-6.46,2.91c-1.43,1.94-2.15,4.51-2.15,7.71v16.1h-3.52V346.7z"/>
		</g>
	</g>
	<line class="st3" x1="646.13" y1="214.68" x2="646.13" y2="293.55"/>
	<g>
		<g>
			<path class="st2" d="M697.44,266.74c0,4.11,1.53,7.21,4.58,9.31c3.06,2.1,6.73,3.15,11.03,3.15c3.44,0,6.52-0.76,9.24-2.29
				c2.72-1.53,4.08-3.91,4.08-7.16c0-2.87-1.77-5.06-5.3-6.59c-3.53-1.53-9.45-3.15-17.76-4.87c-3.53-0.76-6.47-1.58-8.81-2.43
				c-2.34-0.86-4.75-2.03-7.23-3.51c-2.48-1.48-4.35-3.37-5.59-5.66c-1.24-2.29-1.86-5.01-1.86-8.16c0-4.49,0.91-8.35,2.72-11.6
				c1.81-3.25,4.32-5.73,7.52-7.45c3.2-1.72,6.59-2.94,10.17-3.65c3.58-0.72,7.52-1.07,11.82-1.07c9.07,0,16.59,1.84,22.56,5.51
				c5.97,3.68,9.33,9.72,10.1,18.12h-19.34c-0.48-6.68-5.11-10.03-13.89-10.03c-7.54,0-11.32,2.29-11.32,6.88
				c0,1.05,0.21,1.98,0.64,2.79c0.43,0.81,1.1,1.53,2.01,2.15c0.91,0.62,1.84,1.15,2.79,1.58c0.95,0.43,2.22,0.86,3.8,1.29
				c1.58,0.43,2.96,0.79,4.15,1.07c1.19,0.29,2.79,0.64,4.8,1.07c2.01,0.43,3.63,0.79,4.87,1.07c7.35,1.72,13.11,4.06,17.26,7.02
				c4.15,2.96,6.23,7.54,6.23,13.75c0,4.68-0.96,8.76-2.86,12.25c-1.91,3.49-4.51,6.16-7.81,8.02c-3.29,1.86-6.85,3.22-10.67,4.08
				c-3.82,0.86-7.97,1.29-12.46,1.29c-6.21,0-11.74-0.74-16.62-2.22c-4.87-1.48-9.07-4.25-12.6-8.31c-3.54-4.06-5.4-9.19-5.59-15.4
				H697.44z"/>
			<path class="st2" d="M775.36,258.72c0.29,6.5,1.93,11.24,4.94,14.25c3.01,3.01,7.42,4.51,13.25,4.51c3.91,0,7.4-0.98,10.46-2.94
				c3.06-1.96,4.92-4.18,5.59-6.66h17.9c-5.35,16.52-16.9,24.78-34.66,24.78c-11.56,0-20.75-3.56-27.57-10.67
				c-6.83-7.11-10.24-16.5-10.24-28.15c0-11.27,3.51-20.6,10.53-28c7.02-7.4,16.11-11.1,27.29-11.1c12.03,0,21.25,4.3,27.65,12.89
				c6.4,8.59,9.17,18.96,8.31,31.08H775.36z M808.45,245.83c-0.96-5.35-2.7-9.31-5.23-11.89c-2.53-2.58-6.18-3.87-10.96-3.87
				c-5.83,0-10.03,1.65-12.61,4.94c-2.58,3.29-4.01,6.9-4.3,10.81H808.45z"/>
			<path class="st2" d="M848.91,282.14c-6.92-7.02-10.38-16.45-10.38-28.29c0-11.84,3.48-21.32,10.46-28.43
				c6.97-7.11,16.23-10.67,27.79-10.67c11.65,0,20.96,3.56,27.93,10.67c6.97,7.11,10.46,16.59,10.46,28.43
				c0,11.84-3.49,21.27-10.46,28.29c-6.97,7.02-16.28,10.53-27.93,10.53C865.12,292.67,855.83,289.16,848.91,282.14z M863.09,236.88
				c-2.82,4.54-4.23,10.19-4.23,16.97c0,6.78,1.41,12.41,4.23,16.9c2.82,4.49,7.38,6.73,13.68,6.73c6.4,0,11-2.24,13.82-6.73
				c2.82-4.49,4.23-10.12,4.23-16.9c0-6.78-1.41-12.44-4.23-16.97c-2.82-4.53-7.43-6.8-13.82-6.8
				C870.47,230.08,865.9,232.34,863.09,236.88z"/>
		</g>
	</g>
</g>
</svg>
