<svg xmlns="http://www.w3.org/2000/svg" width="57.61" height="58.339" viewBox="0 0 57.61 58.339"><g transform="translate(-1314.276 -570.816)"><path d="M1337.1,627.165h-20.166a2.666,2.666,0,0,1-2.663-2.663V604.336a2.666,2.666,0,0,1,2.663-2.663H1337.1a2.666,2.666,0,0,1,2.663,2.663V624.5A2.666,2.666,0,0,1,1337.1,627.165Zm-20.166-24.235a1.408,1.408,0,0,0-1.406,1.406V624.5a1.408,1.408,0,0,0,1.406,1.406H1337.1a1.408,1.408,0,0,0,1.406-1.406V604.336a1.408,1.408,0,0,0-1.406-1.406Z" transform="translate(0 -26.007)" fill="#63748a"/><path d="M1337.1,805.31h-20.166a2.666,2.666,0,0,1-2.663-2.663V782.481a2.666,2.666,0,0,1,2.663-2.663H1337.1a2.666,2.666,0,0,1,2.663,2.663v20.166A2.667,2.667,0,0,1,1337.1,805.31Zm-20.166-24.235a1.408,1.408,0,0,0-1.406,1.406v20.166a1.408,1.408,0,0,0,1.406,1.406H1337.1a1.408,1.408,0,0,0,1.406-1.406V782.481a1.408,1.408,0,0,0-1.406-1.406Z" transform="translate(0 -176.155)" fill="#63748a"/><path d="M1517.873,805.31h-20.166a2.666,2.666,0,0,1-2.663-2.663V782.481a2.666,2.666,0,0,1,2.663-2.663h20.166a2.666,2.666,0,0,1,2.663,2.663v20.166A2.666,2.666,0,0,1,1517.873,805.31Zm-20.166-24.235a1.408,1.408,0,0,0-1.406,1.406v20.166a1.408,1.408,0,0,0,1.406,1.406h20.166a1.408,1.408,0,0,0,1.406-1.406V782.481a1.408,1.408,0,0,0-1.406-1.406Z" transform="translate(-152.359 -176.155)" fill="#63748a"/><rect width="25.492" height="25.492" rx="5" transform="translate(1346.393 570.816)" fill="#63748a"/></g></svg>