<svg xmlns="http://www.w3.org/2000/svg" width="61.651" height="72.86" viewBox="0 0 61.651 72.86"><g transform="translate(-223.22 -138.388)"><path d="M277.521,138.391l-.242,0h-46.5a7.571,7.571,0,0,0-7.562,7.5v60.026a5.338,5.338,0,0,0,5.331,5.331h38.712a5.337,5.337,0,0,0,5.33-5.331V161.45h8.755a3.527,3.527,0,0,0,3.523-3.522v-11.85a7.679,7.679,0,0,0-7.35-7.687Zm-7.773,7.5v60.026a2.488,2.488,0,0,1-2.485,2.485H228.551a2.488,2.488,0,0,1-2.485-2.485V145.95a4.721,4.721,0,0,1,4.716-4.716H271.4a7.487,7.487,0,0,0-1.648,4.657Zm12.277,12.037a.676.676,0,0,1-.676.676h-8.755V145.95a4.713,4.713,0,0,1,4.7-4.716h.146a4.814,4.814,0,0,1,4.582,4.842Zm0,0" transform="translate(0)" fill="#007aff"/><path d="M260.461,165.469H230.308a1.423,1.423,0,0,0,0,2.846h30.153a1.423,1.423,0,0,0,0-2.846Zm0,0" transform="translate(1.945 9.295)" fill="#007aff"/><path d="M260.461,165.469H230.308c-.786,0-1.422,1.321-1.422,2.945s.637,2.948,1.422,2.948h30.153c.786,0,1.422-1.321,1.422-2.948s-.637-2.945-1.422-2.945Zm0,0" transform="translate(1.945 -5.892)" fill="#007aff"/><path d="M260.461,169.961H230.308a1.422,1.422,0,0,0,0,2.845h30.153a1.422,1.422,0,0,0,0-2.845Zm0,0" transform="translate(1.945 10.836)" fill="#007aff"/><path d="M245.962,174.7H230.308a1.423,1.423,0,0,0,0,2.846h15.654a1.423,1.423,0,0,0,0-2.846Zm0,0" transform="translate(1.945 12.464)" fill="#007aff"/><path d="M246.14,185.779a1.423,1.423,0,0,0-1.932-.564.852.852,0,0,1-.966-.1,3.7,3.7,0,0,0-3.7-.694l-2.406.873a.474.474,0,0,1-.465-.161l-.316-.341a3.3,3.3,0,0,0-3.425-.935l-2.81.874a1.423,1.423,0,0,0,.845,2.717l2.81-.874a.471.471,0,0,1,.493.153l.316.341a3.31,3.31,0,0,0,3.4.944c.024-.008.051-.016.075-.026l2.455-.891a.843.843,0,0,1,.848.158,3.708,3.708,0,0,0,4.212.461,1.422,1.422,0,0,0,.563-1.932Zm0,0" transform="translate(2.026 15.552)" fill="#007aff"/><path d="M245.67,185.955a1.423,1.423,0,1,1-1.422-1.422,1.423,1.423,0,0,1,1.422,1.422Zm0,0" transform="translate(6.728 15.838)" fill="#007aff"/></g></svg>