<svg xmlns="http://www.w3.org/2000/svg" width="41.052" height="53.99" viewBox="0 0 41.052 53.99"><g transform="translate(-1425.153 -280.065)"><g transform="translate(829.911 1051.25)"><g transform="translate(595.242 -763.962)"><rect width="31.531" height="45.325" rx="10" transform="translate(0.72 0.721)" fill="none"/><path d="M626.184-669.276H597.273a2.033,2.033,0,0,1-2.031-2.031v-42.7a2.033,2.033,0,0,1,2.031-2.031h28.911a2.033,2.033,0,0,1,2.031,2.031v42.7A2.033,2.033,0,0,1,626.184-669.276ZM597.273-714.6a.59.59,0,0,0-.589.59v42.7a.59.59,0,0,0,.589.59h28.911a.59.59,0,0,0,.59-.59v-42.7a.59.59,0,0,0-.59-.59Z" transform="translate(-595.242 716.042)" fill="#fff"/></g><path d="M678.664-724.389h-2.453a.736.736,0,0,1-.736-.736.736.736,0,0,1,.736-.736h2.453a.6.6,0,0,0,.63-.574v-42.7a.6.6,0,0,0-.63-.574H648.52a.6.6,0,0,0-.63.574v2.229a.736.736,0,0,1-.736.736.736.736,0,0,1-.736-.736v-2.229a2.077,2.077,0,0,1,2.1-2.046h30.144a2.077,2.077,0,0,1,2.1,2.046v42.7A2.077,2.077,0,0,1,678.664-724.389Z" transform="translate(-44.472)" fill="#fff"/></g><rect width="21" height="4" rx="2" transform="translate(1431 295)" fill="#fff"/><rect width="21" height="2" rx="1" transform="translate(1431 316)" fill="#fff"/><rect width="21" height="2" rx="1" transform="translate(1431 309)" fill="#fff"/><rect width="21" height="2" rx="1" transform="translate(1431 323)" fill="#fff"/></g></svg>