<svg xmlns="http://www.w3.org/2000/svg" width="57.577" height="69.445" viewBox="0 0 57.577 69.445"><g transform="translate(-43.819 0.25)"><path d="M98.262,69.687h16.171a1.01,1.01,0,0,0,0-2.02H98.262a1.01,1.01,0,0,0,0,2.02Z" transform="translate(-46.021 -58.555)" fill="#007aff" stroke="#007aff" stroke-width="0.5"/><path d="M98.262,108.923h16.171a1.01,1.01,0,0,0,0-2.02H98.262a1.01,1.01,0,0,0,0,2.02Z" transform="translate(-46.021 -92.508)" fill="#007aff" stroke="#007aff" stroke-width="0.5"/><path d="M131.372,187.583H98.262a1.01,1.01,0,1,0,0,2.02h33.11a1.01,1.01,0,0,0,0-2.02Z" transform="translate(-46.021 -162.323)" fill="#007aff" stroke="#007aff" stroke-width="0.5"/><path d="M132.382,244.946a1.01,1.01,0,0,0-1.01-1.01H98.262a1.01,1.01,0,0,0,0,2.02h33.11A1.01,1.01,0,0,0,132.382,244.946Z" transform="translate(-46.021 -211.088)" fill="#007aff" stroke="#007aff" stroke-width="0.5"/><path d="M128.371,301.3a1.01,1.01,0,0,0-1.01-1.01h-29.1a1.01,1.01,0,0,0,0,2.02h29.1A1.01,1.01,0,0,0,128.371,301.3Z" transform="translate(-46.021 -259.852)" fill="#007aff" stroke="#007aff" stroke-width="0.5"/><path d="M98.262,356.64a1.01,1.01,0,1,0,0,2.02h18.293a1.01,1.01,0,1,0,0-2.02Z" transform="translate(-46.021 -308.615)" fill="#007aff" stroke="#007aff" stroke-width="0.5"/><path d="M320.324,357.417a6.977,6.977,0,1,0,6.977,6.977A6.985,6.985,0,0,0,320.324,357.417Zm0,11.933a4.957,4.957,0,1,1,4.957-4.957A4.962,4.962,0,0,1,320.324,369.35Z" transform="translate(-233.017 -309.288)" fill="#007aff" stroke="#007aff" stroke-width="0.5"/><path d="M287.478,317.016a.567.567,0,0,1-.536-.386,11.262,11.262,0,0,0-.548-1.322.571.571,0,0,1,.1-.656,2.588,2.588,0,0,0,0-3.656l-.978-.978a2.588,2.588,0,0,0-3.657,0,.57.57,0,0,1-.655.1,11.3,11.3,0,0,0-1.322-.548.567.567,0,0,1-.386-.536,2.588,2.588,0,0,0-2.585-2.585h-1.383a2.588,2.588,0,0,0-2.585,2.585.567.567,0,0,1-.386.536,11.358,11.358,0,0,0-1.322.548.57.57,0,0,1-.656-.1,2.588,2.588,0,0,0-3.657,0l-.978.978a2.589,2.589,0,0,0,0,3.657.57.57,0,0,1,.1.656,11.279,11.279,0,0,0-.547,1.322.568.568,0,0,1-.536.386,2.588,2.588,0,0,0-2.585,2.586v1.383a2.588,2.588,0,0,0,2.585,2.585.567.567,0,0,1,.536.386,11.339,11.339,0,0,0,.548,1.322.57.57,0,0,1-.1.656l-.008.008a2.586,2.586,0,0,0,.008,3.649l.978.978a2.589,2.589,0,0,0,3.657,0,.571.571,0,0,1,.655-.1,11.28,11.28,0,0,0,1.322.548.568.568,0,0,1,.386.536,2.588,2.588,0,0,0,2.585,2.585h1.383a2.588,2.588,0,0,0,2.585-2.585.568.568,0,0,1,.386-.536,11.307,11.307,0,0,0,1.322-.548.571.571,0,0,1,.656.1,2.588,2.588,0,0,0,3.656,0l.978-.978a2.586,2.586,0,0,0,.008-3.648l-.008-.008a.57.57,0,0,1-.1-.655,11.25,11.25,0,0,0,.548-1.322.568.568,0,0,1,.536-.386,2.588,2.588,0,0,0,2.585-2.585V319.6a2.588,2.588,0,0,0-2.585-2.586Zm.566,3.968a.566.566,0,0,1-.566.566,2.588,2.588,0,0,0-2.447,1.753,9.3,9.3,0,0,1-.449,1.085,2.59,2.59,0,0,0,.481,2.966l.008.008a.566.566,0,0,1,0,.8l-.978.978a.566.566,0,0,1-.8,0,2.59,2.59,0,0,0-2.974-.489,9.274,9.274,0,0,1-1.085.45,2.587,2.587,0,0,0-1.753,2.447.566.566,0,0,1-.566.566h-1.383a.566.566,0,0,1-.566-.566,2.587,2.587,0,0,0-1.753-2.447,9.29,9.29,0,0,1-1.085-.45,2.591,2.591,0,0,0-2.974.489.566.566,0,0,1-.8,0l-.978-.978a.566.566,0,0,1,0-.8l.008-.008a2.59,2.59,0,0,0,.481-2.966,9.294,9.294,0,0,1-.449-1.085,2.588,2.588,0,0,0-2.447-1.753.566.566,0,0,1-.565-.566V319.6a.566.566,0,0,1,.565-.566,2.588,2.588,0,0,0,2.447-1.753,9.272,9.272,0,0,1,.449-1.084,2.59,2.59,0,0,0-.489-2.974.566.566,0,0,1,0-.8l.978-.978a.566.566,0,0,1,.8,0,2.591,2.591,0,0,0,2.974.489,9.288,9.288,0,0,1,1.085-.45,2.587,2.587,0,0,0,1.753-2.447.566.566,0,0,1,.566-.566h1.383a.566.566,0,0,1,.566.566,2.587,2.587,0,0,0,1.753,2.447,9.305,9.305,0,0,1,1.085.45,2.591,2.591,0,0,0,2.974-.489.566.566,0,0,1,.8,0l.978.978a.566.566,0,0,1,0,.8,2.59,2.59,0,0,0-.489,2.974,9.267,9.267,0,0,1,.45,1.085,2.587,2.587,0,0,0,2.447,1.753.566.566,0,0,1,.566.566v1.383Z" transform="translate(-188.918 -265.187)" fill="#007aff" stroke="#007aff" stroke-width="0.5"/><path d="M72.024,61.281H48.343a2.257,2.257,0,0,1-2.254-2.254V4.274A2.257,2.257,0,0,1,48.343,2.02H77.881V12.939a3.48,3.48,0,0,0,3.476,3.476H92.276V41.037a1.01,1.01,0,1,0,2.02,0V15.405a1.01,1.01,0,0,0-.3-.714L79.605.3a1.01,1.01,0,0,0-.714-.3H48.343a4.279,4.279,0,0,0-4.274,4.274V59.027A4.279,4.279,0,0,0,48.343,63.3H72.024a1.01,1.01,0,1,0,0-2.02ZM79.9,12.939V3.448L90.848,14.4H81.357A1.458,1.458,0,0,1,79.9,12.939Z" transform="translate(0 0)" fill="#007aff" stroke="#007aff" stroke-width="0.5"/></g></svg>