<svg xmlns="http://www.w3.org/2000/svg" width="66.656" height="66.43" viewBox="0 0 66.656 66.43"><g transform="translate(-113.551 -305.776)"><path d="M137.8,354.272a24.248,24.248,0,1,1,24.248-24.248A24.276,24.276,0,0,1,137.8,354.272Zm0-45.353a21.1,21.1,0,1,0,21.1,21.1A21.129,21.129,0,0,0,137.8,308.919Z" fill="#007aff"/><path d="M192.359,411.819a1.568,1.568,0,0,1-.223-.016,24.088,24.088,0,0,1-6.626-1.938,1.572,1.572,0,1,1,1.305-2.859,20.95,20.95,0,0,0,5.762,1.685,1.572,1.572,0,0,1-.219,3.128Zm6.449,0a1.572,1.572,0,0,1-.221-3.128A20.988,20.988,0,0,0,204.346,407a1.572,1.572,0,1,1,1.309,2.858,24.089,24.089,0,0,1-6.622,1.945A1.559,1.559,0,0,1,198.807,411.816Zm-18.074-5.3a1.566,1.566,0,0,1-1.028-.384,24.349,24.349,0,0,1-4.524-5.208,1.572,1.572,0,0,1,2.641-1.7,21.216,21.216,0,0,0,3.941,4.536,1.572,1.572,0,0,1-1.029,2.76Zm29.693-.016a1.571,1.571,0,0,1-1.031-2.759,21.2,21.2,0,0,0,3.935-4.54,1.572,1.572,0,0,1,2.643,1.7,24.338,24.338,0,0,1-4.518,5.213A1.567,1.567,0,0,1,210.426,406.5ZM173.812,395.78a1.572,1.572,0,0,1-1.507-1.128,24.262,24.262,0,0,1-.983-6.829,1.572,1.572,0,0,1,1.57-1.573h0a1.572,1.572,0,0,1,1.572,1.57,21.135,21.135,0,0,0,.855,5.945,1.572,1.572,0,0,1-1.508,2.016Zm43.523-.024a1.573,1.573,0,0,1-1.509-2.014,21.134,21.134,0,0,0,.849-5.945v-.05a1.572,1.572,0,0,1,3.143,0v.05a24.26,24.26,0,0,1-.976,6.829A1.572,1.572,0,0,1,217.335,395.756ZM173.8,383a1.573,1.573,0,0,1-1.51-2.012,24.127,24.127,0,0,1,2.862-6.281,1.572,1.572,0,0,1,2.645,1.7,20.99,20.99,0,0,0-2.49,5.464A1.572,1.572,0,0,1,173.8,383Zm43.52-.071a1.572,1.572,0,0,1-1.507-1.127,20.992,20.992,0,0,0-2.508-5.455,1.572,1.572,0,0,1,2.64-1.707,24.126,24.126,0,0,1,2.883,6.271,1.573,1.573,0,0,1-1.508,2.017ZM180.7,372.251a1.572,1.572,0,0,1-1.032-2.758,24.261,24.261,0,0,1,5.8-3.743,1.572,1.572,0,1,1,1.312,2.857,21.121,21.121,0,0,0-5.046,3.259A1.567,1.567,0,0,1,180.7,372.251Zm29.69-.048a1.566,1.566,0,0,1-1.027-.382,21.115,21.115,0,0,0-5.057-3.242,1.572,1.572,0,1,1,1.3-2.861,24.259,24.259,0,0,1,5.809,3.724,1.572,1.572,0,0,1-1.028,2.761ZM192.3,366.925a1.572,1.572,0,0,1-.222-3.127,24.639,24.639,0,0,1,6.9-.011,1.572,1.572,0,1,1-.438,3.113,21.515,21.515,0,0,0-6.01.01A1.577,1.577,0,0,1,192.3,366.925Z" transform="translate(-39.611 -39.613)" fill="#007aff"/><path d="M174.235,397.068a1.572,1.572,0,0,1-1.478-1.038A24.252,24.252,0,0,1,212.2,370.148a1.572,1.572,0,1,1-2.156,2.288,21.112,21.112,0,0,0-34.332,22.526,1.572,1.572,0,0,1-1.478,2.106Z" transform="translate(-39.611 -39.61)" fill="#007aff"/><path d="M232.212,381.679a1.567,1.567,0,0,1-1.113-.462l-10.612-10.649a1.572,1.572,0,0,1,2.227-2.219L233.326,379a1.572,1.572,0,0,1-1.113,2.681Z" transform="translate(-73.007 -42.586)" fill="#007aff"/><path d="M209.525,401.058a1.748,1.748,0,0,1-1.25-.524l-13.093-13.3a1.754,1.754,0,1,1,2.5-2.46l13.093,13.305a1.754,1.754,0,0,1-1.25,2.984Z" transform="translate(-55.625 -53.803)" fill="#007aff"/><path d="M192.086,421.806a1.567,1.567,0,0,1-1.113-.462L180.36,410.694a1.572,1.572,0,0,1,2.227-2.219L193.2,419.125a1.572,1.572,0,0,1-1.113,2.681Z" transform="translate(-45.494 -70.099)" fill="#007aff"/></g></svg>