<svg xmlns="http://www.w3.org/2000/svg" width="77.928" height="78.557" viewBox="0 0 77.928 78.557"><g transform="translate(-142.095 -218.002)"><path d="M177.918,226.036a27.3,27.3,0,1,0,27.3,27.3,27.336,27.336,0,0,0-27.3-27.3Zm-8.492,4.605a25.215,25.215,0,0,0-4.337,7.76h-6.24a24.342,24.342,0,0,1,10.578-7.76ZM156.8,241.47h7.327a45.442,45.442,0,0,0-1.46,10.336h-8.931A24.043,24.043,0,0,1,156.8,241.47Zm-3.064,13.4h8.931a45.9,45.9,0,0,0,1.24,9.464h-7.577a24.05,24.05,0,0,1-2.594-9.464Zm4.463,12.533h6.588a25.975,25.975,0,0,0,4.642,8.631,24.361,24.361,0,0,1-11.23-8.631Zm18.188,9.818c-2.524-.649-4.908-2.886-6.833-6.466a27,27,0,0,1-1.506-3.351h8.339Zm0-12.886h-9.311a42.364,42.364,0,0,1-1.34-9.464h10.65Zm0-12.533h-10.65a41.686,41.686,0,0,1,1.583-10.336h9.067Zm0-13.4h-8a26.083,26.083,0,0,1,1.164-2.479c1.925-3.579,4.309-5.818,6.833-6.466Zm22.656,3.069a24.044,24.044,0,0,1,3.064,10.336h-8.931a45.441,45.441,0,0,0-1.46-10.336Zm-2.051-3.069h-6.24a25.275,25.275,0,0,0-4.337-7.76,24.35,24.35,0,0,1,10.578,7.76Zm-17.537-8.946c2.526.649,4.91,2.888,6.833,6.466a25.736,25.736,0,0,1,1.164,2.479h-8Zm0,12.015h9.067a41.687,41.687,0,0,1,1.583,10.336h-10.65Zm0,13.4H190.1a42.281,42.281,0,0,1-1.34,9.464h-9.311Zm0,22.351v-9.818h8.339a26.783,26.783,0,0,1-1.506,3.351c-1.923,3.58-4.307,5.818-6.833,6.466Zm6.957-1.186a25.951,25.951,0,0,0,4.643-8.631h6.589a24.362,24.362,0,0,1-11.233,8.631Zm5.524-11.7a45.9,45.9,0,0,0,1.24-9.464H202.1a24.051,24.051,0,0,1-2.594,9.464Zm0,0" transform="translate(3.818 3.601)" fill="#007aff"/><path d="M193.349,218a6.709,6.709,0,1,0,6.708,6.708A6.717,6.717,0,0,0,193.349,218Zm0,10.349a3.64,3.64,0,1,1,3.639-3.639,3.645,3.645,0,0,1-3.639,3.639Zm0,0" transform="translate(19.966 0)" fill="#007aff"/><path d="M148.8,218a6.709,6.709,0,1,0,6.71,6.708A6.716,6.716,0,0,0,148.8,218Zm0,10.349a3.64,3.64,0,1,1,3.641-3.639,3.645,3.645,0,0,1-3.641,3.639Zm0,0" transform="translate(0 0)" fill="#007aff"/><path d="M193.349,262.979a6.71,6.71,0,1,0,6.708,6.71,6.717,6.717,0,0,0-6.708-6.71Zm0,10.351a3.642,3.642,0,1,1,3.639-3.641,3.646,3.646,0,0,1-3.639,3.641Zm0,0" transform="translate(19.966 20.16)" fill="#007aff"/><path d="M148.8,262.979a6.71,6.71,0,1,0,6.71,6.71,6.716,6.716,0,0,0-6.71-6.71Zm0,10.351a3.642,3.642,0,1,1,3.641-3.641,3.646,3.646,0,0,1-3.641,3.641Zm0,0" transform="translate(0 20.16)" fill="#007aff"/><path d="M154.7,229.187a1.534,1.534,0,1,1-1.534-1.534,1.535,1.535,0,0,1,1.534,1.534Zm0,0" transform="translate(4.276 4.326)" fill="#007aff"/><path d="M154.608,261.841a1.534,1.534,0,1,1-1.534-1.534,1.535,1.535,0,0,1,1.534,1.534Zm0,0" transform="translate(4.233 18.963)" fill="#007aff"/><path d="M187.691,261.989a1.534,1.534,0,1,1-1.534-1.534,1.534,1.534,0,0,1,1.534,1.534Zm0,0" transform="translate(19.062 19.029)" fill="#007aff"/><path d="M187.691,229.187a1.534,1.534,0,1,1-1.534-1.534,1.535,1.535,0,0,1,1.534,1.534Zm0,0" transform="translate(19.062 4.326)" fill="#007aff"/></g></svg>