<svg xmlns="http://www.w3.org/2000/svg" width="67.884" height="67.884" viewBox="0 0 67.884 67.884"><g transform="translate(0.251 0.251)"><path d="M64.43,29.2H63.137a.693.693,0,0,1-.688-.551A29.222,29.222,0,0,0,38.734,4.934a.694.694,0,0,1-.551-.687V2.953A2.957,2.957,0,0,0,35.23,0H32.153A2.957,2.957,0,0,0,29.2,2.953V4.247a.694.694,0,0,1-.551.687A29.222,29.222,0,0,0,4.934,28.649a.693.693,0,0,1-.688.551H2.953A2.957,2.957,0,0,0,0,32.153V35.23a2.957,2.957,0,0,0,2.954,2.954H4.246a.694.694,0,0,1,.688.552A29.223,29.223,0,0,0,28.649,62.449a.694.694,0,0,1,.551.687V64.43a2.957,2.957,0,0,0,2.954,2.954H35.23a2.957,2.957,0,0,0,2.954-2.954V63.136a.694.694,0,0,1,.551-.687A29.222,29.222,0,0,0,62.449,38.734a.693.693,0,0,1,.688-.551H64.43a2.957,2.957,0,0,0,2.954-2.954V32.153A2.957,2.957,0,0,0,64.43,29.2Zm.707,6.031a.709.709,0,0,1-.707.707H63.137a2.92,2.92,0,0,0-2.9,2.411A26.975,26.975,0,0,1,38.348,60.237a2.92,2.92,0,0,0-2.41,2.9V64.43a.709.709,0,0,1-.707.707H32.153a.709.709,0,0,1-.707-.707V63.136a2.92,2.92,0,0,0-2.41-2.9A26.975,26.975,0,0,1,7.147,38.349a2.92,2.92,0,0,0-2.9-2.411H2.953a.709.709,0,0,1-.707-.707V32.153a.709.709,0,0,1,.707-.707H4.246a2.92,2.92,0,0,0,2.9-2.411A26.975,26.975,0,0,1,29.036,7.146a2.92,2.92,0,0,0,2.41-2.9V2.953a.709.709,0,0,1,.707-.707H35.23a.709.709,0,0,1,.707.707V4.247a2.92,2.92,0,0,0,2.41,2.9A26.975,26.975,0,0,1,60.237,29.034a2.92,2.92,0,0,0,2.9,2.411H64.43a.709.709,0,0,1,.707.707Zm0,0" transform="translate(0)" fill="#007aff" stroke="#007aff" stroke-width="0.5"/><path d="M130.3,142.236v2.258a2.91,2.91,0,0,0,1.2,2.372,3.015,3.015,0,0,0,2.7.433,20.225,20.225,0,0,0,13.1-13.109,3.023,3.023,0,0,0-.433-2.7,2.906,2.906,0,0,0-2.372-1.2H142.24a.709.709,0,0,1-.708-.707v-3.077a.709.709,0,0,1,.708-.707H144.5a2.907,2.907,0,0,0,2.372-1.2,3.021,3.021,0,0,0,.433-2.69A20.225,20.225,0,0,0,134.195,108.8a3.019,3.019,0,0,0-2.7.433,2.91,2.91,0,0,0-1.2,2.372v2.258a.709.709,0,0,1-.707.708h-3.077a.709.709,0,0,1-.707-.708v-2.258a2.91,2.91,0,0,0-1.2-2.372,3.02,3.02,0,0,0-2.7-.433,20.225,20.225,0,0,0-13.1,13.109,3.021,3.021,0,0,0,.433,2.69,2.907,2.907,0,0,0,2.372,1.2h2.258a.709.709,0,0,1,.708.707v3.077a.709.709,0,0,1-.708.707h-2.258a2.907,2.907,0,0,0-2.372,1.2,3.023,3.023,0,0,0-.433,2.7,20.224,20.224,0,0,0,13.108,13.1,3.051,3.051,0,0,0,.92.142,3.007,3.007,0,0,0,1.771-.575,2.91,2.91,0,0,0,1.2-2.372v-2.258a.709.709,0,0,1,.707-.708h3.077A.709.709,0,0,1,130.3,142.236Zm-6.738,0v2.258a.675.675,0,0,1-.282.561.759.759,0,0,1-.683.1,17.969,17.969,0,0,1-11.649-11.652.754.754,0,0,1,.1-.683.681.681,0,0,1,.562-.282h2.256a2.957,2.957,0,0,0,2.954-2.954v-3.077a2.957,2.957,0,0,0-2.954-2.954h-2.258a.681.681,0,0,1-.561-.282.752.752,0,0,1-.1-.683,17.969,17.969,0,0,1,11.651-11.65.76.76,0,0,1,.683.1.676.676,0,0,1,.282.562v2.256a2.957,2.957,0,0,0,2.954,2.954h3.077a2.957,2.957,0,0,0,2.954-2.954v-2.258a.675.675,0,0,1,.282-.561.759.759,0,0,1,.683-.1,17.969,17.969,0,0,1,11.649,11.652.754.754,0,0,1-.1.683.681.681,0,0,1-.562.282H142.24a2.957,2.957,0,0,0-2.954,2.954v3.077a2.957,2.957,0,0,0,2.954,2.954H144.5a.681.681,0,0,1,.561.282.752.752,0,0,1,.1.683,17.969,17.969,0,0,1-11.651,11.65.763.763,0,0,1-.683-.1.676.676,0,0,1-.282-.562v-2.256a2.957,2.957,0,0,0-2.954-2.954h-3.077A2.957,2.957,0,0,0,123.563,142.236Zm0,0" transform="translate(-94.363 -94.36)" fill="#007aff" stroke="#007aff" stroke-width="0.5"/><path d="M201.3,210.853a3.369,3.369,0,1,0,0-6.738,3.328,3.328,0,0,0-1.445.337l-.007-.01-7.862-7.862a1.123,1.123,0,0,0-1.588,0l-2.246,2.246a1.123,1.123,0,0,0,1.588,1.588l1.452-1.45,1.781,1.781-1.452,1.452a1.123,1.123,0,1,0,1.588,1.588l1.452-1.452,3.7,3.7.01.007a3.325,3.325,0,0,0-.339,1.446,3.369,3.369,0,0,0,3.369,3.369Zm0-4.492a1.123,1.123,0,1,1-1.123,1.123A1.123,1.123,0,0,1,201.3,206.36Zm0,0" transform="translate(-163.118 -170.423)" fill="#007aff" stroke="#007aff" stroke-width="0.5"/><path d="M278.8,375.791a22.483,22.483,0,0,1-13.578,6.316,1.124,1.124,0,0,0,.1,2.246h.112a24.739,24.739,0,0,0,14.937-6.947,1.128,1.128,0,1,0-1.576-1.615Zm0,0" transform="translate(-229.39 -326.055)" fill="#007aff" stroke="#007aff" stroke-width="0.5"/><path d="M97.7,69.622H95.425A24.737,24.737,0,0,0,71.869,46.066V43.791a1.123,1.123,0,0,0-2.247,0v2.274A24.737,24.737,0,0,0,46.066,69.622H43.792a1.123,1.123,0,0,0,0,2.247h2.3A24.715,24.715,0,0,0,66.041,95a1.144,1.144,0,0,0,.213.02,1.123,1.123,0,0,0,.211-2.226A22.461,22.461,0,1,1,89.882,82.509a1.123,1.123,0,0,0,1.909,1.179,24.622,24.622,0,0,0,3.623-11.82H97.7a1.123,1.123,0,0,0,0-2.247Zm0,0" transform="translate(-37.054 -37.053)" fill="#007aff" stroke="#007aff" stroke-width="0.5"/></g></svg>