<svg xmlns="http://www.w3.org/2000/svg" width="75.339" height="76.731" viewBox="0 0 75.339 76.731"><g transform="translate(-0.5 -0.502)"><path d="M18.092,27.382,8.146,32.611l1.9-11.074L2,13.694l11.119-1.616L18.092,2l4.973,10.076,11.119,1.616-8.046,7.843,1.9,11.074Z" transform="translate(0 0)" fill="none" stroke="#007aff" stroke-linejoin="round" stroke-width="3" fill-rule="evenodd"/><path d="M18.092,38.493,8.146,43.722l1.9-11.074L2,24.8l11.119-1.616,4.973-10.075,4.973,10.075L34.183,24.8l-8.046,7.843,1.9,11.074Z" transform="translate(0 32.012)" fill="none" stroke="#007aff" stroke-linejoin="round" stroke-width="3" fill-rule="evenodd"/><path d="M13.655,12.046,24.107,21.1,40.14,3.633" transform="translate(33.58 4.699)" fill="none" stroke="#007aff" stroke-linecap="round" stroke-linejoin="round" stroke-width="3" fill-rule="evenodd"/><path d="M13.746,18.222H39.959" transform="translate(33.841 46.731)" fill="none" stroke="#007aff" stroke-linecap="round" stroke-width="3" fill-rule="evenodd"/></g></svg>