<svg xmlns="http://www.w3.org/2000/svg" width="79.066" height="73.556" viewBox="0 0 79.066 73.556"><path d="M79.4,40.46c1.421-3.553-.711-7.818-4.264-9.239L69.09,29.444l6.041-2.132A6.407,6.407,0,0,0,79.4,23.048c1.421-3.553-.711-7.818-4.264-9.239L42.8,2.083a5.271,5.271,0,0,0-4.619,0L5.484,13.809A6.407,6.407,0,0,0,1.22,18.073c-1.421,3.553.711,7.818,4.264,9.239l6.041,2.132L5.484,31.576A6.407,6.407,0,0,0,1.22,35.841c-1.421,3.553.711,7.818,4.264,9.239l6.4,2.132-6.4,2.132A6.407,6.407,0,0,0,1.22,53.608c-1.421,3.553.711,7.818,4.264,9.239L37.82,74.573a5.271,5.271,0,0,0,4.619,0L74.776,62.847a6.407,6.407,0,0,0,4.264-4.264c1.421-3.553-.711-7.818-4.264-9.239L69.09,47.212l6.4-2.132A8.4,8.4,0,0,0,79.4,40.46ZM4.773,19.139a3.2,3.2,0,0,1,2.132-2.132L39.242,5.281a3.035,3.035,0,0,1,2.487,0L74.065,17.007A3.7,3.7,0,0,1,76.2,21.627a3.2,3.2,0,0,1-2.132,2.132L41.729,35.485a3.035,3.035,0,0,1-2.487,0L6.905,23.759A3.7,3.7,0,0,1,4.773,19.139ZM43.861,56.1,63.4,48.988l10.3,3.553a3.7,3.7,0,0,1,2.132,4.619,3.2,3.2,0,0,1-2.132,2.132L41.374,71.019a3.035,3.035,0,0,1-2.487,0L6.55,59.293a3.883,3.883,0,0,1-1.777-4.619,3.2,3.2,0,0,1,2.132-2.132c6.041-2.132,6.041-2.132,9.95-3.553l.711-.355h.355c.355,0,.355,0,.711.355l18.122,6.4c.355,0,.355,0,.711.355h0l1.066.355a5.271,5.271,0,0,0,4.619,0l.711-.355ZM42.44,52.9a8.661,8.661,0,0,1-4.264,0l-.711-.355q-13.325-4.8-18.122-6.4L6.905,41.526a3.7,3.7,0,0,1-2.132-4.619,3.2,3.2,0,0,1,2.132-2.132l9.95-3.553h0L37.82,38.683a5.271,5.271,0,0,0,4.619,0L63.4,31.221l10.3,3.553a3.7,3.7,0,0,1,2.132,4.619,3.2,3.2,0,0,1-2.132,2.132Z" transform="translate(-0.775 -1.55)" fill="#007aff"/></svg>