<svg xmlns="http://www.w3.org/2000/svg" width="70.819" height="74.792" viewBox="0 0 70.819 74.792"><g transform="translate(-65.078 -297.744)"><path d="M134.436,363.728h-3.2V317.207a3.931,3.931,0,0,0-3.928-3.926h-7.16a3.93,3.93,0,0,0-3.927,3.926v46.521h-8.135V338.285a3.931,3.931,0,0,0-3.927-3.927H96.993a3.931,3.931,0,0,0-3.927,3.927v25.443H84.931V350.551A3.931,3.931,0,0,0,81,346.624h-7.16a3.932,3.932,0,0,0-3.928,3.927v13.176H66.538a1.461,1.461,0,0,0,0,2.922h67.9a1.461,1.461,0,1,0,0-2.922Zm-52.427,0H72.837V350.551a1.007,1.007,0,0,1,1.005-1.007H81a1.007,1.007,0,0,1,1.005,1.007Zm23.151,0H95.988V338.285a1.007,1.007,0,0,1,1.005-1.007h7.162a1.007,1.007,0,0,1,1.005,1.007Zm23.151,0h-9.172V317.207a1.006,1.006,0,0,1,1.005-1.005h7.16a1.007,1.007,0,0,1,1.007,1.005Zm0,0" transform="translate(0 5.886)" fill="#007aff"/><path d="M127.787,299.28a1.457,1.457,0,0,0-1.533-1.533l-.07,0h-8.837a1.46,1.46,0,1,0,0,2.92H122.8l-14.441,14.442-5.445-5.446a1.463,1.463,0,0,0-2.067,0l-26.26,26.26a1.461,1.461,0,1,0,2.067,2.066l25.226-25.227,5.446,5.446a1.461,1.461,0,0,0,2.067,0l15.473-15.475v4.94a1.461,1.461,0,0,0,2.922,0v-8.32c0-.025,0-.047,0-.07Zm0,0" transform="translate(3.442)" fill="#007aff"/><path d="M73.512,330.279a1.46,1.46,0,1,1-1.46-1.462,1.46,1.46,0,0,1,1.46,1.462Zm0,0" transform="translate(2.089 11.772)" fill="#007aff"/></g></svg>