<svg xmlns="http://www.w3.org/2000/svg" width="79.01" height="41.665" viewBox="0 0 79.01 41.665"><g transform="translate(-0.001 -121)"><g transform="translate(0.001 121)"><path d="M423.345,187.022A3.443,3.443,0,0,0,420.89,186H409.527a1.157,1.157,0,0,0,0,2.315h4.727v18.228a1.157,1.157,0,0,0,2.315,0v-13.6h4.321a3.476,3.476,0,0,0,3.472-3.472A3.441,3.441,0,0,0,423.345,187.022Zm-2.456,3.61h-4.321v-2.315h4.321a1.161,1.161,0,0,1,1.157,1.157A1.159,1.159,0,0,1,420.89,190.633Z" transform="translate(-345.352 -175.972)" fill="#63748a"/><path d="M38.879,151a8.766,8.766,0,0,0-4,.953,1.157,1.157,0,0,0,1.046,2.065,6.472,6.472,0,0,1,2.952-.7,6.558,6.558,0,1,1-6.558,6.558,6.475,6.475,0,0,1,.691-2.929,1.157,1.157,0,0,0-2.069-1.038,8.769,8.769,0,0,0-.937,3.967A8.873,8.873,0,1,0,38.879,151Z" transform="translate(-25.376 -146.373)" fill="#63748a"/><path d="M70.06,155.542A1.157,1.157,0,0,0,68.9,156.7v3.393l-9.6-3.851a1.768,1.768,0,0,0-1.321,0l-9.6,3.85V133.346H59.267a1.157,1.157,0,0,0,0-2.315H28.054a2.044,2.044,0,0,1-1.917-1.294A13.5,13.5,0,0,0,0,134.177,13.5,13.5,0,0,0,26.125,139.3a2.1,2.1,0,0,1,1.968-1.325H46.064v22.916a1.775,1.775,0,0,0,2.435,1.647l10.142-4.067,10.142,4.067a1.775,1.775,0,0,0,2.435-1.647V156.7A1.157,1.157,0,0,0,70.06,155.542ZM28.093,135.661a4.428,4.428,0,0,0-4.131,2.817A11.248,11.248,0,0,1,13.5,145.691a11.188,11.188,0,1,1,10.468-15.137,4.37,4.37,0,0,0,4.083,2.792h18.01v2.315H28.093Z" transform="translate(-0.001 -121)" fill="#63748a"/><path d="M198.859,272h-9.635a1.157,1.157,0,1,0,0,2.315h9.635a1.157,1.157,0,1,0,0-2.315Z" transform="translate(-159.045 -248.701)" fill="#63748a"/><path d="M198.859,302h-9.635a1.157,1.157,0,1,0,0,2.315h9.635a1.157,1.157,0,1,0,0-2.315Z" transform="translate(-159.045 -274.07)" fill="#63748a"/><path d="M156.944,332H139.66a1.157,1.157,0,1,0,0,2.315h17.283a1.157,1.157,0,1,0,0-2.315Z" transform="translate(-117.13 -299.442)" fill="#63748a"/><path d="M156.944,362H139.66a1.157,1.157,0,1,0,0,2.315h17.283a1.157,1.157,0,1,0,0-2.315Z" transform="translate(-117.13 -324.811)" fill="#63748a"/></g></g></svg>