<svg xmlns="http://www.w3.org/2000/svg" width="59.951" height="86.826" viewBox="0 0 59.951 86.826"><g transform="translate(0 0)"><path d="M71.375,90.281a18.124,18.124,0,1,1,16.95-11.666,1.469,1.469,0,0,1-2.744-1.049,15.191,15.191,0,1,0-8.289,8.583,1.469,1.469,0,0,1,1.144,2.705,18.032,18.032,0,0,1-7.061,1.426Zm0,0" transform="translate(-41.399 -42.036)" fill="#007aff"/><path d="M57.307,83.8a43.433,43.433,0,0,0-23.979-9.4L53.141,49.019a1.577,1.577,0,0,0,.1-.136,29.976,29.976,0,1,0-46.554-.042l.023.03L26.625,74.4A43.433,43.433,0,0,0,2.645,83.8a1.7,1.7,0,1,0,2.109,2.655,40.582,40.582,0,0,1,50.442,0,1.7,1.7,0,1,0,2.11-2.655ZM9.359,46.757a26.583,26.583,0,1,1,41.122.138,1.644,1.644,0,0,0-.147.208L29.976,73.185,9.425,46.844c-.021-.03-.043-.058-.066-.087Zm0,0" fill="#007aff"/><path d="M250.141,248.937a1.47,1.47,0,1,1,1.038-.43A1.477,1.477,0,0,1,250.141,248.937Zm0,0" transform="translate(-208.136 -205.839)" fill="#007aff"/></g></svg>