<svg xmlns="http://www.w3.org/2000/svg" width="67.932" height="81.664" viewBox="0 0 67.932 81.664"><g transform="translate(253.35 -112.27)"><path d="M-204.6,199.111h9.656v9.655H-204.6Z" transform="translate(-14.988 -26.699)" fill="#007aff"/><path d="M-159.366,199.242v9.56h-9.249v-9.56Z" transform="translate(-26.052 -26.74)" fill="#007aff"/><path d="M-194.965,226.071h-9.589V216.8h9.589Z" transform="translate(-15.002 -32.137)" fill="#007aff"/><path d="M-204.656,155.638v-8.669h9.731v8.669Z" transform="translate(-14.971 -10.668)" fill="#007aff"/><path d="M-253.35,174v-8.732h9.684V174Z" transform="translate(0 -16.294)" fill="#007aff"/><path d="M-204.737,173.972v-8.634h9.77v8.634Z" transform="translate(-14.946 -16.316)" fill="#007aff"/><path d="M-204.57,182.1h9.612V190.9h-9.612Z" transform="translate(-14.998 -21.471)" fill="#007aff"/><path d="M-212.876,208.919h-8.609v-9.757h8.609Z" transform="translate(-9.797 -26.715)" fill="#007aff"/><path d="M-186.21,199.034h8.613V208.8h-8.613Z" transform="translate(-20.642 -26.676)" fill="#007aff"/><path d="M-159.439,174.043h-9.211v-8.707h9.211Z" transform="translate(-26.041 -16.315)" fill="#007aff"/><path d="M-159.451,190.981h-9.167V182.3h9.167Z" transform="translate(-26.051 -21.532)" fill="#007aff"/><path d="M-186.24,216.691h8.655v9.281h-8.655Z" transform="translate(-20.633 -32.104)" fill="#007aff"/><path d="M-221.466,112.27h8.619v8.793h-8.619Z" transform="translate(-9.803 0)" fill="#007aff"/><path d="M-212.9,138.776h-8.619v-8.793h8.619Z" transform="translate(-9.787 -5.446)" fill="#007aff"/><path d="M-221.655,155.6v-8.619h8.793V155.6Z" transform="translate(-9.745 -10.671)" fill="#007aff"/><path d="M-177.52,146.93v8.723h-8.707V146.93Z" transform="translate(-20.637 -10.656)" fill="#007aff"/><path d="M-221.558,165.227h8.711v8.707h-8.711Z" transform="translate(-9.775 -16.282)" fill="#007aff"/><path d="M-177.6,174.075h-8.606V165.3h8.606Z" transform="translate(-20.644 -16.303)" fill="#007aff"/><path d="M-229.833,190.987h-8.619v-8.793h8.619Z" transform="translate(-4.58 -21.498)" fill="#007aff"/><path d="M-221.544,182.168h8.691v8.691h-8.691Z" transform="translate(-9.779 -21.49)" fill="#007aff"/><path d="M-186.275,182.159h8.7v8.7h-8.7Z" transform="translate(-20.622 -21.487)" fill="#007aff"/></g></svg>