<svg xmlns="http://www.w3.org/2000/svg" width="53.158" height="53.158" viewBox="0 0 53.158 53.158"><path d="M49.282,0H3.876A3.88,3.88,0,0,0,0,3.876V9.413A3.88,3.88,0,0,0,3.876,13.29H49.282a3.88,3.88,0,0,0,3.876-3.876V3.876A3.88,3.88,0,0,0,49.282,0Z" fill="#63748a"/><path d="M3.876,43.439H20.488a3.88,3.88,0,0,0,3.876-3.876V11.876A3.88,3.88,0,0,0,20.488,8H3.876A3.88,3.88,0,0,0,0,11.876V39.563A3.88,3.88,0,0,0,3.876,43.439Z" transform="translate(0 9.719)" fill="#63748a"/><path d="M33.488,8H16.876A3.88,3.88,0,0,0,13,11.876v7.752A3.88,3.88,0,0,0,16.876,23.5H33.488a3.88,3.88,0,0,0,3.876-3.876V11.876A3.88,3.88,0,0,0,33.488,8Z" transform="translate(15.794 9.719)" fill="#63748a"/><path d="M33.488,17H16.876A3.88,3.88,0,0,0,13,20.876v7.752A3.88,3.88,0,0,0,16.876,32.5H33.488a3.88,3.88,0,0,0,3.876-3.876V20.876A3.88,3.88,0,0,0,33.488,17Z" transform="translate(15.794 20.654)" fill="#63748a"/></svg>