<svg xmlns="http://www.w3.org/2000/svg" width="96.157" height="71.896" viewBox="0 0 96.157 71.896"><g transform="translate(-222.673 -383.952)"><path d="M240.78,403.565a1.878,1.878,0,1,1-1.879-1.877,1.879,1.879,0,0,1,1.879,1.877Zm0,0" transform="translate(11.089 13.705)" fill="#007aff"/><path d="M246.83,407.1a1.878,1.878,0,1,1-1.877-1.877,1.879,1.879,0,0,1,1.877,1.877Zm0,0" transform="translate(15.764 16.433)" fill="#007aff"/><path d="M252.857,400.529a1.878,1.878,0,1,1-1.877-1.877,1.879,1.879,0,0,1,1.877,1.877Zm0,0" transform="translate(20.421 11.359)" fill="#007aff"/><path d="M258.765,403.144a1.878,1.878,0,1,1-1.879-1.879,1.879,1.879,0,0,1,1.879,1.879Zm0,0" transform="translate(24.986 13.378)" fill="#007aff"/><path d="M264.6,395.662a1.877,1.877,0,1,1-1.877-1.879,1.877,1.877,0,0,1,1.877,1.879Zm0,0" transform="translate(29.499 7.596)" fill="#007aff"/><path d="M316.953,440.317H278.919a1.88,1.88,0,0,0-1.879,1.879,3.173,3.173,0,0,1-3.17,3.168h-6.29a3.172,3.172,0,0,1-3.168-3.168,1.879,1.879,0,0,0-1.877-1.879H232.971v-48.65a3.965,3.965,0,0,1,3.96-3.958h67.641a3.962,3.962,0,0,1,3.958,3.958v36.156a1.878,1.878,0,1,0,3.756,0V391.667a7.723,7.723,0,0,0-7.715-7.715H236.931a7.723,7.723,0,0,0-7.715,7.715v48.65h-4.664a1.88,1.88,0,0,0-1.879,1.879v2.95a10.713,10.713,0,0,0,10.7,10.7H308.13a10.713,10.713,0,0,0,10.7-10.7V442.2a1.879,1.879,0,0,0-1.877-1.879Zm-1.879,4.829a6.954,6.954,0,0,1-6.945,6.945H233.375a6.953,6.953,0,0,1-6.945-6.945v-1.073h34.486a6.938,6.938,0,0,0,6.665,5.047h6.29a6.937,6.937,0,0,0,6.667-5.047h34.536Zm0,0" transform="translate(0 0)" fill="#007aff"/><path d="M296.226,388.471H232.944a1.879,1.879,0,0,0-1.879,1.879v40.455a1.879,1.879,0,0,0,1.879,1.877h63.282a1.877,1.877,0,0,0,1.877-1.877V390.35a1.877,1.877,0,0,0-1.877-1.879Zm-1.877,40.455h-6.731V406.42a1.877,1.877,0,1,0-3.755,0v22.506h-6.8v-8.357a1.877,1.877,0,0,0-3.755,0v8.357h-6.8V416.232a1.878,1.878,0,1,0-3.756,0v12.694h-6.8v-1.812a1.878,1.878,0,1,0-3.756,0v1.812h-6.8v-7.447a1.877,1.877,0,0,0-3.755,0v7.447h-6.809v-36.7h59.528Zm0,0" transform="translate(6.485 3.492)" fill="#007aff"/><path d="M274.738,413.658a1.878,1.878,0,1,1-1.879-1.877,1.877,1.877,0,0,1,1.879,1.877Zm0,0" transform="translate(37.329 21.504)" fill="#007aff"/></g></svg>