<svg xmlns="http://www.w3.org/2000/svg" width="80.886" height="85.169" viewBox="0 0 80.886 85.169"><g transform="translate(-143.242 -377.109)"><path d="M222.465,384.157h-5.326v-5.386a1.664,1.664,0,0,0-3.327,0v6.361l-6.954,6.973a38.04,38.04,0,0,0-52.476,55.055,38.874,38.874,0,0,0,3.519,3.115l-9.16,9.162a1.663,1.663,0,1,0,2.352,2.352l9.556-9.557A38.112,38.112,0,0,0,202,452.176l9.614,9.614a1.663,1.663,0,0,0,2.352-2.352l-9.226-9.226a38.813,38.813,0,0,0,3.437-3.051,38.068,38.068,0,0,0,7.376-43.417,1.664,1.664,0,0,0-3,1.448,34.378,34.378,0,0,1,3.434,15.072,34.714,34.714,0,1,1-11.487-25.8l-5.839,5.854a26.459,26.459,0,1,0,9.074,19.945,26.344,26.344,0,0,0-6.708-17.6l7.033-7.053.006,0,.006-.006,8.088-8.11h6.3a1.664,1.664,0,0,0,0-3.327Zm-18.854,30.037a23.149,23.149,0,1,1-7.3-11.515l-6.866,6.887a13.493,13.493,0,1,0,2.374,2.33l6.858-6.877a23.093,23.093,0,0,1,4.93,9.176Zm-23.282,6.869a1.666,1.666,0,0,0,2.354,0l6.772-6.791a10.156,10.156,0,1,1-2.382-2.324l-6.747,6.764a1.666,1.666,0,0,0,0,2.354Zm0,0" transform="translate(0 0)" fill="#007aff"/><path d="M187.35,391.267a1.059,1.059,0,1,1-1.059-1.059,1.058,1.058,0,0,1,1.059,1.059Zm0,0" transform="translate(29.371 7.772)" fill="#007aff"/></g></svg>