<svg xmlns="http://www.w3.org/2000/svg" width="66.543" height="66.781" viewBox="0 0 66.543 66.781"><g transform="translate(0.228 0.25)"><path d="M247.778,59.17h10.213a1.614,1.614,0,0,0,1.613-1.613V47.3a1.614,1.614,0,0,0-1.613-1.613H247.778a1.614,1.614,0,0,0-1.613,1.613v2.427a.968.968,0,0,0,1.935,0v-2.1h9.568v9.612H248.1V54.383a.968.968,0,1,0-1.935,0v3.175A1.614,1.614,0,0,0,247.778,59.17Z" transform="translate(-214.39 -39.794)" fill="#007aff" stroke="#007aff" stroke-width="0.5"/><path d="M112.451,125.01h13.181a.968.968,0,1,0,0-1.935H112.451a.968.968,0,0,0,0,1.935Z" transform="translate(-97.082 -107.198)" fill="#007aff" stroke="#007aff" stroke-width="0.5"/><path d="M187.093,187.447a.967.967,0,0,0-.968-.967h-13.3a.968.968,0,1,0,0,1.935h13.3A.968.968,0,0,0,187.093,187.447Z" transform="translate(-149.669 -162.423)" fill="#007aff" stroke="#007aff" stroke-width="0.5"/><path d="M112.451,92.377h13.181a.968.968,0,1,0,0-1.935H112.451a.968.968,0,0,0,0,1.935Z" transform="translate(-97.082 -78.775)" fill="#007aff" stroke="#007aff" stroke-width="0.5"/><path d="M112.451,59.744h13.181a.968.968,0,1,0,0-1.935H112.451a.968.968,0,0,0,0,1.935Z" transform="translate(-97.082 -50.351)" fill="#007aff" stroke="#007aff" stroke-width="0.5"/><path d="M112.451,271.4H132.3a.968.968,0,1,0,0-1.935H112.451a.968.968,0,1,0,0,1.935Z" transform="translate(-97.082 -234.7)" fill="#007aff" stroke="#007aff" stroke-width="0.5"/><path d="M112.451,229.439h15.7a.968.968,0,0,0,0-1.935h-15.7a.968.968,0,0,0,0,1.935Z" transform="translate(-97.082 -198.155)" fill="#007aff" stroke="#007aff" stroke-width="0.5"/><path d="M275.685,227.5h-9.047a.968.968,0,0,0,0,1.935h9.047a.968.968,0,0,0,0-1.935Z" transform="translate(-231.379 -198.155)" fill="#007aff" stroke="#007aff" stroke-width="0.5"/><path d="M64.942,59.848l-.036-.034-5.954-5.3A12.624,12.624,0,0,0,60.5,48.88a.968.968,0,1,0-1.934-.069,10.712,10.712,0,1,1-.612-4,.968.968,0,1,0,1.823-.648,12.665,12.665,0,0,0-10.372-8.315V1.613A1.614,1.614,0,0,0,47.795,0H11.819a1.614,1.614,0,0,0-1.613,1.613v3.5H6.727A1.614,1.614,0,0,0,5.114,6.725v3.5H1.635A1.614,1.614,0,0,0,.022,11.836V60.1a1.614,1.614,0,0,0,1.613,1.613H32.442A1.614,1.614,0,0,0,34.055,60.1V56.6h4.2a12.6,12.6,0,0,0,15.61,2.973l6,5.373a3.6,3.6,0,1,0,5.078-5.1ZM12.142,1.935h35.33V35.766A12.644,12.644,0,0,0,37.39,41.377H33.462a.968.968,0,0,0,0,1.935h2.865q-.194.442-.357.9a12.666,12.666,0,0,0-.713,4.206c0,.383.018.761.051,1.136H21.847A6.971,6.971,0,0,0,24,44.509v-1.2h5.263a.968.968,0,0,0,0-1.935H23.037a.967.967,0,0,0-.968.968v2.165a5.041,5.041,0,0,1-5.024,5.047h-4.9ZM7.05,54.668V41.442a.968.968,0,0,0-1.935,0V54.99A1.614,1.614,0,0,0,6.727,56.6H32.12V59.78H1.957V12.159H5.115V37.353a.968.968,0,1,0,1.935,0V7.047h3.157V50.524a.967.967,0,0,0,.968.968H35.632A12.6,12.6,0,0,0,36.9,54.668H7.05Zm56.622,8.985a1.757,1.757,0,0,1-2.5-.129l-5.627-5.04a12.817,12.817,0,0,0,2.336-2.33L63.6,61.242a1.713,1.713,0,0,1,.071,2.411Z" fill="#007aff" stroke="#007aff" stroke-width="0.5"/><path d="M315.339,311.233a8.27,8.27,0,1,0,8.247,8.27A8.3,8.3,0,0,0,315.339,311.233Zm0,14.6a6.335,6.335,0,1,1,6.312-6.334A6.331,6.331,0,0,1,315.339,325.837Z" transform="translate(-267.456 -271.082)" fill="#007aff" stroke="#007aff" stroke-width="0.5"/></g></svg>