<svg xmlns="http://www.w3.org/2000/svg" width="93.412" height="82.401" viewBox="0 0 93.412 82.401"><g transform="translate(-303.551 -221.199)"><path d="M354.233,238.947a1.683,1.683,0,1,1-1.684-1.684,1.682,1.682,0,0,1,1.684,1.684Zm0,0" transform="translate(35.095 11.7)" fill="#007aff"/><path d="M326.216,245.1a1.683,1.683,0,1,1-1.682-1.684,1.682,1.682,0,0,1,1.682,1.684Zm0,0" transform="translate(14.041 16.18)" fill="#007aff"/><path d="M391.528,230H377.341a10.622,10.622,0,0,0-20.929,0H342.223a5.442,5.442,0,0,0-5.435,5.437v9.186H326.634a8.648,8.648,0,1,0-13.009,1.261,16.06,16.06,0,0,0-10.074,14.772v13.589a8.11,8.11,0,0,0,7.326,7.979V299.95h-4.564a1.825,1.825,0,1,0,0,3.649h87.1a1.825,1.825,0,1,0,0-3.649H379.709l-5.228-15.577h17.047a5.442,5.442,0,0,0,5.435-5.435v-43.5A5.44,5.44,0,0,0,391.528,230Zm-24.652-5.151A6.989,6.989,0,0,1,373.609,230H360.142a6.989,6.989,0,0,1,6.733-5.151Zm-47.291,9.777a5,5,0,1,1-5,5,5,5,0,0,1,5-5Zm6.181,19.479V299.95h-3.8V279.44a1.825,1.825,0,0,0-3.649,0V299.95h-3.794V261.128a1.825,1.825,0,1,0-3.649,0v17.409a4.438,4.438,0,0,1-3.677-4.293V260.655a12.625,12.625,0,0,1,12.826-12.384h33.528a5.84,5.84,0,0,1-5.538,4.007H327.589a1.824,1.824,0,0,0-1.824,1.825Zm50.1,45.847H359.107l5.228-15.577h6.3Zm17.456-21.012a1.79,1.79,0,0,1-1.788,1.786h-49.3a1.789,1.789,0,0,1-1.786-1.786V268.263a1.825,1.825,0,1,0-3.649,0v10.675a5.442,5.442,0,0,0,5.435,5.435h18.261l-5.228,15.577H329.414V255.928h18.6a9.491,9.491,0,0,0,9.48-9.48,1.825,1.825,0,0,0-1.826-1.825H340.437v-9.186a1.789,1.789,0,0,1,1.786-1.788h49.3a1.79,1.79,0,0,1,1.788,1.788Zm0,0" transform="translate(0 0)" fill="#007aff"/><path d="M362.1,240.993a1.681,1.681,0,0,0-2.379,0l-7.207,7.208-2.63-2.629a1.682,1.682,0,0,0-2.379,0l-9.292,9.291-2.6-2.594a1.68,1.68,0,0,0-2.379,0L328.41,257.1a1.683,1.683,0,0,0,2.381,2.379l3.636-3.637,2.6,2.6a1.686,1.686,0,0,0,2.381,0l9.291-9.292,2.629,2.629a1.683,1.683,0,0,0,2.381,0l8.4-8.4a1.682,1.682,0,0,0,0-2.379Zm0,0" transform="translate(21.592 14.826)" fill="#007aff"/></g></svg>